<?xml version="1.0" encoding="utf-8"?>
<!-- Generator: Adobe Illustrator 23.0.3, SVG Export Plug-In . SVG Version: 6.00 Build 0)  -->
<svg version="1.1" id="img" xmlns="http://www.w3.org/2000/svg" xmlns:xlink="http://www.w3.org/1999/xlink" x="0px" y="0px"
	 viewBox="0 0 100 100" enable-background="new 0 0 100 100" xml:space="preserve">
<path d="M66.2,26v30c0,1.325-1.074,2.4-2.4,2.4c-1.326,0-2.4-1.075-2.4-2.4V35.6c0-0.663-0.537-1.2-1.2-1.2S59,34.937,59,35.6v59.1
	c0,1.823-1.477,3.3-3.3,3.3s-3.3-1.477-3.3-3.3V60.8c0-1.326-1.075-2.4-2.4-2.4s-2.4,1.074-2.4,2.4v33.9c0,1.823-1.477,3.3-3.3,3.3
	S41,96.523,41,94.7V35.6c0-0.663-0.537-1.2-1.2-1.2s-1.2,0.537-1.2,1.2V56c0,1.325-1.074,2.4-2.4,2.4s-2.4-1.075-2.4-2.4V26
	c0-3.976,3.224-7.2,7.2-7.2h18C62.976,18.8,66.2,22.024,66.2,26z M50,16.4c3.976,0,7.2-3.224,7.2-7.2C57.2,5.224,53.976,2,50,2
	s-7.2,3.224-7.2,7.2C42.8,13.176,46.024,16.4,50,16.4z"/>
</svg>
