<?xml version="1.0" encoding="utf-8"?>
<!-- Generator: Adobe Illustrator 23.0.3, SVG Export Plug-In . SVG Version: 6.00 Build 0)  -->
<svg version="1.1" id="img" xmlns="http://www.w3.org/2000/svg" xmlns:xlink="http://www.w3.org/1999/xlink" x="0px" y="0px"
	 viewBox="0 0 100 100" enable-background="new 0 0 100 100" xml:space="preserve">
<g id="awful">
	<g>
		<g>
			<path fill="#FF5000" d="M95,50c0,24.853-20.147,45-45,45S5,74.853,5,50S25.147,5,50,5S95,25.147,95,50z M91,50
				C91,27.393,72.607,9,50,9S9,27.393,9,50s18.393,41,41,41S91,72.607,91,50z"/>
		</g>
	</g>
	<g>
		<circle fill="#FF5000" cx="32" cy="44" r="7"/>
	</g>
	<g>
		<circle fill="#FF5000" cx="68" cy="44" r="7"/>
	</g>
	<path fill="#FF5000" d="M64.069,74c2.436,0,3.858-2.745,2.452-4.735C63.897,65.549,58.873,61,50,61s-13.897,4.549-16.521,8.265
		C32.074,71.255,33.495,74,35.931,74H64.069z"/>
</g>
<g id="bad">
	<g>
		<g>
			<path fill="#FFAA00" d="M95,50c0,24.853-20.147,45-45,45S5,74.853,5,50S25.147,5,50,5S95,25.147,95,50z M91,50
				C91,27.393,72.607,9,50,9S9,27.393,9,50s18.393,41,41,41S91,72.607,91,50z"/>
		</g>
	</g>
	<g>
		<circle fill="#FFAA00" cx="32" cy="44" r="7"/>
	</g>
	<g>
		<circle fill="#FFAA00" cx="68" cy="44" r="7"/>
	</g>
	<path fill="#FFAA00" d="M36.761,72.695c-0.803,0-1.526-0.497-1.843-1.266c-0.312-0.757-0.143-1.588,0.442-2.169
		c1.205-1.197,2.597-2.284,4.135-3.229c3.108-1.921,6.836-2.998,10.495-3.031c3.681,0.039,7.408,1.118,10.513,3.038
		c1.523,0.938,2.906,2.016,4.107,3.203c0.586,0.58,0.757,1.41,0.446,2.167c-0.317,0.771-1.041,1.268-1.845,1.268
		c-0.315,0-0.624-0.076-0.917-0.227c-1.397-0.719-2.726-1.313-4.06-1.814c-2.702-1.048-5.475-1.597-8.25-1.636
		c-2.749,0.043-5.521,0.595-8.211,1.638c-1.334,0.503-2.709,1.118-4.096,1.831C37.385,72.619,37.077,72.695,36.761,72.695z"/>
</g>
<g id="neutral">
	<g>
		<g>
			<path fill="#FFDC00" d="M95,50c0,24.853-20.147,45-45,45S5,74.853,5,50S25.147,5,50,5S95,25.147,95,50z M91,50
				C91,27.393,72.607,9,50,9S9,27.393,9,50s18.393,41,41,41S91,72.607,91,50z"/>
		</g>
	</g>
	<g>
		<circle fill="#FFDC00" cx="32" cy="44" r="7"/>
	</g>
	<g>
		<circle fill="#FFDC00" cx="68" cy="44" r="7"/>
	</g>
	<path fill="#FFDC00" d="M49.999,73.999c-2.42-0.002-4.817-0.149-7.123-0.439c-1.387-0.185-2.529-0.377-3.602-0.607
		c-0.922-0.198-1.566-1.001-1.566-1.952s0.644-1.754,1.565-1.952c1.074-0.23,2.216-0.423,3.595-0.606
		c2.314-0.291,4.711-0.438,7.131-0.44c2.464,0,4.829,0.146,7.126,0.435c1.384,0.183,2.535,0.377,3.626,0.612
		c0.921,0.199,1.564,1.002,1.564,1.952s-0.644,1.753-1.563,1.952c-1.092,0.235-2.243,0.43-3.621,0.611
		c-2.303,0.289-4.668,0.436-7.034,0.436H49.999z"/>
</g>
<g id="good">
	<g>
		<g>
			<path fill="#AFFF00" d="M95,50c0,24.853-20.147,45-45,45S5,74.853,5,50S25.147,5,50,5S95,25.147,95,50z M91,50
				C91,27.393,72.607,9,50,9S9,27.393,9,50s18.393,41,41,41S91,72.607,91,50z"/>
		</g>
	</g>
	<g>
		<circle fill="#AFFF00" cx="32" cy="44" r="7"/>
	</g>
	<g>
		<circle fill="#AFFF00" cx="68" cy="44" r="7"/>
	</g>
	<path fill="#AFFF00" d="M49.99,76.999c-3.66-0.038-7.387-1.117-10.494-3.038c-1.526-0.938-2.909-2.017-4.107-3.202
		c-0.586-0.58-0.757-1.411-0.446-2.168c0.316-0.771,1.041-1.268,1.844-1.268c0.315,0,0.624,0.076,0.917,0.227
		c1.403,0.722,2.73,1.314,4.059,1.813c2.705,1.05,5.478,1.599,8.251,1.638c2.75-0.044,5.522-0.596,8.211-1.638
		c1.333-0.503,2.709-1.118,4.097-1.832c0.293-0.15,0.602-0.227,0.917-0.227c0.802,0,1.525,0.496,1.842,1.265
		c0.313,0.757,0.144,1.588-0.441,2.169c-1.207,1.198-2.599,2.284-4.136,3.229c-3.108,1.922-6.837,2.999-10.495,3.032H50H49.99z"/>
</g>
<g id="awesome">
	<g>
		<g>
			<path fill="#50FF00" d="M95,50c0,24.853-20.147,45-45,45S5,74.853,5,50S25.147,5,50,5S95,25.147,95,50z M91,50
				C91,27.393,72.607,9,50,9S9,27.393,9,50s18.393,41,41,41S91,72.607,91,50z"/>
		</g>
	</g>
	<g>
		<circle fill="#50FF00" cx="32" cy="44" r="7"/>
	</g>
	<g>
		<circle fill="#50FF00" cx="68" cy="44" r="7"/>
	</g>
	<path fill="#50FF00" d="M35.931,64c-2.436,0-3.858,2.745-2.452,4.735C36.103,72.451,41.127,77,50,77s13.897-4.549,16.521-8.265
		C67.926,66.745,66.505,64,64.069,64H35.931z"/>
</g>
</svg>
