<?xml version="1.0" encoding="utf-8"?>
<!-- Generator: Adobe Illustrator 23.0.3, SVG Export Plug-In . SVG Version: 6.00 Build 0)  -->
<svg version="1.1" id="img" xmlns="http://www.w3.org/2000/svg" xmlns:xlink="http://www.w3.org/1999/xlink" x="0px" y="0px"
	 viewBox="0 0 100 100" enable-background="new 0 0 100 100" xml:space="preserve">
<g>
	<path fill="#060504" d="M50.54,20.878c-0.577,0.039-1.149,0.107-1.708,0.238c-0.419,0.099-0.831,0.234-1.232,0.419
		c-0.384,0.343-0.884,0.457-1.336,0.659c-1.491,0.665-1.603,1.176-0.486,2.318c0.076,0.078,0.147,0.16,0.216,0.244
		c0.07,0.084,0.138,0.169,0.208,0.251l0,0l0,0c0.07,0.085,0.144,0.164,0.22,0.239c0.35,0.345,0.757,0.581,1.199,0.775
		c0.09,0.039,0.181,0.077,0.273,0.113c0.184,0.073,0.374,0.141,0.566,0.209c0.674,0.237,1.389,0.471,2.079,0.89
		c-0.711,0.06-1.179,0.121-1.647,0.135c-1.415,0.043-2.741,0.405-4.004,1.038c-0.271,0.136-0.545,0.346-0.891,0.249
		c-0.369-0.057-0.736-0.14-1.107-0.166c-0.631-0.044-0.948-0.343-1.021-0.985c-0.07-0.62-0.316-1.222-0.143-1.86
		c0.099-0.979-0.358-1.542-1.295-1.77c-0.24-0.059-0.466-0.18-0.698-0.273c-0.847-0.29-1.514-0.045-2.097,0.622
		c-0.411,0.469-0.9,0.87-1.354,1.301c-1.847,2.114-1.847,2.115-4.431,1.314c-0.118-0.037-0.235-0.08-0.351-0.125
		s-0.231-0.092-0.348-0.136c-0.852,0.082-1.704,0.163-2.555,0.245c-0.11,0.067-0.226,0.109-0.345,0.137
		c-0.198,0.046-0.404,0.053-0.609,0.067c-0.898,0.585-1.795,1.171-2.693,1.756c-0.309,1.406-1.14,2.248-2.571,2.58
		c-0.589,0.137-0.884,0.783-1.302,1.211c-0.981,1.007-1.693,2.256-2.857,3.108c-0.272,0.199-0.116,0.705,0.03,0.962
		c0.447,0.789,0.353,1.402,0.006,1.94c-0.208,0.323-0.507,0.619-0.833,0.909c-0.38,0.417-0.672,0.879-0.922,1.364
		c-0.55,1.067-0.895,2.241-1.516,3.27c-0.223,0.979-0.445,1.958-0.668,2.937c-0.194,1.266,0.083,2.533-0.01,3.8
		c0.02,1.298,0.599,2.477,0.802,3.736c0.434,1.307,1.285,2.375,2.053,3.48c0.499,0.717,0.335,0.951-0.456,0.989
		c-0.219,0.011-0.438,0.039-0.657,0.059c-1.237,0.42-2.475,0.84-3.712,1.26c-1.337,0.457-2.561,1.117-3.64,2.036
		c-0.111,0.211-0.286,0.343-0.509,0.417c-1.101,0.944-2.141,1.948-3.013,3.115c-0.175,0.381-0.431,0.701-0.735,0.987
		c-0.797,1.203-1.721,2.305-2.687,3.374c-0.216,0.402-0.483,0.76-0.882,1c-0.822,1.171-0.664,1.733,0.685,2.26
		c1.458,0.57,2.887,1.218,4.398,1.646c1.049,0.084,2.077,0.284,3.095,0.546c0.253-0.052,0.378,0.058,0.389,0.31
		c0.466,0.735,0.638,1.605,1.306,2.267c0.933,0.924,1.981,1.518,3.253,1.755c2.675,0.673,5.373-0.066,8.056,0.132
		c0.182,0.013,0.363,0.051,0.545,0.078c1.519,0.072,2.824-0.862,4.317-0.913c0.951-0.223,1.896-0.477,2.855-0.663
		c1.091-0.212,2.132-0.552,3.139-1.013c0.821-0.526,1.683-0.976,2.571-1.355c0.384-0.164,0.775-0.313,1.168-0.451
		c0.288-0.102,0.578-0.199,0.87-0.287c0.23-0.07,0.462-0.135,0.694-0.197c0.823-0.219,1.836,0.126,2.728,0.354
		c1.183,0.303,2.331,0.742,3.494,1.122c0.094,0.009,0.197-0.003,0.281,0.03c3.461,1.347,6.967,0.603,10.374-0.06
		c2.189-0.426,4.307-1.428,6.201-2.737c0.561-0.388,1.143-0.746,1.716-1.118c0.208-0.201,0.416-0.403,0.624-0.604
		c0.144-0.139,0.288-0.278,0.431-0.417c0.036-0.283,0.164-0.496,0.331-0.678c0.042-0.046,0.086-0.089,0.132-0.132
		c0.138-0.127,0.291-0.243,0.436-0.365c0.417-0.684,0.956-1.283,1.435-1.924c0.287-0.385,0.553-0.784,0.757-1.227
		c0.118-0.256,0.322-0.397,0.609-0.271c0.885,0.387,1.854,0.555,2.695,1.052c1.677,0.741,3.532,0.588,5.265,1.049
		c0.573,0.152,1.186,0.133,1.733,0.399c0.203,0.039,0.406,0.078,0.609,0.117c0.119,0.024,0.237,0.047,0.356,0.071l0,0
		c0.302,0.06,0.604,0.117,0.906,0.177c0.906,0.179,1.809,0.371,2.688,0.665c0.449,0.252,0.916,0.335,1.39,0.354
		c0.158,0.006,0.316,0.005,0.475,0.001c0.477-0.013,0.957-0.055,1.429-0.023c0.157,0.011,0.314,0.03,0.469,0.061
		c0.158-0.019,0.316-0.033,0.475-0.045c0.317-0.024,0.633-0.036,0.95-0.041c0.317-0.005,0.634-0.004,0.951-0.001
		c0.476,0.005,0.952,0.014,1.427,0.009c1.264-0.114,2.529-0.228,3.793-0.342v0c1.257-0.169,2.514-0.337,3.77-0.506
		c0.429-0.132,0.869-0.174,1.317-0.153c1.219-0.511,1.41-0.962,0.918-2.164c-0.2-0.488-0.394-0.979-0.591-1.468l0,0h0
		c-0.536-1.214-1.072-2.429-1.609-3.643c-0.258-0.357-0.515-0.714-0.773-1.071c-0.774-0.787-1.483-1.629-2.108-2.54
		c-0.233-0.253-0.502-0.481-0.694-0.762c-1.206-1.768-2.865-3.013-4.688-4.062c-0.517-0.298-1.016-0.561-1.296-1.142
		c-0.12-0.249-0.418-0.563-0.652-0.579c-1.221-0.081-0.895-0.895-0.824-1.597c0.089-0.88,0.186-1.758,0.279-2.638
		c0.093-1.27,0.253-2.546-0.307-3.763c-0.34-1.552-1.327-2.661-2.497-3.644c-0.098-0.029-0.182-0.073-0.253-0.133
		c-0.07-0.06-0.126-0.137-0.167-0.232c-0.183-0.16-0.372-0.311-0.565-0.454c-0.58-0.428-1.203-0.786-1.836-1.126
		c-0.845-0.453-1.709-0.874-2.518-1.386c-1-0.136-2.001-0.273-3.001-0.409c-1.291-0.056-2.57-0.342-3.874-0.151
		c-0.471,0.069-0.748-0.162-0.734-0.691c0.008-0.281-0.095-0.565-0.095-0.848c0.002-1.779-0.667-3.316-1.672-4.736
		c-0.58-0.742-0.981-1.661-1.972-1.998c-0.236-0.019-0.449-0.089-0.609-0.275c-0.324-0.119-0.648-0.238-0.972-0.357
		c-0.029,0.002-0.055,0.001-0.079-0.003c-0.166-0.023-0.209-0.164-0.234-0.323c-0.049-0.025-0.072-0.06-0.068-0.104
		c0.001-0.015,0.005-0.031,0.012-0.048c-0.051-0.126-0.101-0.252-0.152-0.378c-0.706-0.903-0.702-0.894,0.37-1.377
		c0.484-0.218,0.949-0.476,1.423-0.717c0.373-0.669,0.746-1.339,1.119-2.008c0.019-1.293-0.726-2.194-1.564-3.047
		c-0.512-0.096-1.023-0.192-1.535-0.288c-0.312,0.028-0.623,0.057-0.935,0.085l0,0c-0.661,0.539-1.322,1.079-1.983,1.617
		c-0.661,0.539-1.324,1.076-1.989,1.609c-0.256,0.205-0.455,0.557-0.877,0.456c-1.224,0.034-2.439-0.084-3.651-0.239
		c-0.442,0.218-0.703-0.069-0.982-0.339c-0.794-0.766-1.595-1.525-2.393-2.286c-0.287-0.047-0.574-0.095-0.861-0.143
		C50.829,20.861,50.684,20.869,50.54,20.878z M47.281,29.252c1.081-0.216,2.198-0.258,3.301-0.363
		c0.561-0.053,0.778,0.615,1.32,0.649c2.159,0.133,3.898,1.333,5.749,2.261c1.363,0.683,2.782,1.21,4.353,1.079
		c0.311-0.026,0.767,0.124,0.642,0.337c-0.467,0.794,0.332,0.896,0.57,1.31c0.315,0.545,0.463,1.191,0.808,1.71
		c0.397,0.596,1.143,0.76,1.742,1.104c0.153,0.088,0.388,0.131,0.339,0.379c-0.038,0.19-0.238,0.175-0.385,0.215
		c-0.607,0.168-1.215,0.335-1.822,0.503c-0.406,0.206-0.806,0.329-1.22,0.367c-0.414,0.038-0.842-0.009-1.303-0.14
		c-1.75-0.5-3.481-1.166-5.354-1.083c-1.966-0.136-3.906,0.2-5.857,0.327c-0.482,0.031-0.724-0.132-0.695-0.631
		c0.005-0.095-0.03-0.199-0.002-0.283c0.839-2.541-0.87-4.058-2.281-5.695c-0.144-0.167-0.284-0.336-0.422-0.508
		C45.885,29.692,45.906,29.526,47.281,29.252z M45.05,31.317c0.803,0.985,1.58,1.991,2.371,2.986
		c0.441,0.554,0.623,2.456,0.292,3.042c-0.19,0.337-0.492,0.186-0.761,0.186c-0.747,0-1.471-0.258-2.248-0.003
		c-0.143,0.047-0.271,0.111-0.39,0.184c-0.357,0.221-0.633,0.528-0.998,0.724c-0.151,0.316-0.426,0.339-0.694,0.309
		c-0.038-0.004-0.076-0.01-0.114-0.015c-0.174-0.027-0.348-0.056-0.522-0.086c-0.521-0.092-1.04-0.198-1.561-0.296l0,0
		c-0.234,0.012-0.459,0.002-0.675-0.025c-0.014-0.002-0.028-0.005-0.042-0.007c-0.093-0.013-0.186-0.028-0.276-0.047
		c-0.195-0.042-0.383-0.099-0.566-0.167c-0.012-0.005-0.025-0.008-0.038-0.013c-0.008-0.003-0.016-0.007-0.024-0.01
		c-0.128-0.049-0.252-0.106-0.375-0.165c-0.43-0.209-0.834-0.472-1.228-0.755c-0.429-0.307-0.847-0.635-1.279-0.932
		c-0.148-0.102-0.306-0.257-0.455-0.392c-0.471-0.423-0.648-0.795-0.038-1.379c1.555-1.489,3.568-1.459,5.464-1.824
		c0.678-0.13,1.381-0.128,2.279-0.204c-0.986-0.541-1.939-0.455-2.769-0.791C41.604,29.702,43.623,29.565,45.05,31.317z
		 M34.78,29.575c0.588-0.651,1.073-1.389,1.895-1.784c0.198-0.459,0.518-0.806,0.867-1.126c0.35-0.32,0.729-0.612,1.048-0.96
		c0.074-0.156,0.16-0.262,0.262-0.327c0.17-0.109,0.384-0.103,0.665-0.02c0.476,0.14,0.41,0.457,0.444,0.796
		c0.056,0.563,0.147,1.123,0.223,1.685c0.017,0.026,0.046,0.051,0.049,0.079c0.092,1.093-1.111,2.563-2.154,2.637
		c-1.316,0.946-2.655,1.861-3.936,2.852c-0.511,0.396-0.811,0.143-1.133-0.158c-0.44-0.411,0.073-0.654,0.261-0.827
		C34.113,31.643,34.029,30.406,34.78,29.575z M26.442,29.804c0.826-0.536,1.542-1.313,2.653-1.238
		c1.299-0.618,2.507-0.113,3.719,0.309c0.143,0.05,0.331,0.116,0.271,0.313c-0.224,0.726-0.928,1.133-1.222,1.837
		c-0.148,0.355-0.62,0.156-0.943,0.143c-0.213-0.008-0.429-0.006-0.642-0.023c-0.355-0.028-0.698-0.108-0.994-0.375
		c-0.722-0.201-1.466-0.143-2.2-0.192c-0.105-0.007-0.21-0.016-0.314-0.028c-0.202-0.024-0.477,0.084-0.573-0.185
		C26.114,30.134,26.253,29.927,26.442,29.804z M20.822,35.483c0.116-0.167,0.291-0.368,0.525-0.63
		c0.884-0.99,1.583-2.156,3.05-2.511c0.863-0.209,1.676-0.085,2.514-0.077c1.573-0.057,2.994,0.275,4.047,1.567
		c0.098,0.12,0.228,0.234,0.367,0.296c2.009,0.884,2.657,2.718,3.272,4.598c0.155,0.473,0.069,0.734-0.393,0.625
		c-1.946-0.462-3.915,0.322-5.861-0.166c-1.744-0.438-3.504-0.814-5.26-1.202c-0.088-0.019-0.174-0.042-0.257-0.067
		c-0.585-0.176-1.063-0.499-1.413-1.027c-0.497-0.464-0.748-0.711-0.757-0.972C20.65,35.785,20.706,35.651,20.822,35.483z
		 M15.933,48.303c0.084-1.505,0.375-3.007,1.084-4.381c0.517-2.039,1.777-3.593,3.254-5.011c0.279-0.268,0.533-0.345,0.812-0.059
		c0.593,0.609,1.405,0.702,2.157,0.902c1.585,0.421,3.19,0.764,4.777,1.176c0.9,0.234,1.797,0.391,2.714,0.177
		c1.43-0.333,2.871,0.102,4.316-0.131c1.647-0.265,1.688-0.209,1.732-1.978c1.412,1.059,3.075,1.073,4.731,1.466
		c-0.617,0.655-0.951,1.4-1.332,2.12c-0.181,0.342-0.369,0.716-0.819,0.865c-2.247,0.747-3.542,2.609-4.859,4.367
		c-1.997,2.666-3.491,5.627-4.594,8.776c-0.125,0.357-0.304,0.722-0.313,1.086c-0.024,0.934-0.62,0.954-1.288,0.898
		c-0.346-0.029-0.692-0.053-1.038-0.074c-0.692-0.041-1.385-0.067-2.077-0.084c-0.346-0.008-0.693-0.014-1.039-0.018
		c-0.666-0.008-1.331-0.008-1.997-0.008c-0.056,0-0.112,0-0.167,0c-0.664,0.001-1.329,0.003-1.993,0.003
		c-0.05,0.02-0.097,0.035-0.142,0.045c-0.045,0.009-0.087,0.014-0.127,0.013c-0.08-0.001-0.152-0.021-0.219-0.056
		c-0.134-0.069-0.249-0.197-0.375-0.348C16.784,55.218,15.73,51.947,15.933,48.303z M9.433,72.912
		c-0.081,0.572-0.317,0.682-0.885,0.598c-1.847-0.272-3.644-0.68-5.484-1.588c0.196-0.223,0.388-0.442,0.577-0.658
		C4.209,70.618,4.75,70,5.292,69.382c0.25-0.355,0.499-0.71,0.752-1.063c0.165-0.23,0.332-0.459,0.501-0.686
		c0.315-0.423,0.639-0.837,0.98-1.236c0.11-0.128,0.222-0.255,0.335-0.38c0.406-0.447,0.837-0.872,1.305-1.262
		c0.359-0.299,0.74-0.579,1.148-0.833c0.284-0.391,0.668-0.678,1.076-0.906c1.446-0.807,6.134-2.116,8.035-2.193
		c-1.214,0.662-2.352,1.413-3.392,2.277c-1.04,0.864-1.981,1.842-2.803,2.96c0,0,0,0,0,0c-0.194,0.268-0.378,0.545-0.567,0.817
		c-0.19,0.272-0.385,0.539-0.601,0.788C10.736,69.194,9.721,70.873,9.433,72.912z M35.829,73.88
		c-3.353,2.015-7.043,2.997-10.836,3.764c-2.817,0.57-5.676,0.375-8.498,0.722c-0.105,0.013-0.208,0.018-0.31,0.016
		c-0.307-0.007-0.602-0.082-0.884-0.229c-0.777-0.162-1.606-0.182-2.291-0.586c-0.114-0.067-0.224-0.145-0.33-0.236
		c-0.105-0.091-0.206-0.195-0.3-0.315c-0.808-1.022-1.28-2.067-1.014-3.466c0.584-3.07,2.733-5.129,4.566-7.388
		c0.349-0.43,0.719-0.826,1.11-1.19c0.26-0.243,0.53-0.471,0.807-0.685c0.278-0.214,0.564-0.415,0.858-0.601
		c1.325-0.841,2.814-1.408,4.433-1.743c0,0,0,0,0,0c1.15-0.624,2.449-0.574,3.686-0.806c0.177-0.033,0.352-0.072,0.526-0.12
		c0.393-0.107,0.809-0.128,1.203-0.233c0.695-0.184,1.162-0.046,1.013,0.778c-0.5,2.77,0.975,4.873,2.394,6.951
		c1.15,1.685,2.261,3.434,3.962,4.663C36.344,73.477,36.264,73.618,35.829,73.88z M64.261,68.189
		c-1.215,1.541-2.246,3.268-4.103,4.24c-2.297,1.203-4.555,2.452-7.212,2.674c-1.038,0.087-2.076,0.175-3.103,0.391
		c-1.812,0.381-3.491-0.324-5.186-0.771c-1.618-0.427-3.229-0.905-4.8-1.479c-2.088-0.764-3.503-2.366-4.752-4.129
		c-1.327-1.494-2.438-3.147-3.231-4.971c-0.512-1.178-0.152-2.497-0.202-3.749c-0.146-3.666,1.553-6.69,3.504-9.608
		c0.744-1.711,2.02-3.038,3.227-4.407c0.554-0.628,1.413-0.808,2.139-1.176c0.586-0.297,1.092-0.664,1.317-1.291
		c1.074-2.99,3.644-3.582,6.334-3.904c0.444-0.053,0.892-0.078,1.342-0.089c0.749-0.018,1.502,0,2.252-0.019
		c0.377-0.047,0.753-0.088,1.129-0.122c1.128-0.101,2.253-0.138,3.368-0.073c1.487,0.087,2.957,0.357,4.397,0.898
		c1.658,0.623,3.147,1.538,4.341,2.938c1.929,2.262,3.026,4.84,3.377,7.771c0.033,0.28,0.039,0.55,0.013,0.813
		c-0.011,0.115-0.031,0.228-0.054,0.34c-0.02,0.095-0.044,0.188-0.072,0.281c-0.066,0.217-0.154,0.429-0.27,0.638
		c0.129,0.543,0.515,1.026,0.675,1.562c0.032,0.107,0.055,0.217,0.065,0.329c0.01,0.112,0.007,0.228-0.012,0.347
		c-0.019,0.119-0.056,0.243-0.113,0.371l0,0h0c0.014,0.236,0.061,0.478,0.062,0.712c0,0.078-0.004,0.155-0.017,0.231
		C67.996,60.999,66.854,64.899,64.261,68.189z M86.736,55.635c0.536,0.353,1.077,0.699,1.633,1.017
		c1.456,0.833,2.613,1.958,3.63,3.273c0.889,1.149,1.925,2.19,2.758,3.375c0.988,1.405,1.572,3.039,2.262,4.607
		c0.18,0.409-0.143,0.399-0.384,0.426c-0.692,0.077-1.385,0.14-2.077,0.209c-0.062,0.095-0.133,0.125-0.214,0.094
		c-0.027-0.01-0.055-0.027-0.083-0.051c-0.316,0.023-0.632,0.047-0.949,0.07c-0.563,0.378-1.221,0.261-1.837,0.333
		c-2.075,0.244-4.166,0.094-6.244,0.203c-1.884,0.099-3.58-0.637-5.368-0.946c-2.393-0.413-4.756-1.001-7.148-1.419
		c-1.362-0.238-2.569-0.866-3.861-1.272c-0.241-0.076-0.452-0.174-0.282-0.453c0.342-0.56,0.583-1.152,0.774-1.76
		c0.419-1.337,0.596-2.751,1.08-4.067l0.003-0.004c0.002-0.002,0.003-0.004,0.003-0.004c0,0,0,0,0,0c0,0,0,0,0,0c0,0,0,0,0,0
		c0.251-0.989,0.468-2.021,0.495-3.022c0.009-0.334-0.003-0.664-0.042-0.988c-0.181-1.509,0.696-1.28,1.544-1.512
		c2.384-0.654,4.82-0.551,7.235-0.535c0.948,0.006,1.879,0.149,2.79,0.39c0.911,0.24,1.803,0.578,2.672,0.972
		C85.668,54.921,86.2,55.282,86.736,55.635z M72.18,38.934c4.467-0.13,8.429,1.186,11.412,4.611
		c1.236,1.418,1.512,3.291,1.039,5.189c-0.113,0.452-0.227,0.913-0.253,1.374c-0.031,0.549-0.06,1.182-0.62,1.332
		c-0.691,0.186-1.478,0.31-2.106-0.301c-0.317-0.308-0.726,0.279-1.039-0.101c-1.062-0.054-2.162-0.111-3.178-0.132
		c-1.013-0.021-2.217,0.094-3.311,0.332c-0.773,0.168-1.575,0.244-2.321,0.491c-0.837,0.277-1.114-0.043-1.279-0.804
		c-0.248-1.143-0.627-2.259-0.862-3.405c-0.249-1.212-0.772-2.256-1.534-3.219c-0.134-0.17-0.265-0.343-0.389-0.52
		c-0.093-0.133-0.181-0.27-0.266-0.409c-0.255-0.415-0.47-0.853-0.618-1.327c-0.132-0.039-0.318-0.047-0.429-0.097
		c-0.037-0.017-0.066-0.038-0.082-0.066c-0.433-0.777-1.216-1.158-2.035-1.729c1.104-0.391,2.027-0.783,3.043-0.864
		C68.962,39.164,70.569,38.981,72.18,38.934z M64.767,31.438c0.72-1.358,1.484-1.378,2.35-0.011c0.585,0.924,1.331,1.764,1.658,2.92
		c-0.315,0.661-0.333,1.382-0.215,2.146c0.057,0.37-0.328,0.258-0.553,0.142c-0.767-0.394-1.551-0.764-2.289-1.207
		c-0.945-0.568-1.545-2.878-1.04-3.823C64.707,31.549,64.737,31.493,64.767,31.438z M61.541,24.1
		c0.582-0.481,1.17-0.955,1.751-1.438c0.241-0.2,0.5-0.343,0.802-0.359c0.717,0.019,1.604,0.099,1.679,0.821
		c0.064,0.615-0.414,1.332-1.252,1.545c-0.58,0.147-1.152,0.422-1.467,0.966c-0.389,0.673-0.796,0.598-1.373,0.239
		C60.371,25.057,60.356,25.078,61.541,24.1z M55.427,26.572c0.283-0.018,0.568-0.014,0.852-0.017
		c0.284-0.003,0.568-0.002,0.852-0.003c1.549-0.3,2.919,0.092,4.196,0.995c0.374,0.265,0.861,0.391,1.313,0.522
		c0.868,0.252,1.159,0.975,1.022,1.675c-0.138,0.707-0.408,1.49-1.522,1.442c-1.729-0.075-3.264-0.639-4.732-1.479
		c-0.947-0.542-2.036-0.872-2.63-1.923C54.334,27.003,54.504,26.63,55.427,26.572z M51.866,23.272
		c0.313,0.392,0.69,0.734,0.989,1.135c0.194,0.259,0.724,0.388,0.533,0.794c-0.181,0.384-0.542,0.687-0.84,1.01
		c-0.135,0.146-0.283,0.066-0.408-0.052c-0.961-0.916-2.259-1.072-3.428-1.52c-0.089-0.034-0.176-0.07-0.266-0.1
		c-0.438-0.147-0.934-0.413-0.966-0.819c-0.035-0.452,0.593-0.438,0.934-0.608c0.505-0.252,1.012-0.533,1.747-0.542
		C50.766,22.454,51.382,22.667,51.866,23.272z"/>
	<path fill="#F9F2F0" d="M33.756,57.097c0.009,0.831,0.263,1.608,0.502,2.389c0.05,0.164,0.1,0.328,0.146,0.493
		c0.038,0.136,0.074,0.272,0.107,0.408c0.142,0.598,0.337,1.204,0.965,1.544c0.584,0.316,0.557,1.092,1.179,1.483
		c2.366,1.485,2.652,1.131,4.264-0.135c-0.619-2.003-0.329-3.941,0.411-5.85c0.001-0.002,0.001-0.004,0.002-0.006
		c-0.027-0.103-0.055-0.208-0.082-0.311c-0.001,0-0.001-0.001-0.002-0.001c0.001,0,0.001-0.001,0.002-0.001c0-0.001,0-0.001,0-0.002
		c0.259-0.19,0.406-0.442,0.517-0.713c0.072-0.177,0.13-0.361,0.192-0.543c0.033-0.097,0.068-0.193,0.108-0.286
		c0.257-0.598,0.711-0.927,1.277-1.159c0.058-0.024,0.148-0.08,0.172-0.06c1.319,1.088,0.9-0.94,1.652-0.939
		c0.16,0,0.168-0.39-0.017-0.566c-0.218-0.208-0.444-0.222-0.628,0.066c-0.156,0.244-0.366,0.566-0.646,0.255
		c-0.253-0.281,0.091-0.471,0.294-0.673c0.764-0.76,0.878-0.732,1.578,0.219c0.169,0.229,0.306,0.819,0.842,0.354
		c0.193-0.167,0.447-0.503,0.707-0.234c0.224,0.231,0.441,0.606,0.306,0.953c-0.342,0.88,0.085,1.75-0.012,2.626
		c-0.024,0.219,0.075,0.458-0.182,0.54c-0.262,0.083-0.52-0.044-0.621-0.3c-0.102-0.26-0.081-0.571-0.197-0.821
		c-0.089-0.192-0.069-0.612-0.43-0.493c-0.334,0.11-0.337,0.53-0.195,0.735c0.363,0.52,0.426,1.177,0.858,1.663
		c0.878,0.987,0.851,1.15-0.141,1.863c-0.642,0.462-1.277,0.925-0.562,1.818c0.126,0.157,0.094,0.361-0.044,0.525
		c-0.17,0.202-0.376,0.191-0.603,0.11c-0.618-0.222-1.032-0.717-1.508-1.127c-0.158-0.136-0.269-0.416-0.519-0.146
		c-0.216,0.234-0.033,0.404,0.138,0.553c0.268,0.235,0.502,0.507,0.553,0.859c0.041,0.28,0.246,0.731-0.195,0.788
		c-0.27,0.035-0.916,0.175-0.782-0.572c0.039-0.215-0.109-0.415-0.409-0.541c-0.167,0.327-0.238,0.808-0.764,0.773
		c-0.004,0.13-0.002,0.259,0.008,0.388c0.027,0.384,0.113,0.759,0.244,1.126c0.122,0.067,0.162,0.173,0.191,0.286
		c0.017,0.068,0.03,0.138,0.053,0.204c0.219,0.621,0.519,0.772,0.96,0.16c0.264-0.366,0.548-0.705,1.097-0.505
		c0.127,0.046,0.363,0.014,0.447-0.076c0.687-0.742,1.481-0.577,2.262-0.26c0.539,0.219,0.873-0.231,1.178-0.411
		c0.647-0.381,1.128-0.488,1.663,0.091c0.079,0.085,0.216,0.14,0.335,0.159c0.19,0.031,0.406,0.014,0.473-0.205
		c0.07-0.228,0.034-0.484-0.259-0.505c-0.643-0.046-0.921-0.453-0.65-0.945c0.217-0.394,0.9-0.411,1.187-0.119
		c0.579,0.587,1.052,0.259,1.514-0.026c0.309-0.191,0.601-0.305,0.954-0.356c0.277-0.04,0.9,0.164,0.479-0.576
		c-0.13-0.229,0.305-0.188,0.49-0.262c0.674-0.272,1.478-0.39,1.559-1.359c0.029-0.344,0.346-0.355,0.587-0.337
		c0.922,0.069,1.161-0.376,0.985-1.204c-0.027-0.126,0.092-0.283,0.144-0.425c-0.257-0.476-0.502-0.96-0.779-1.423
		c-0.139-0.231-0.286-0.458-0.447-0.675c-0.161-0.217-0.336-0.425-0.53-0.621c-0.003-0.001-0.006-0.003-0.009-0.004
		c-0.267-0.085-0.466-0.256-0.633-0.453c-0.169-0.2-0.306-0.426-0.449-0.616c-1.114-1.469-2.387-2.741-3.912-3.774
		c-0.355-0.24-0.646-0.572-0.561-1.126c1.435,1.096,2.722,2.265,4.163,3.251c1.268,0.867,2.373,1.949,2.953,3.442
		c0.156,0.21,0.346,0.379,0.562,0.514c0.072,0.045,0.147,0.087,0.225,0.125c0.61-0.117,1.152-0.369,1.603-0.725
		c0.993-0.785,1.545-2.075,1.406-3.541c-0.08-0.84-0.17-1.571-0.641-2.252c-0.137-0.018-0.299-0.003-0.301-0.211
		c0-0.022,0.032-0.06,0.054-0.064c0.205-0.033,0.217,0.129,0.258,0.261l0,0l0,0c0.156-0.012,0.313-0.023,0.469-0.035
		c0.156-0.012,0.312-0.024,0.468-0.04c1.488-0.151,1.825-0.87,1.165-2.223c-0.125-0.257-0.326-0.472-0.523-0.688
		c-0.328-0.36-0.644-0.724-0.583-1.297c0,0-0.023-0.012-0.023-0.012c-0.05-0.047-0.101-0.094-0.151-0.141
		c-0.019-0.018-0.038-0.035-0.056-0.053c-0.077-0.109-0.155-0.218-0.232-0.327l0,0c-0.182-0.095-0.334-0.198-0.383-0.325
		c-0.01-0.027-0.017-0.055-0.017-0.085c0-0.017,0.002-0.034,0.005-0.052c0.007-0.035,0.022-0.072,0.046-0.112
		c0.035-0.059,0.09-0.122,0.168-0.191c-0.126-0.709-0.848-0.985-1.144-1.569c-0.405-0.094-0.741-0.31-1.064-0.548
		c-0.108-0.079-0.214-0.161-0.321-0.242c-1.082-0.815-2.332-1.221-3.636-1.489c-0.37-0.076-0.741-0.115-1.112,0.056
		c-0.776,0.359-1.465,0.051-2.139-0.319h0c-0.749,0.018-1.502,0-2.252,0.019c-0.449,0.011-0.897,0.035-1.342,0.089
		c-2.69,0.323-5.26,0.914-6.334,3.904c-0.225,0.627-0.731,0.995-1.317,1.291c-0.727,0.368-1.586,0.548-2.139,1.176
		c-1.207,1.369-2.483,2.696-3.227,4.407c-0.064,1.478-0.754,2.784-1.146,4.172C33.832,55.659,33.653,56.359,33.756,57.097z
		 M48.718,47.661c0.25-0.978,0.49-1.958,0.734-2.937c0.539,0.923,0.856,1.81,0.292,2.729c-0.069,0.112-0.093,0.246,0.018,0.342
		c0.3,0.259,0.418,0.577,0.179,0.905c-0.137,0.187-0.431,0.18-0.597,0.016C49.048,48.425,48.574,48.224,48.718,47.661z
		 M42.511,47.646c0.216-0.129,0.433-0.277,0.669-0.346c0.37-0.108,0.766-0.007,0.871-0.628c0.097-0.578-0.073-0.89-0.484-1.197
		c-0.185-0.138-0.427-0.267-0.396-0.622c0.682,0.084,0.935,0.883,1.514,0.902c0.66,0.022,1.078,0.231,1.329,0.825
		c0.19,0.451,1.096,0.698-0.215,1.262c-1.123,0.484-2.091,0.339-3.135,0.424c-0.157,0.013-0.328,0.01-0.399-0.174
		C42.174,47.854,42.35,47.742,42.511,47.646z"/>
	<path fill="#546E0C" d="M92.508,67.688c-0.253-0.088-0.558-0.127-0.598-0.485c-0.287,0.07-0.711-0.085-0.723,0.437
		c0.001,0,0.001,0,0.001,0c0.001,0.001,0.002,0.002,0.003,0.003c0.083,0.015,0.166,0.03,0.248,0.045
		c-0.121,0.185-0.176,0.026-0.248-0.045c-0.001,0-0.003-0.001-0.004-0.001c0-0.001,0-0.002,0-0.002
		c-0.118,0.002-0.215-0.021-0.285-0.076c-0.07-0.055-0.114-0.143-0.124-0.269c0,0-0.002-0.001-0.002-0.001
		c-0.192-0.007-0.389-0.031-0.361-0.289c0.026-0.242,0.217-0.284,0.406-0.221c0.369,0.123,0.73,0.272,1.094,0.411l0,0
		c0.243-0.454,0.41-0.767,0.472-0.982c0.137-0.473-0.231-0.472-1.41-0.463c-1.11,0.009-2.192-0.205-3.287-0.395
		c0.007-0.097,0.005-0.192,0.023-0.283c0.145-0.718-0.258-1.567-0.897-1.836c-0.488-0.205-0.3-0.857-0.815-1.082
		c-0.061,0.308-0.862,0.588,0.146,0.894c-0.631,0.233-1.275-0.042-1.705,0.475c-0.409-0.435-1.208-0.138-1.49-0.695
		c-0.387-0.765-0.886-0.907-1.647-0.512c0.38-0.463,0.347-1.231,1.158-1.247c0.081-0.002,0.209-0.167,0.226-0.271
		c0.034-0.215-0.166-0.206-0.312-0.256c-0.368-0.125-0.743-0.127-1.282-0.026c0.46-0.56,0.325-1.364,1.266-1.389
		c0.336-0.009,0.263-0.626,0.608-0.883c0.597-0.444-0.276-0.407-0.305-0.747c0.626,0.101,0.801-0.554,1.276-0.746
		c0.127-0.051,0.217-0.23,0.123-0.306c-1.058-0.855,0.115-0.882,0.452-1.177c0.241-0.21,0.494-0.389,0.612-0.699
		c-0.869-0.394-1.761-0.731-2.672-0.972c-0.911-0.24-1.842-0.384-2.79-0.39c-2.415-0.015-4.851-0.119-7.235,0.535
		c-0.847,0.232-1.725,0.004-1.544,1.512c0.039,0.324,0.051,0.654,0.042,0.988c-0.027,1.001-0.244,2.033-0.495,3.022c0,0,0,0,0,0
		c1.398,0.153,2.707,0.625,4.022,1.074c0.239,0.082,0.478,0.163,0.718,0.241c0.36,0.117,0.722,0.228,1.088,0.326
		c0.285,0.076,0.505,0.237,0.677,0.471c0.335,0.015,0.692-0.019,0.929,0.451c-0.416-0.041-0.797,0.073-0.972-0.399l0,0l0,0
		c-1.334-0.184-2.558-0.73-3.814-1.168c-0.179-0.063-0.36-0.123-0.541-0.18c-0.715-0.224-1.527-0.239-2.114-0.81
		c-0.484,1.316-0.661,2.73-1.08,4.067c-0.191,0.608-0.431,1.2-0.774,1.76c-0.17,0.279,0.04,0.377,0.282,0.453
		c1.292,0.406,2.499,1.034,3.861,1.272c2.392,0.418,4.755,1.006,7.148,1.419c1.788,0.309,3.483,1.045,5.368,0.946
		c2.078-0.109,4.169,0.041,6.244-0.203c0.616-0.072,1.274,0.045,1.837-0.333C93.3,68.121,92.974,67.852,92.508,67.688z"/>
	<path fill="#704A51" d="M18.503,44.275c0.756-0.364,1.303-1.083,2.256-1.184c0.188-0.02,0.771-0.984,0.803-1.588
		c0.039-0.753,0.457-0.639,0.771-0.41c0.489,0.357,1.276,0.627,1.569,0.599c1.038-0.099,1.792,0.476,2.676,0.702
		c0.645,0.165,1.205,0.516,1.987,0.289c0.759-0.22,1.497,1.15,1.154,2.083c-0.111,0.301-0.176,0.508,0.049,0.764
		c0.864,0.982,0.35,2.364-1.001,3.167c-0.13,0.077-0.269,0.101-0.264,0.318c0.02,0.953-0.956,2.145-1.539,1.743
		c-0.796-0.548-1.309,0.083-1.91-0.095c-0.237-0.07-0.295-0.434-0.674-0.372c-0.06,0.415,0.281,0.815,0.075,1.349
		c-0.229-0.549-0.858-0.433-1.153-0.906c-0.1-0.161-0.492,0.003-0.485,0.351c0.006,0.292-0.043,0.565-0.163,0.828
		c-0.118,0.259-0.32,0.383-0.602,0.373c-0.279-0.01-0.54-0.156-0.606-0.388c-0.133-0.463,0.127-1.197-0.836-0.944
		c-0.094,0.025,0.011-0.266,0.035-0.411c0.058-0.337,0.513-0.496,0.391-0.996c-0.534,0.159-1.057,0.315-1.697,0.506
		c0.072-0.263,0.205-0.486,0.303-0.702c0.098-0.216,0.16-0.426,0.095-0.666c-0.533,0.122-0.647-0.29-0.759-0.64
		c-0.153-0.477-0.243-0.975-0.375-1.459c-0.14-0.514-0.884-0.737-1.282-0.395c-0.127,0.109-0.197,0.177-0.059,0.37
		c0.679,0.946,0.622,0.998-0.036,1.844c-0.352,0.452-0.181,0.959,0.312,1.301c0.325,0.226,0.686,0.227,1.182,0.034
		c-0.271,0.629-0.237,1.176-0.544,1.63c-0.116,0.172-0.126,0.373,0.004,0.53c0.161,0.193,0.313,0.083,0.48-0.048
		c0.391-0.307,0.346,0.058,0.42,0.279c0.237,0.702,0.025,1.444,0.19,2.142c0.322,1.362,0.269,2.788,0.719,4.125
		c0.664,0.001,1.329-0.001,1.993-0.003c0.056,0,0.112,0,0.167,0c0.666-0.001,1.332,0,1.997,0.008
		c0.346,0.004,0.693,0.01,1.039,0.018c0.693,0.016,1.385,0.042,2.077,0.084c0.346,0.021,0.692,0.045,1.038,0.074
		c0.669,0.056,1.264,0.035,1.288-0.898c0.009-0.365,0.188-0.73,0.313-1.086c1.104-3.149,2.597-6.11,4.594-8.776
		c1.317-1.758,2.612-3.619,4.859-4.367c0.45-0.15,0.638-0.523,0.819-0.865c0.381-0.721,0.715-1.465,1.332-2.12
		c-1.656-0.394-3.32-0.407-4.731-1.466c-0.044,1.77-0.085,1.713-1.732,1.978c-1.445,0.233-2.886-0.202-4.316,0.131
		c-0.917,0.214-1.813,0.057-2.714-0.177c-1.587-0.412-3.192-0.755-4.777-1.176c-0.752-0.2-1.564-0.293-2.157-0.902
		c-0.279-0.286-0.533-0.209-0.812,0.059c-1.477,1.418-2.737,2.972-3.254,5.011C17.434,44.823,17.421,44.796,18.503,44.275z"/>
	<path fill="#546E0C" d="M35.925,73.175c-1.702-1.229-2.812-2.978-3.962-4.663c-1.419-2.078-2.894-4.181-2.394-6.951
		c0.149-0.824-0.318-0.962-1.013-0.778c-0.394,0.104-0.81,0.125-1.203,0.233c-0.174,0.047-0.349,0.086-0.526,0.12
		c-1.237,0.232-2.536,0.182-3.686,0.806c0,0,0,0,0,0c0,0,0,0,0,0c0.178,0.286,0.134,0.565,0.065,0.843
		c-0.01,0.04-0.02,0.079-0.03,0.119c-0.008,0.032-0.016,0.064-0.024,0.095c-0.039,0.158-0.071,0.316-0.059,0.476
		c0.586,0.251,0.516,0.213,0.246,0.68c-0.201,0.347-0.196,0.814-0.28,1.229c0.001,0,0.003,0,0.004,0l0,0
		c0.001,0.002,0.002,0.004,0.003,0.006c0.419-0.053,0.826-0.053,1.154,0.275c0.004,0.001,0.009,0.001,0.013,0.002
		c0.001,0.002,0.002,0.004,0.002,0.006c0,0,0,0,0,0c0,0,0,0,0,0c0.097-0.001,0.19,0.011,0.278,0.034
		c0.045,0.012,0.089,0.026,0.133,0.043c0.087,0.034,0.17,0.077,0.251,0.125c0.122,0.073,0.24,0.157,0.357,0.242
		c-0.298,0.138-0.555,0.164-0.748,0.016c-0.115-0.088-0.207-0.237-0.271-0.46c-0.002,0-0.004,0-0.006,0l0,0
		c-0.003-0.003-0.006-0.005-0.009-0.008c-0.143-0.03-0.303,0.011-0.461,0.044c-0.054,0.011-0.108,0.021-0.161,0.027
		c-0.211,0.023-0.404-0.024-0.531-0.346c-0.003,0-0.005,0.001-0.008,0.001c0-0.002,0.001-0.004,0.001-0.006
		c-0.15,0.013-0.299,0.025-0.452,0.038c-0.154,0.013-0.31,0.026-0.472,0.04c0.053,0.419,0.425,0.596,0.696,0.814
		c0.214,0.173,0.475,0.44,0.385,0.586c-0.156,0.254-0.173,0.451-0.118,0.619c0.018,0.056,0.045,0.108,0.077,0.158
		c0.016,0.025,0.034,0.05,0.052,0.074c0.075,0.096,0.167,0.185,0.258,0.275c0.068,0.068,0.136,0.136,0.195,0.208
		c0.04-0.004,0.079-0.005,0.116-0.003c0.075,0.004,0.143,0.024,0.2,0.071c0.027,0.023,0.052,0.053,0.074,0.09
		c0.002,0,0.004,0,0.006,0l0,0c0.001,0.001,0.002,0.002,0.003,0.003c0.077-0.008,0.152-0.009,0.219,0.012
		c0.068,0.021,0.129,0.063,0.175,0.142c0.03,0.026,0.06,0.052,0.089,0.077c-0.019-0.002-0.044,0.003-0.056-0.007
		c-0.018-0.016-0.026-0.043-0.038-0.065l0,0c-0.12,0.012-0.231,0.004-0.316-0.068c-0.027-0.023-0.052-0.053-0.073-0.091
		c-0.002,0-0.004,0-0.005,0c-0.001-0.002-0.002-0.002-0.003-0.004l0,0l0,0c-0.116,0.009-0.224-0.001-0.311-0.067
		c-0.029-0.022-0.056-0.051-0.08-0.088c-0.185,0.032-0.369,0.063-0.554,0.095c0.464,0.112,0.154,0.667,0.456,0.826
		c0.211,0.111,0.46,0.195,0.385,0.446c-0.3,0.997,0.323,1.017,1.017,1.043c0.579,0.022,0.845,0.574,1.226,0.892
		c0.25,0.209,0,0.588-0.361,0.706c-1.555,0.509-2.743,1.539-4.036,2.497c-0.877,0.649-2.054,1.438-3.371,1.359
		c-0.231-0.014-0.322,0.037-0.466,0.163c-0.827,0.73-1.732,1.354-2.674,1.927c0.282,0.147,0.577,0.223,0.884,0.229
		c0.102,0.002,0.206-0.003,0.31-0.016c2.823-0.347,5.682-0.151,8.498-0.722c3.792-0.767,7.483-1.749,10.836-3.764
		C36.264,73.618,36.344,73.477,35.925,73.175z"/>
	<path fill="#AA4645" d="M35.73,69.231c0.05,0.017,0.099,0.036,0.148,0.056c0.537,0.217,1.031,0.566,1.627,0.603
		c0.482-0.247,0.976-0.314,1.474-0.312c0.041,0,0.082,0.001,0.123,0.002c0.112,0.003,0.225,0.008,0.337,0.016
		c0.383,0.026,0.766,0.071,1.148,0.089c0.148,0.007,0.295,0.009,0.442,0.004c1.48-0.048,2.972,0.159,4.446,0.058
		c4.154-0.285,7.982-1.557,11.61-3.664c2.168-1.26,3.646-3.058,5.116-4.947c0.806-1.035,1.533-2.155,2.811-2.7
		c0.06-0.02,0.153-0.023,0.174-0.064c0.721-1.38,1.827-2.513,2.504-3.921c0.164-0.341-0.076-0.8,0.327-1.062
		c0.116-0.209,0.204-0.421,0.27-0.638c0.028-0.093,0.053-0.187,0.072-0.281c0.023-0.112,0.043-0.225,0.054-0.34
		c0.026-0.263,0.02-0.533-0.013-0.813c-0.351-2.932-1.447-5.509-3.377-7.771c-1.194-1.4-2.683-2.315-4.341-2.938
		c-1.44-0.541-2.91-0.811-4.397-0.898c-1.115-0.065-2.24-0.029-3.368,0.073c-0.376,0.034-0.753,0.075-1.129,0.122
		c0.674,0.37,1.363,0.677,2.139,0.319c0.371-0.172,0.742-0.132,1.112-0.056c1.304,0.268,2.554,0.674,3.636,1.489
		c0.107,0.081,0.213,0.162,0.321,0.242c0.323,0.238,0.659,0.454,1.064,0.548c0,0,0,0,0,0c0.572,0.155,1.013,0.452,1.39,0.817
		c0.124,0.12,0.241,0.248,0.354,0.381c0.049,0.058,0.097,0.116,0.144,0.176c0.045,0.056,0.089,0.113,0.132,0.17
		c0.081,0.107,0.161,0.215,0.241,0.325c0.194,0.268,0.385,0.539,0.588,0.796c0.457,0.578,0.926,1.133,1.423,1.675
		c0.548,0.597,0.892,1.484,0.837,2.396c-0.017,0.29-0.222,0.435-0.503,0.469c0.163,2.397-0.307,4.571-1.281,6.562
		c-0.585,1.195-1.351,2.324-2.271,3.396c-0.179,0.208-0.357,0.416-0.536,0.624c-0.133,0.155-0.268,0.309-0.402,0.462
		c-0.186,0.212-0.374,0.421-0.565,0.628c-0.97,1.051-2.018,2.02-3.309,2.722c0.099,0.573-0.135,0.868-0.463,1.074
		c-0.11,0.069-0.23,0.128-0.352,0.184c-0.163,0.075-0.329,0.144-0.477,0.225c-0.766,0.417-1.526,0.805-1.831,1.703
		c0.027,0.012,0.054,0.025,0.08,0.037c-0.028-0.012-0.055-0.023-0.083-0.035c-0.613-0.106-1.169,0.163-1.746,0.281
		c-0.129,0.026-0.409-0.03-0.251,0.39c0.133,0.354-1.075,0.812-1.524,0.539c-0.75-0.456-1.233-0.09-1.702,0.507
		c-0.173-0.163-0.014-1.094-0.586-0.36c-0.558,0.716-1.397-0.037-1.994,0.686c0.031-0.608,0.638-0.788,0.434-1.266
		c-2.1,0.072-4.15-0.194-6.172-0.638c-0.552-0.121-1.101-0.256-1.649-0.401c-0.365-0.096-0.73-0.197-1.094-0.302
		c-0.356-0.102-0.61-0.331-0.793-0.634c-0.695-1.147-1.362-2.309-1.909-3.538c-0.02-0.046-0.036-0.088-0.047-0.128
		c-0.077-0.277,0.073-0.407,0.367-0.476c-0.249-0.922-0.469-1.854-0.736-2.77c-0.089-0.305-0.184-0.609-0.286-0.909
		c-0.174-0.51-0.105-0.811,0.269-1.115c-0.103-0.738,0.076-1.439,0.274-2.138c0.392-1.388,1.082-2.694,1.146-4.172
		c-1.952,2.918-3.651,5.942-3.504,9.608c0.05,1.253-0.309,2.572,0.202,3.749c0.792,1.824,1.903,3.476,3.231,4.971
		c0.11,0.001,0.217,0.013,0.32,0.033C35.529,69.168,35.63,69.197,35.73,69.231z"/>
	<path fill="#704A51" d="M68.695,56.708c-0.001-0.234-0.049-0.476-0.062-0.712h0c-0.098,0.026-0.197,0.066-0.297,0.118
		c-0.697,0.361-1.389,1.289-1.354,1.995c0.014,0.28,0.026,0.424-0.2,0.624c-0.945,0.836-1.726,1.804-2.447,2.85
		c-0.117,0.169-0.255,0.385-0.428,0.568c-0.289,0.304-0.675,0.516-1.227,0.264c-0.333,0.572-0.668,1.142-1.001,1.713
		c-0.333,0.571-0.665,1.143-0.99,1.719c-0.272,0.481-0.609,0.867-1.099,1.141c-1.544,0.863-3.035,1.834-4.626,2.596
		c-1.598,0.765-3.449,0.771-5.101,1.374c-3.286,1.199-6.412,0.126-9.581-0.474c-0.93-0.176-1.852-0.394-2.777-0.593c0,0,0,0,0,0
		c-0.595-0.037-1.09-0.386-1.627-0.603c-0.049-0.02-0.098-0.038-0.148-0.056c-0.099-0.034-0.2-0.063-0.304-0.083
		c-0.104-0.02-0.21-0.032-0.32-0.033c1.248,1.764,2.664,3.365,4.752,4.129c1.571,0.575,3.182,1.053,4.8,1.479
		c1.695,0.447,3.373,1.152,5.186,0.771c1.027-0.216,2.064-0.304,3.103-0.391c2.657-0.222,4.915-1.471,7.212-2.674
		c1.857-0.973,2.889-2.699,4.103-4.24c2.594-3.291,3.735-7.191,4.417-11.25C68.69,56.863,68.695,56.786,68.695,56.708z"/>
	<path fill="#7F9739" d="M17.974,76.225c0.143-0.127,0.234-0.177,0.466-0.163c1.317,0.078,2.495-0.71,3.371-1.359
		c1.293-0.958,2.481-1.988,4.036-2.497c0.361-0.118,0.611-0.497,0.361-0.706c-0.381-0.318-0.647-0.871-1.226-0.892
		c-0.693-0.026-1.317-0.046-1.017-1.043c0.076-0.251-0.173-0.335-0.385-0.446c-0.302-0.159,0.009-0.714-0.456-0.826
		c0.185-0.032,0.369-0.063,0.554-0.095l0.001-0.002c-0.059-0.072-0.126-0.14-0.195-0.208c-0.091-0.09-0.184-0.179-0.258-0.275
		c-0.019-0.024-0.036-0.049-0.052-0.074c-0.032-0.05-0.059-0.103-0.077-0.158c-0.055-0.167-0.038-0.364,0.118-0.619
		c0.089-0.146-0.171-0.413-0.385-0.586c-0.271-0.218-0.643-0.395-0.696-0.814c0.162-0.014,0.318-0.027,0.472-0.04
		c0.152-0.013,0.302-0.026,0.452-0.038c0.085-0.415,0.079-0.882,0.28-1.229c0.271-0.466,0.34-0.429-0.246-0.68c0,0,0,0,0,0
		c-0.012-0.16,0.019-0.318,0.059-0.476c0.008-0.032,0.016-0.064,0.024-0.095c0.01-0.04,0.02-0.079,0.03-0.119
		c0.069-0.278,0.112-0.557-0.065-0.843c0,0,0,0,0,0c-1.619,0.335-3.108,0.903-4.433,1.743c-0.294,0.187-0.581,0.387-0.858,0.601
		c-0.278,0.214-0.547,0.442-0.807,0.685c-0.39,0.364-0.761,0.76-1.11,1.19c-1.833,2.259-3.982,4.318-4.566,7.388
		c-0.266,1.398,0.206,2.443,1.014,3.466c0.095,0.12,0.195,0.224,0.3,0.315c0.105,0.091,0.215,0.169,0.33,0.236
		c0.685,0.404,1.513,0.424,2.291,0.586C16.242,77.58,17.147,76.955,17.974,76.225z M23.093,63.479c-0.003,0-0.006,0.001-0.009,0.001
		c-0.09,0.502-0.728,0.796-0.427,1.482c-0.36-0.202-0.706-0.328-0.594-0.663c0.153-0.457,0.454-0.832,1.021-0.82
		c0-0.002,0.001-0.004,0.002-0.007C23.086,63.472,23.093,63.479,23.093,63.479z"/>
	<polygon fill="#7F9739" points="23.057,65.39 23.062,65.383 23.062,65.383 23.062,65.383 23.058,65.384 23.058,65.384 	"/>
	<path fill="#8E6A72" d="M19.504,58.4c0.067,0.035,0.139,0.055,0.219,0.056c0.04,0.001,0.082-0.004,0.127-0.013
		c0.045-0.009,0.092-0.024,0.142-0.045c-0.45-1.338-0.397-2.763-0.719-4.125c-0.165-0.697,0.047-1.44-0.19-2.142
		c-0.075-0.22-0.029-0.586-0.42-0.279c-0.166,0.131-0.319,0.241-0.48,0.048c-0.13-0.156-0.12-0.357-0.004-0.53
		c0.307-0.454,0.273-1.001,0.544-1.63c-0.496,0.193-0.857,0.192-1.182-0.034c-0.493-0.342-0.664-0.849-0.312-1.301
		c0.658-0.846,0.714-0.898,0.036-1.844c-0.139-0.193-0.068-0.261,0.059-0.37c0.397-0.342,1.142-0.119,1.282,0.395
		c0.132,0.485,0.222,0.982,0.375,1.459c0.112,0.35,0.227,0.762,0.759,0.64l0,0c0.065,0.239,0.002,0.45-0.095,0.666
		c-0.098,0.217-0.23,0.439-0.303,0.702c0.64-0.191,1.163-0.347,1.697-0.506c0.122,0.5-0.333,0.659-0.391,0.996
		c-0.025,0.145-0.129,0.436-0.035,0.411c0.963-0.253,0.703,0.481,0.836,0.944c0.066,0.232,0.327,0.379,0.606,0.388
		c0.283,0.01,0.484-0.114,0.602-0.373c0.12-0.264,0.169-0.536,0.163-0.828c-0.007-0.347,0.384-0.511,0.485-0.351
		c0.295,0.473,0.924,0.358,1.153,0.906c0.206-0.533-0.135-0.934-0.075-1.349c0.379-0.062,0.438,0.302,0.674,0.372
		c0.601,0.178,1.114-0.453,1.91,0.095c0.583,0.402,1.559-0.79,1.539-1.743c-0.005-0.217,0.134-0.241,0.264-0.318
		c1.351-0.804,1.865-2.185,1.001-3.167c-0.225-0.256-0.16-0.463-0.049-0.764c0.343-0.933-0.395-2.303-1.154-2.083
		c-0.782,0.227-1.342-0.124-1.987-0.289c-0.884-0.226-1.638-0.8-2.676-0.702c-0.293,0.028-1.08-0.243-1.569-0.599
		c-0.314-0.229-0.732-0.343-0.771,0.41c-0.032,0.604-0.615,1.568-0.803,1.588c-0.953,0.101-1.501,0.82-2.256,1.184
		c-1.081,0.521-1.068,0.548-1.486-0.353c-0.708,1.374-1,2.876-1.084,4.381c-0.203,3.644,0.851,6.915,3.197,9.749
		C19.255,58.204,19.37,58.331,19.504,58.4z M19.777,48.599c-0.012,0.028-0.025,0.057-0.037,0.085c0,0-0.002-0.002-0.002-0.002
		C19.751,48.654,19.764,48.626,19.777,48.599z"/>
	<path fill="#EB98A3" d="M81.399,46.318c-0.295-0.564-0.662-1.059-1.087-1.499c-0.213-0.22-0.44-0.426-0.68-0.62
		c-0.013-0.01-0.027-0.02-0.04-0.03c-0.229-0.182-0.468-0.354-0.719-0.515c-0.255,0.495-0.368,1.018-0.414,1.546
		c-0.046,0.528-0.024,1.063-0.008,1.581c0.029,0.99-0.385,1.574-1.229,2.094c0.738-2.021,0.75-4.059,0.285-6.108
		c-0.355-0.329-0.734-0.571-1.132-0.746c-0.18-0.079-0.365-0.143-0.553-0.197c-0.723-0.206-1.497-0.232-2.294-0.176
		c0.011,0.696-0.052,1.386-0.067,2.083c-0.009,0.418-0.001,0.838,0.052,1.264c0.089,0.726-0.302,1.519-0.52,2.27
		c-0.04,0.138-0.279,0.299-0.433,0.307c-0.312,0.016-0.291-0.284-0.29-0.488c0.002-0.625,0.129-1.265,0.03-1.87
		c-0.18-1.089,0.154-2.138,0.118-3.208c-0.348-0.062-0.707,0.031-0.976-0.384c-0.244-0.375-0.751-0.333-1.176-0.32
		c-0.559,0.018-1.118,0.053-1.677,0.08c-0.138,0.437-0.26,0.852-0.87,0.462c-0.302-0.193-0.544,0.242-0.86,0.204c0,0,0,0,0,0
		c0.148,0.474,0.364,0.913,0.618,1.327c0.085,0.139,0.173,0.275,0.266,0.409c0.124,0.177,0.254,0.351,0.389,0.52
		c0.762,0.963,1.285,2.007,1.534,3.219c0.235,1.146,0.614,2.261,0.862,3.405c0.165,0.761,0.442,1.081,1.279,0.804
		c0.746-0.247,1.548-0.323,2.321-0.491c1.094-0.238,2.298-0.353,3.311-0.332c1.016,0.021,2.116,0.078,3.178,0.132
		c0.138-0.381,0.265-0.765,0.376-1.15C81.323,48.731,81.512,47.55,81.399,46.318z"/>
	<path fill="#7F9739" d="M84.517,55.271c-0.337,0.295-1.509,0.321-0.452,1.177c0.094,0.076,0.004,0.254-0.123,0.306
		c-0.476,0.191-0.65,0.847-1.276,0.746c0.028,0.341,0.902,0.303,0.305,0.747c-0.345,0.257-0.272,0.873-0.608,0.883
		c-0.941,0.025-0.806,0.829-1.266,1.389c0.539-0.101,0.913-0.099,1.282,0.026c0.146,0.049,0.346,0.041,0.312,0.256
		c-0.016,0.104-0.145,0.27-0.226,0.271c-0.811,0.016-0.778,0.784-1.158,1.247c0.762-0.395,1.26-0.253,1.647,0.512
		c0.282,0.557,1.081,0.26,1.49,0.695c0.43-0.517,1.074-0.242,1.705-0.475c-1.008-0.306-0.207-0.586-0.146-0.894
		c0.515,0.225,0.327,0.876,0.815,1.082c0.639,0.269,1.042,1.118,0.897,1.836c-0.018,0.091-0.016,0.186-0.023,0.283
		c1.096,0.19,2.177,0.403,3.287,0.395c1.179-0.009,1.547-0.01,1.41,0.463c-0.062,0.215-0.229,0.528-0.472,0.982l0,0h0
		c0,0-0.005,0.008-0.005,0.008c0.04,0.357,0.346,0.396,0.598,0.485c0.466,0.163,0.792,0.432,0.806,0.968
		c0.316-0.023,0.632-0.047,0.949-0.07c0.099-0.015,0.197-0.029,0.297-0.044c0.693-0.068,1.386-0.132,2.077-0.208
		c0.241-0.027,0.564-0.017,0.384-0.426c-0.69-1.568-1.274-3.202-2.262-4.607c-0.834-1.185-1.87-2.226-2.758-3.375
		c-1.017-1.315-2.174-2.439-3.63-3.273c-0.556-0.318-1.097-0.664-1.633-1.017c-0.536-0.353-1.068-0.714-1.607-1.063
		C85.011,54.882,84.757,55.061,84.517,55.271z M84.167,55.903c-0.018-0.05-0.034-0.075-0.034-0.1c0-0.008,0.04-0.017,0.061-0.025
		C84.187,55.812,84.179,55.847,84.167,55.903z M87.894,61.39c-0.415,0.42-1.087-0.061-1.433,0.478
		C86.649,60.811,87.177,60.855,87.894,61.39z"/>
	<path fill="#704A51" d="M47.186,31.296c1.411,1.638,3.12,3.155,2.281,5.695c-0.028,0.085,0.007,0.189,0.002,0.283
		c-0.028,0.499,0.213,0.663,0.695,0.631c1.951-0.127,3.891-0.463,5.857-0.327c-0.084-0.513,0.165-1.204,0.337-1.381
		c0.625-0.642,1.445-1.411,2.252-1.486c1.223-0.115,2.251,0.866,3.133,1.642c0.656,0.577,1.231,1.23,2.016,1.656
		c0.096,0.052,0.096,0.28,0.14,0.426c0.607-0.168,1.215-0.335,1.822-0.503c0.147-0.041,0.347-0.025,0.385-0.215
		c0.049-0.248-0.186-0.291-0.339-0.379c-0.599-0.344-1.345-0.507-1.742-1.104c-0.346-0.519-0.494-1.166-0.808-1.71
		c-0.239-0.413-1.037-0.515-0.57-1.31c0.125-0.213-0.332-0.363-0.642-0.337c-1.571,0.131-2.991-0.397-4.353-1.079
		c-1.851-0.928-3.59-2.128-5.749-2.261c-0.541-0.033-0.758-0.702-1.32-0.649c-1.102,0.104-2.219,0.147-3.301,0.363
		c-1.375,0.275-1.396,0.44-0.516,1.537C46.902,30.96,47.043,31.129,47.186,31.296z"/>
	<path fill="#BA9362" d="M43.17,32.426c-0.898,0.076-1.601,0.074-2.279,0.204c-1.895,0.365-3.909,0.335-5.464,1.824
		c-0.61,0.584-0.433,0.956,0.038,1.379c0.149,0.134,0.308,0.29,0.455,0.392c0.432,0.297,0.85,0.625,1.279,0.932
		c0.395,0.283,0.799,0.547,1.228,0.755c0.123,0.06,0.247,0.116,0.375,0.165c0.008,0.003,0.016,0.007,0.024,0.01
		c0.012,0.005,0.025,0.008,0.038,0.013c0.183,0.068,0.371,0.125,0.566,0.167c0.09,0.019,0.183,0.034,0.276,0.047
		c0.014,0.002,0.028,0.005,0.042,0.007c0.216,0.027,0.441,0.037,0.675,0.025c0.269-0.491,0.586-0.761,0.991-0.829
		c0.315-0.052,0.682,0.018,1.12,0.203c0.259,0.109,0.408,0.416,0.735,0.384c0.026-0.029,0.051-0.058,0.077-0.087
		c-0.003,0.019,0.001,0.044-0.01,0.054c-0.017,0.017-0.044,0.023-0.067,0.034c0.015,0.11,0.029,0.219,0.044,0.329
		c0.365-0.196,0.641-0.503,0.998-0.724c0.119-0.074,0.247-0.137,0.39-0.184c0.777-0.254,1.501,0.003,2.248,0.003
		c0.268,0,0.571,0.151,0.761-0.186c0.331-0.587,0.149-2.488-0.292-3.042c-0.791-0.995-1.568-2.001-2.371-2.986
		c-1.427-1.751-3.446-1.615-4.649,0.318C41.231,31.971,42.184,31.886,43.17,32.426z"/>
	<path fill="#AA4645" d="M64.31,40.154c0.819,0.571,1.602,0.952,2.035,1.729c0.016,0.029,0.045,0.05,0.082,0.066
		c0.112,0.05,0.298,0.059,0.429,0.097c0.316,0.037,0.558-0.397,0.86-0.204c0.61,0.39,0.732-0.025,0.87-0.462
		c-0.216-0.029-0.433-0.058-0.732-0.098c2.135-1.254,4.443-0.33,6.592-0.763c2.273-0.458,4.057,0.598,5.698,1.942
		c1.076,0.881,1.692,2.145,2.087,3.437c0.328,1.072,0.382,2.236,0.036,3.381c-0.135-1.037-0.281-2.068-0.869-2.962c0,0,0,0,0,0
		c0.114,1.232-0.076,2.414-0.409,3.571c-0.111,0.386-0.239,0.769-0.376,1.15c0.313,0.379,0.722-0.208,1.039,0.101
		c0.628,0.61,1.415,0.486,2.106,0.301c0.56-0.15,0.588-0.783,0.62-1.332c0.026-0.462,0.14-0.923,0.253-1.374
		c0.473-1.898,0.197-3.77-1.039-5.189c-2.984-3.425-6.945-4.741-11.412-4.611c-1.611,0.047-3.218,0.23-4.827,0.357
		C66.336,39.371,65.414,39.764,64.31,40.154z"/>
	<path fill="#BA9362" d="M26.524,32.726c-0.614,0.55-0.558,0.785,0.208,1.107c0.169,0.071,0.371,0.177,0.452,0.325
		c0.498,0.908,1.166,1.673,1.9,2.391c0.06,0.058,0.061,0.288,0.004,0.336c-0.413,0.347-0.781,0.991-1.146,1.073
		c-0.697,0.156-1.476,0.277-2.258-0.05c-0.628-0.262-1.375-0.244-2.07-0.341c-0.113-0.016-0.231,0.013-0.347,0.021
		c-0.105-1.593-1.269-0.379-1.854-0.7c0.35,0.528,0.828,0.851,1.413,1.027c0.084,0.025,0.169,0.047,0.257,0.067
		c1.756,0.388,3.516,0.764,5.26,1.202c1.946,0.488,3.915-0.296,5.861,0.166c0.463,0.11,0.548-0.151,0.393-0.625
		c-0.616-1.88-1.263-3.715-3.272-4.598c-0.139-0.061-0.269-0.176-0.367-0.296c-1.053-1.292-2.474-1.624-4.047-1.567
		C26.95,32.563,26.68,32.587,26.524,32.726z"/>
	<path fill="#EB98A3" d="M21.412,36.888c0.585,0.321,1.749-0.893,1.854,0.7c0.116-0.008,0.235-0.036,0.347-0.021
		c0.695,0.097,1.442,0.078,2.07,0.341c0.782,0.327,1.562,0.205,2.258,0.05c0.365-0.082,0.733-0.725,1.146-1.073
		c0.057-0.048,0.056-0.278-0.004-0.336c-0.734-0.718-1.402-1.483-1.9-2.391c-0.081-0.148-0.283-0.254-0.452-0.325
		c-0.766-0.322-0.822-0.557-0.208-1.107c0.156-0.139,0.426-0.163,0.386-0.462c-0.837-0.008-1.651-0.132-2.514,0.077
		c-1.466,0.356-2.165,1.521-3.05,2.511c-0.234,0.263-0.41,0.463-0.525,0.63c-0.116,0.167-0.171,0.302-0.167,0.433
		C20.664,36.177,20.915,36.423,21.412,36.888z"/>
	<path fill="#7F9739" d="M12.061,67.664c0.216-0.249,0.411-0.516,0.601-0.788c0.19-0.272,0.374-0.548,0.567-0.817c0,0,0,0,0,0l0,0
		c-0.01-0.008-0.02-0.016-0.03-0.023c-0.017-0.014-0.035-0.027-0.052-0.041c-0.707,0.085-1.309,0.34-1.776,0.812
		c-0.156,0.158-0.296,0.339-0.421,0.547c-0.016,0.026-0.031,0.079-0.043,0.078c-1.067-0.085-1.522,0.957-2.363,1.278
		C7.6,69.07,6.67,69.496,5.631,69.508c-0.113,0.001-0.226-0.082-0.339-0.126C4.75,70,4.209,70.618,3.641,71.265
		C3.452,71.481,3.26,71.7,3.064,71.923c1.84,0.908,3.637,1.315,5.484,1.588c0.568,0.084,0.804-0.026,0.885-0.598
		C9.721,70.873,10.736,69.194,12.061,67.664z"/>
	<path fill="#BA9362" d="M57.407,29.708c1.468,0.84,3.003,1.404,4.732,1.479c1.114,0.048,1.383-0.735,1.522-1.442
		c0.137-0.701-0.153-1.423-1.022-1.675c-0.452-0.131-0.938-0.257-1.313-0.522c-1.277-0.903-2.647-1.295-4.196-0.995
		c-0.284,0.001-0.568,0-0.852,0.003c-0.284,0.003-0.569-0.001-0.852,0.017c-0.923,0.058-1.092,0.43-0.65,1.214
		C55.371,28.837,56.46,29.166,57.407,29.708z"/>
	<path fill="#7F9739" d="M12.667,65.697c0.228,0.006,0.446-0.005,0.479,0.298c0.017,0.014,0.035,0.027,0.052,0.041
		c0.01,0.008,0.02,0.016,0.03,0.023l0,0c0.821-1.117,1.763-2.095,2.803-2.96c1.04-0.864,2.178-1.615,3.392-2.277
		c-1.9,0.077-6.588,1.385-8.035,2.193c-0.409,0.228-0.793,0.515-1.076,0.906C10.755,65.067,11.545,65.667,12.667,65.697z"/>
	<path fill="#8E6A72" d="M63.76,38.01c-0.785-0.425-1.36-1.079-2.016-1.656c-0.882-0.776-1.91-1.757-3.133-1.642
		c-0.807,0.076-1.627,0.844-2.252,1.486c-0.172,0.177-0.421,0.868-0.337,1.381c1.873-0.083,3.604,0.582,5.354,1.083
		c0.461,0.132,0.889,0.178,1.303,0.14c0.414-0.038,0.815-0.161,1.22-0.367C63.856,38.29,63.855,38.062,63.76,38.01z"/>
	<path fill="#BA9362" d="M65.717,35.428c0.738,0.444,1.522,0.813,2.289,1.207c0.225,0.116,0.611,0.228,0.553-0.142
		c-0.118-0.764-0.099-1.484,0.215-2.146c-0.327-1.156-1.073-1.996-1.658-2.92c-0.866-1.367-1.63-1.347-2.35,0.011
		c-0.03,0.056-0.06,0.111-0.09,0.166C64.172,32.55,64.772,34.86,65.717,35.428z"/>
	<path fill="#BA9362" d="M5.631,69.508C6.67,69.496,7.6,69.07,8.544,68.71c0.84-0.321,1.296-1.363,2.363-1.278
		c0.012,0.001,0.027-0.051,0.043-0.078c0.125-0.208,0.265-0.389,0.421-0.547c0.467-0.473,1.069-0.727,1.776-0.812c0,0,0,0,0,0
		c-0.033-0.303-0.251-0.292-0.479-0.298c-1.122-0.03-1.912-0.63-2.355-1.775c-0.408,0.255-0.789,0.534-1.148,0.833
		c-0.468,0.39-0.899,0.814-1.305,1.262c-0.113,0.125-0.225,0.251-0.335,0.38c-0.341,0.399-0.665,0.814-0.98,1.236
		c-0.169,0.227-0.336,0.455-0.501,0.686c-0.253,0.353-0.502,0.708-0.752,1.063c0,0,0,0,0,0C5.405,69.426,5.518,69.509,5.631,69.508z
		"/>
	<path fill="#BA9362" d="M33.01,33.247c0.323,0.301,0.622,0.554,1.133,0.158c1.281-0.991,2.62-1.906,3.936-2.852
		c-0.386-0.963-0.153-2.24-1.404-2.763c-0.821,0.396-1.307,1.133-1.895,1.784c-0.751,0.832-0.667,2.069-1.51,2.845
		C33.082,32.592,32.57,32.836,33.01,33.247z"/>
	<path fill="#8E6A72" d="M67.69,54.449c-0.677,1.408-1.783,2.542-2.504,3.921c-0.021,0.041-0.115,0.044-0.174,0.064
		c0.014,0.254-0.003,0.484-0.222,0.675c-1.025,0.894-1.555,2.108-2.111,3.305c0.552,0.252,0.939,0.041,1.227-0.264
		c0.173-0.183,0.311-0.399,0.428-0.568c0.721-1.046,1.502-2.014,2.447-2.85c0.226-0.2,0.214-0.344,0.2-0.624
		c-0.035-0.707,0.658-1.634,1.354-1.995c0.1-0.052,0.199-0.092,0.297-0.118c0.057-0.128,0.093-0.251,0.113-0.371
		c0.019-0.119,0.022-0.235,0.012-0.347c-0.01-0.112-0.033-0.222-0.065-0.329c-0.16-0.536-0.546-1.019-0.675-1.562c0,0,0,0,0,0
		C67.615,53.649,67.854,54.108,67.69,54.449z"/>
	<path fill="#BA9362" d="M50.16,22.569c-0.735,0.009-1.242,0.289-1.747,0.542c-0.341,0.17-0.968,0.156-0.934,0.608
		c0.031,0.406,0.528,0.672,0.966,0.819c0.09,0.03,0.178,0.066,0.266,0.1c1.169,0.448,2.467,0.603,3.428,1.52
		c0.125,0.119,0.273,0.199,0.408,0.052c0.298-0.323,0.659-0.626,0.84-1.01c0.191-0.406-0.339-0.535-0.533-0.794
		c-0.3-0.401-0.676-0.743-0.989-1.135C51.382,22.667,50.766,22.454,50.16,22.569z"/>
	<path fill="#BA9362" d="M61.681,25.875c0.576,0.36,0.984,0.434,1.373-0.239c0.314-0.543,0.887-0.818,1.467-0.966
		c0.839-0.213,1.316-0.93,1.252-1.545c-0.075-0.721-0.963-0.802-1.679-0.821c-0.301,0.015-0.561,0.158-0.802,0.359
		c-0.581,0.483-1.169,0.957-1.751,1.438C60.356,25.078,60.371,25.057,61.681,25.875z"/>
	<path fill="#86603D" d="M29.284,30.77c0.295,0.267,0.639,0.348,0.994,0.376c0.213,0.017,0.43,0.015,0.642,0.023
		c0.323,0.013,0.794,0.211,0.943-0.143c0.295-0.704,0.998-1.111,1.222-1.837c0.061-0.197-0.127-0.264-0.271-0.313
		c-1.213-0.422-2.42-0.927-3.719-0.309C29.626,29.261,28.891,30.064,29.284,30.77z"/>
	<path fill="#86603D" d="M38.079,30.553c1.044-0.074,2.246-1.545,2.154-2.637c-0.002-0.027-0.032-0.052-0.049-0.079
		c-0.286,0.118-0.573,0.237-0.858,0.356c0.022-0.909-0.958-1.521-0.736-2.489c-0.319,0.348-0.699,0.64-1.048,0.96
		c-0.35,0.32-0.669,0.668-0.867,1.126C37.927,28.313,37.693,29.59,38.079,30.553z"/>
	<path fill="#BA9362" d="M26.77,30.55c0.104,0.012,0.209,0.021,0.314,0.028c0.735,0.048,1.479-0.009,2.2,0.192
		c-0.393-0.706,0.342-1.509-0.189-2.204c-1.111-0.075-1.828,0.702-2.653,1.238c-0.189,0.123-0.328,0.33-0.245,0.561
		C26.293,30.634,26.568,30.526,26.77,30.55z"/>
	<path fill="#BA9362" d="M38.591,25.703c-0.223,0.968,0.758,1.58,0.736,2.489c0.286-0.119,0.572-0.237,0.858-0.356
		c-0.076-0.561-0.168-1.121-0.223-1.685c-0.034-0.339,0.032-0.655-0.444-0.796c-0.281-0.083-0.495-0.089-0.665,0.02
		C38.751,25.441,38.665,25.548,38.591,25.703z"/>
	<path fill="#86603D" d="M43.316,38.435c-0.015-0.11-0.029-0.219-0.044-0.329l-0.001-0.001c-0.327,0.032-0.476-0.275-0.735-0.384
		c-0.438-0.185-0.806-0.255-1.12-0.203c-0.405,0.067-0.722,0.338-0.991,0.829l0,0c0.521,0.097,1.04,0.204,1.561,0.296
		c0.174,0.031,0.348,0.06,0.522,0.086c0.038,0.006,0.076,0.011,0.114,0.015C42.89,38.774,43.166,38.751,43.316,38.435z"/>
	<path fill="#546E0C" d="M94.559,68.542c-0.099,0.015-0.198,0.029-0.297,0.044c0.029,0.024,0.057,0.041,0.083,0.051
		C94.426,68.667,94.497,68.637,94.559,68.542z"/>
	<path fill="#060504" d="M64.383,48.032c-0.104-0.321-0.245-0.641-0.441-0.962c-0.052,0.291-0.084,0.472-0.116,0.653l0,0
		c0.014,0.103,0.026,0.205,0.034,0.307c0.009,0.102,0.015,0.204,0.018,0.306c0.008,0.229-0.001,0.456-0.023,0.683
		c-0.037,0.377-0.116,0.75-0.248,1.118c-0.189,0.676-0.31,1.374-0.482,2.056c-0.014,0.054-0.028,0.108-0.042,0.162
		c-0.034,0.128-0.071,0.255-0.11,0.382c-0.035,0.112-0.072,0.224-0.112,0.335c-0.157,0.43-0.359,0.845-0.638,1.235
		c-0.673,0.87-1.359,1.732-2.015,2.615c-0.343,0.462-0.699,0.161-0.968-0.003c-0.304-0.186-0.516-0.524-0.767-0.795
		c-0.078-0.038-0.153-0.08-0.225-0.125c-0.217-0.135-0.406-0.304-0.562-0.514c-0.309-0.242-0.613-0.49-0.928-0.724
		c-0.202-0.151-0.42-0.444-0.624,0.004c0.194,0.195,0.369,0.404,0.53,0.621c0.161,0.217,0.308,0.443,0.447,0.675
		c0.277,0.463,0.522,0.947,0.779,1.423c1.075,1.429,1.027,1.388-0.06,2.644c-1.278,1.476-3.06,2.203-4.591,3.301
		c-2.46,1.765-5.459,1.742-8.211,2.533c-0.669,0.192-1.405-0.009-2.053-0.213c-0.719-0.227-0.622-0.997-0.734-1.595
		c-0.132-0.367-0.217-0.741-0.244-1.126c-0.009-0.128-0.012-0.257-0.008-0.388c-0.146-1.386-0.293-2.772-0.439-4.159
		c-0.013-0.126-0.025-0.252-0.038-0.379c-0.06-0.227-0.119-0.452-0.179-0.678c-0.001,0.002-0.001,0.004-0.002,0.006
		c-0.74,1.909-1.03,3.847-0.411,5.85c0.042,0.118,0.093,0.234,0.124,0.354c0.614,2.41,0.667,2.023-1.65,1.796
		c-2.259-0.221-3.741-1.688-4.885-3.538c-0.295,0.069-0.444,0.199-0.367,0.476c0.011,0.04,0.027,0.082,0.047,0.128
		c0.547,1.228,1.214,2.391,1.909,3.538c0.183,0.302,0.437,0.532,0.793,0.634c0.364,0.104,0.729,0.205,1.094,0.302
		c0.548,0.145,1.098,0.279,1.649,0.401c2.023,0.445,4.072,0.711,6.172,0.638c0.151-0.035,0.302-0.069,0.453-0.104
		c0.102-0.036,0.204-0.072,0.305-0.109c1.807-0.42,3.649-0.73,5.41-1.293c1.586-0.507,2.832-1.726,4.325-2.461
		c1.291-0.702,2.339-1.671,3.309-2.722c0.191-0.207,0.379-0.416,0.565-0.628c0.135-0.153,0.269-0.307,0.402-0.462
		c0.179-0.208,0.357-0.416,0.536-0.624c0.92-1.072,1.687-2.201,2.271-3.396c0.975-1.991,1.444-4.165,1.281-6.562
		C64.625,49.103,64.556,48.566,64.383,48.032z"/>
	<path fill="#FEFEFE" d="M41.512,58.101c0.143,0.014,0.337-0.011,0.314,0.204c-0.007,0.067-0.179,0.117-0.276,0.175
		c0.146,1.386,0.293,2.772,0.439,4.159c0.526,0.035,0.597-0.446,0.764-0.773c0.3,0.126,0.448,0.325,0.409,0.541
		c-0.134,0.746,0.513,0.607,0.782,0.572c0.441-0.057,0.236-0.508,0.195-0.788c-0.052-0.352-0.285-0.624-0.553-0.859
		c-0.17-0.149-0.354-0.319-0.138-0.553c0.25-0.27,0.36,0.01,0.519,0.146c0.477,0.409,0.89,0.905,1.508,1.127
		c0.226,0.081,0.433,0.092,0.603-0.11c0.138-0.164,0.17-0.368,0.044-0.525c-0.715-0.892-0.08-1.356,0.562-1.818
		c0.992-0.713,1.019-0.875,0.141-1.863c-0.432-0.486-0.495-1.143-0.858-1.663c-0.143-0.204-0.14-0.625,0.195-0.735
		c0.362-0.119,0.342,0.301,0.43,0.493c0.116,0.25,0.095,0.561,0.197,0.821c0.101,0.256,0.358,0.383,0.621,0.3
		c0.258-0.082,0.158-0.321,0.182-0.54c0.097-0.877-0.329-1.746,0.012-2.626c0.135-0.347-0.083-0.723-0.306-0.953
		c-0.261-0.269-0.515,0.067-0.707,0.234c-0.536,0.465-0.674-0.125-0.842-0.354c-0.7-0.952-0.815-0.979-1.578-0.219
		c-0.203,0.202-0.547,0.392-0.294,0.673c0.28,0.311,0.49-0.011,0.646-0.255c0.184-0.289,0.411-0.274,0.628-0.066
		c0.185,0.176,0.177,0.567,0.017,0.566c-0.752-0.002-0.332,2.027-1.652,0.939c-0.024-0.02-0.114,0.037-0.172,0.06
		c-0.565,0.232-1.02,0.561-1.277,1.159c-0.04,0.093-0.074,0.189-0.108,0.286c-0.063,0.181-0.12,0.366-0.192,0.543
		c-0.111,0.271-0.258,0.523-0.517,0.713c0,0.001,0,0.001,0,0.002c0,0.001,0.001,0.002,0.001,0.003
		c0.028,0.103,0.055,0.207,0.082,0.311C41.392,57.649,41.452,57.875,41.512,58.101z M46.32,53.977
		c0.168-0.041,0.196,0.12,0.19,0.249c-0.008,0.171-0.1,0.292-0.265,0.351c-0.114,0.014-0.196-0.041-0.186-0.149
		C46.076,54.242,46.108,54.029,46.32,53.977z M45.919,59.218c0.012-0.029,0.028-0.059,0.037-0.087l0,0l0,0
		c0.055,0.018,0.109,0.037,0.164,0.055c0,0,0,0,0,0c0,0,0,0,0,0c-0.018,0.055-0.036,0.109-0.055,0.164
		c-0.055-0.018-0.138-0.023-0.156-0.059C45.9,59.273,45.907,59.246,45.919,59.218z M44.987,54.442
		c0.055,0.018,0.109,0.037,0.164,0.055c0,0,0,0,0,0c0,0,0,0,0,0c-0.018,0.055-0.036,0.109-0.055,0.164
		c-0.054-0.018-0.138-0.023-0.155-0.059C44.922,54.565,44.968,54.497,44.987,54.442z"/>
	<path fill="#EEEEEE" d="M42.975,65.747c0.648,0.204,1.383,0.406,2.053,0.213c2.752-0.791,5.75-0.768,8.211-2.533
		c1.531-1.098,3.313-1.825,4.591-3.301c1.087-1.256,1.135-1.215,0.06-2.644c-0.052,0.142-0.17,0.299-0.144,0.425
		c0.176,0.828-0.063,1.273-0.985,1.204c-0.24-0.018-0.558-0.007-0.587,0.337c-0.081,0.969-0.885,1.087-1.559,1.359
		c-0.184,0.074-0.62,0.033-0.49,0.262c0.42,0.74-0.203,0.536-0.479,0.576c-0.353,0.051-0.645,0.165-0.954,0.356
		c-0.462,0.286-0.936,0.613-1.514,0.026c-0.287-0.292-0.97-0.275-1.187,0.119c-0.271,0.492,0.008,0.899,0.65,0.945
		c0.293,0.021,0.329,0.277,0.259,0.505c-0.068,0.22-0.283,0.237-0.473,0.205c-0.118-0.019-0.256-0.074-0.335-0.159
		c-0.535-0.58-1.016-0.473-1.663-0.091c-0.305,0.18-0.639,0.63-1.178,0.411c-0.781-0.317-1.575-0.483-2.262,0.26
		c-0.084,0.09-0.32,0.122-0.447,0.076c-0.549-0.2-0.834,0.138-1.097,0.505c-0.441,0.612-0.74,0.46-0.96-0.16
		c-0.023-0.066-0.036-0.136-0.053-0.204c-0.028-0.113-0.069-0.219-0.191-0.286C42.353,64.75,42.256,65.52,42.975,65.747z"/>
	<path fill="#EEEEEE" d="M59.24,56.917c0.269,0.164,0.625,0.465,0.968,0.003c0.656-0.883,1.342-1.744,2.015-2.615
		c0.078-1.027,0.133-2.056,0.242-3.08c0.069-0.653,0.578-0.918,1.143-1.089c0.132-0.368,0.21-0.741,0.248-1.118
		c0.022-0.226,0.031-0.454,0.023-0.683c-0.003-0.102-0.01-0.204-0.018-0.306c-0.009-0.102-0.02-0.205-0.034-0.307l0,0v0
		c-0.223-0.149-0.386-0.341-0.526-0.551c-0.233-0.349-0.4-0.746-0.667-1.069c-0.236-0.285-0.403-0.651-0.785-0.794
		c-0.061,0.572,0.255,0.936,0.583,1.297c0.197,0.216,0.397,0.431,0.523,0.688c0.66,1.353,0.323,2.072-1.165,2.223
		c-0.156,0.016-0.312,0.028-0.468,0.04c-0.156,0.012-0.313,0.022-0.469,0.035l0,0l-0.011,0.013c0.47,0.681,0.561,1.413,0.641,2.252
		c0.139,1.466-0.413,2.756-1.406,3.541c-0.451,0.357-0.993,0.609-1.603,0.725C58.724,56.394,58.935,56.731,59.24,56.917z"/>
	<path fill="#EEEEEE" d="M39.394,65.43c2.317,0.227,2.264,0.614,1.65-1.796c-0.031-0.121-0.082-0.236-0.124-0.354
		c-1.612,1.266-1.899,1.62-4.264,0.135c-0.622-0.391-0.595-1.167-1.179-1.483c-0.628-0.34-0.823-0.946-0.965-1.544
		c-0.032-0.137-0.068-0.273-0.107-0.408c-0.046-0.165-0.096-0.329-0.146-0.493c-0.238-0.78-0.493-1.557-0.502-2.389
		c-0.374,0.304-0.443,0.606-0.269,1.115c0.103,0.301,0.197,0.604,0.286,0.909c0.267,0.916,0.487,1.848,0.736,2.77
		C35.653,63.742,37.135,65.209,39.394,65.43z"/>
	<path fill="#EEEEEE" d="M42.664,48.265c1.045-0.084,2.012,0.06,3.135-0.424c1.311-0.564,0.406-0.811,0.215-1.262
		c-0.251-0.594-0.669-0.803-1.329-0.825c-0.579-0.019-0.832-0.818-1.514-0.902c-0.032,0.355,0.211,0.484,0.396,0.622
		c0.411,0.307,0.581,0.619,0.484,1.197c-0.105,0.621-0.501,0.52-0.871,0.628c-0.237,0.069-0.454,0.217-0.669,0.346
		c-0.161,0.096-0.337,0.208-0.245,0.446C42.337,48.275,42.507,48.278,42.664,48.265z"/>
	<path fill="#EEEEEE" d="M56.757,54.758c0.314,0.234,0.619,0.482,0.928,0.724c-0.58-1.493-1.685-2.574-2.953-3.442
		c-1.442-0.986-2.728-2.155-4.163-3.251c-0.084,0.554,0.207,0.886,0.561,1.126c1.525,1.033,2.798,2.304,3.912,3.774
		c0.144,0.19,0.281,0.416,0.449,0.616c0.167,0.197,0.366,0.368,0.633,0.453c0.003,0.001,0.006,0.003,0.009,0.004
		C56.337,54.314,56.555,54.608,56.757,54.758z"/>
	<path fill="#704A51" d="M61.451,44.356c0.031,0.06,0.049,0.123,0.042,0.192c-0.004,0.034-0.013,0.07-0.031,0.108
		c-0.018,0.038-0.043,0.077-0.078,0.119h0l0,0c0.077,0.109,0.155,0.218,0.232,0.327h0l0,0c0.035-0.003,0.064,0.001,0.089,0.009
		c0.074,0.024,0.107,0.094,0.118,0.185c0,0,0.024,0.012,0.023,0.012c0.383,0.144,0.549,0.51,0.785,0.794
		c0.267,0.322,0.434,0.719,0.667,1.069c0.14,0.21,0.303,0.402,0.526,0.551v0c0.032-0.181,0.064-0.362,0.116-0.653
		c0.196,0.321,0.337,0.641,0.441,0.962c0.173,0.535,0.242,1.071,0.282,1.616c0,0,0,0,0,0c0.282-0.035,0.486-0.179,0.503-0.469
		c0.054-0.912-0.289-1.799-0.837-2.396c-0.498-0.542-0.966-1.097-1.423-1.675c-0.203-0.257-0.394-0.528-0.588-0.796
		c-0.079-0.109-0.159-0.218-0.241-0.325c-0.044-0.057-0.088-0.114-0.132-0.17c-0.047-0.06-0.095-0.118-0.144-0.176
		c-0.112-0.133-0.23-0.26-0.354-0.381c-0.377-0.366-0.817-0.663-1.39-0.817c0,0,0,0,0,0c0.297,0.585,1.018,0.86,1.144,1.569
		C61.274,44.129,61.389,44.237,61.451,44.356z"/>
	<path fill="#EEEEEE" d="M49.343,48.715c0.167,0.164,0.46,0.172,0.597-0.016c0.24-0.328,0.121-0.645-0.179-0.905
		c-0.111-0.096-0.087-0.23-0.018-0.342c0.563-0.919,0.246-1.806-0.292-2.729c-0.244,0.979-0.485,1.959-0.734,2.937
		C48.574,48.224,49.048,48.425,49.343,48.715z"/>
	<path fill="#EEEEEE" d="M61.462,44.656c0.018-0.038,0.027-0.074,0.031-0.108c0.007-0.069-0.011-0.132-0.042-0.192
		c-0.062-0.12-0.177-0.227-0.247-0.345c-0.078,0.069-0.133,0.132-0.168,0.191c-0.024,0.039-0.038,0.076-0.046,0.112
		c-0.004,0.018-0.005,0.035-0.005,0.052c0,0.03,0.007,0.058,0.017,0.085c0.049,0.127,0.2,0.229,0.383,0.325h0
		C61.419,44.733,61.445,44.694,61.462,44.656z"/>
	<path fill="#EEEEEE" d="M60.593,49.329c-0.022,0.003-0.054,0.042-0.054,0.064c0.002,0.207,0.163,0.193,0.301,0.211
		c0,0,0.011-0.013,0.011-0.013C60.81,49.458,60.798,49.296,60.593,49.329z"/>
	<path fill="#EEEEEE" d="M61.705,45.111c-0.025-0.008-0.054-0.011-0.089-0.009l0,0c0.019,0.018,0.038,0.035,0.056,0.053
		c0.05,0.047,0.101,0.094,0.151,0.141C61.812,45.204,61.78,45.135,61.705,45.111z"/>
	<path fill="#7F9739" d="M72.542,60.085c0.181,0.057,0.361,0.117,0.541,0.18c1.256,0.438,2.48,0.985,3.814,1.168l0,0l0.013-0.016
		c0.013-0.015,0.03-0.037,0.03-0.037c-0.173-0.233-0.392-0.395-0.677-0.471c-0.366-0.098-0.727-0.209-1.088-0.326
		c-0.24-0.078-0.479-0.159-0.718-0.241c-1.315-0.449-2.624-0.921-4.022-1.074c0,0,0,0,0,0c0,0-0.002,0.002-0.003,0.004
		c-0.002,0.002-0.003,0.004-0.003,0.004C71.015,59.847,71.827,59.861,72.542,60.085z"/>
	<path fill="#7F9739" d="M90.415,67.006c-0.028,0.258,0.169,0.281,0.361,0.289c0.025-0.029,0.049-0.059,0.074-0.088
		c-0.003,0.018,0.001,0.041-0.009,0.052c-0.016,0.017-0.042,0.026-0.063,0.038c0.011,0.126,0.054,0.214,0.124,0.269
		c0.07,0.055,0.167,0.078,0.285,0.076c0.012-0.522,0.436-0.367,0.723-0.437c0,0,0.005-0.008,0.005-0.008h0
		c-0.364-0.138-0.725-0.288-1.094-0.411C90.631,66.722,90.441,66.764,90.415,67.006z"/>
	<polygon fill="#7F9739" points="91.188,67.641 91.187,67.641 91.186,67.643 	"/>
	<path fill="#7F9739" d="M76.897,61.433c0.176,0.472,0.556,0.359,0.972,0.399c-0.238-0.471-0.594-0.436-0.929-0.451
		c0,0-0.017,0.021-0.03,0.037C76.903,61.426,76.897,61.433,76.897,61.433z"/>
	<path fill="#7F9739" d="M91.439,67.689c-0.083-0.015-0.166-0.03-0.248-0.045C91.263,67.715,91.318,67.874,91.439,67.689z"/>
	<polygon fill="#7F9739" points="91.191,67.644 91.188,67.641 91.186,67.643 	"/>
	<path fill="#7F9739" d="M25.253,66.116c-0.117-0.085-0.235-0.17-0.357-0.242c-0.081-0.048-0.165-0.091-0.251-0.125
		c-0.043-0.017-0.088-0.031-0.133-0.043c-0.088-0.023-0.181-0.035-0.278-0.034c0,0,0,0,0,0c0.065,0.223,0.157,0.373,0.271,0.46
		C24.698,66.28,24.955,66.254,25.253,66.116z"/>
	<polygon fill="#7F9739" points="24.227,65.672 24.227,65.672 24.234,65.672 24.231,65.666 24.227,65.672 	"/>
	<path fill="#7F9739" d="M23.596,65.735c0.053-0.006,0.107-0.016,0.161-0.027c0.158-0.033,0.318-0.074,0.461-0.044
		c-0.328-0.328-0.734-0.328-1.154-0.275C23.192,65.712,23.385,65.758,23.596,65.735z"/>
	<polygon fill="#7F9739" points="23.057,65.39 23.065,65.389 23.062,65.383 23.062,65.383 	"/>
	<path fill="#7F9739" d="M24.227,65.672c0,0,0.004-0.006,0.004-0.006c-0.004-0.001-0.009-0.001-0.013-0.002
		C24.221,65.667,24.225,65.669,24.227,65.672L24.227,65.672z"/>
	<path fill="#7F9739" d="M23.679,68.197c0.024,0.036,0.051,0.065,0.08,0.088c0.087,0.066,0.195,0.077,0.311,0.067l0,0
		c-0.022-0.037-0.046-0.067-0.074-0.09c-0.057-0.047-0.126-0.066-0.2-0.071c-0.037-0.002-0.076,0-0.116,0.003L23.679,68.197z"/>
	<polygon fill="#7F9739" points="24.072,68.356 24.075,68.352 24.075,68.352 24.075,68.352 24.069,68.352 	"/>
	<path fill="#7F9739" d="M24.151,68.447c0.085,0.072,0.197,0.08,0.316,0.068l0,0l0,0c0,0,0.005-0.006,0.005-0.006
		c-0.046-0.079-0.106-0.121-0.175-0.142c-0.067-0.02-0.142-0.019-0.219-0.012C24.099,68.393,24.123,68.424,24.151,68.447z"/>
	<polygon fill="#7F9739" points="24.072,68.356 24.078,68.356 24.075,68.352 24.075,68.352 	"/>
	<path fill="#7F9739" d="M24.467,68.514c0.012,0.022,0.021,0.049,0.038,0.065c0.011,0.01,0.037,0.005,0.056,0.007
		c-0.03-0.026-0.06-0.052-0.089-0.077C24.472,68.509,24.467,68.514,24.467,68.514L24.467,68.514z"/>
	<path fill="#060504" d="M64.789,59.11c0.219-0.192,0.237-0.421,0.222-0.675c-1.278,0.545-2.005,1.664-2.811,2.7
		c-1.471,1.89-2.948,3.688-5.116,4.947c-3.628,2.108-7.456,3.379-11.61,3.664c-1.473,0.101-2.966-0.106-4.446-0.058
		c-0.147,0.005-0.294,0.002-0.442-0.004c-0.381-0.017-0.765-0.063-1.148-0.089c-0.113-0.008-0.225-0.013-0.337-0.016
		c-0.041-0.001-0.082-0.002-0.123-0.002c-0.498-0.001-0.992,0.065-1.474,0.312c0.926,0.199,1.848,0.417,2.777,0.593
		c3.169,0.6,6.294,1.673,9.581,0.474c1.651-0.602,3.502-0.608,5.101-1.374c1.591-0.762,3.082-1.733,4.626-2.596
		c0.49-0.274,0.827-0.66,1.099-1.141c0.325-0.576,0.657-1.148,0.99-1.719c0.333-0.571,0.669-1.141,1.001-1.713
		C63.234,61.218,63.765,60.004,64.789,59.11z"/>
	<path fill="#BA9362" d="M51.976,66.503c-1.761,0.563-3.603,0.873-5.41,1.293c-0.078,0.103-0.173,0.157-0.305,0.109
		c-0.151,0.034-0.303,0.069-0.454,0.104c0.205,0.478-0.403,0.658-0.434,1.266c0.597-0.724,1.436,0.03,1.994-0.686
		c0.572-0.734,0.413,0.197,0.586,0.36c0.47-0.598,0.952-0.964,1.702-0.507c0.449,0.273,1.657-0.185,1.524-0.539
		c-0.158-0.42,0.122-0.364,0.251-0.39c0.577-0.118,1.133-0.387,1.746-0.281l0.002-0.003c0.304-0.898,1.065-1.286,1.831-1.703
		c0.149-0.081,0.315-0.151,0.477-0.225c0.122-0.056,0.242-0.115,0.352-0.184c0.329-0.206,0.562-0.502,0.463-1.074
		C54.807,64.777,53.562,65.996,51.976,66.503z"/>
	<path fill="#546E0C" d="M22.063,64.299c-0.112,0.335,0.234,0.46,0.594,0.663c-0.3-0.686,0.338-0.98,0.427-1.482
		C22.517,63.467,22.216,63.842,22.063,64.299z"/>
	<polygon fill="#546E0C" points="23.093,63.479 23.086,63.472 23.084,63.479 	"/>
	<path fill="#704A51" d="M19.777,48.599c-0.013,0.028-0.026,0.056-0.039,0.083c0,0,0.002,0.002,0.002,0.002
		C19.753,48.656,19.765,48.627,19.777,48.599z"/>
	<path fill="#060504" d="M71.44,41.62c0.27,0.415,0.629,0.322,0.976,0.384c0.337-0.222,0.573-0.759,1.111-0.357
		c0.797-0.056,1.571-0.029,2.294,0.176c0.188,0.053,0.372,0.117,0.553,0.197c0.398,0.175,0.777,0.418,1.132,0.746
		c0.455,0.296,0.911,0.591,1.366,0.887c0.251,0.161,0.49,0.333,0.719,0.515c0.013,0.01,0.027,0.02,0.04,0.03
		c0.24,0.194,0.468,0.4,0.68,0.62c0.425,0.44,0.792,0.936,1.087,1.499c0.588,0.894,0.733,1.925,0.869,2.962
		c0.346-1.145,0.292-2.308-0.036-3.381c-0.395-1.292-1.012-2.556-2.087-3.437c-1.64-1.344-3.424-2.399-5.698-1.942
		c-2.149,0.433-4.457-0.491-6.592,0.763c0.299,0.04,0.516,0.069,0.732,0.098c0.559-0.028,1.118-0.063,1.677-0.08
		C70.689,41.287,71.196,41.245,71.44,41.62z"/>
	<path fill="#BA9362" d="M72.416,42.004c0.037,1.07-0.297,2.119-0.118,3.208c0.1,0.605-0.027,1.246-0.03,1.87
		c-0.001,0.204-0.022,0.504,0.29,0.488c0.154-0.008,0.393-0.169,0.433-0.307c0.218-0.751,0.61-1.543,0.52-2.27
		c-0.052-0.425-0.061-0.846-0.052-1.264c0.015-0.697,0.078-1.387,0.067-2.083C72.99,41.245,72.754,41.782,72.416,42.004z"/>
	<path fill="#AA4645" d="M77.507,42.766c0.465,2.049,0.453,4.087-0.285,6.108c0.844-0.52,1.258-1.104,1.229-2.094
		c-0.015-0.518-0.037-1.052,0.008-1.581c0.046-0.528,0.159-1.051,0.414-1.546l0,0C78.417,43.357,77.962,43.062,77.507,42.766z"/>
	<path fill="#546E0C" d="M87.894,61.39c-0.717-0.535-1.245-0.579-1.433,0.478C86.807,61.329,87.48,61.81,87.894,61.39z"/>
	<path fill="#546E0C" d="M84.167,55.903c0.012-0.056,0.02-0.091,0.027-0.125c-0.021,0.008-0.061,0.017-0.061,0.025
		C84.134,55.828,84.149,55.854,84.167,55.903z"/>
	<path fill="#86603D" d="M43.339,38.072c0.011-0.01,0.007-0.035,0.01-0.054c-0.026,0.029-0.051,0.058-0.077,0.087l0.001,0.001
		C43.295,38.095,43.322,38.089,43.339,38.072z"/>
	<path fill="#EB98A3" d="M62.465,51.225c-0.109,1.024-0.164,2.053-0.242,3.08c0.28-0.389,0.481-0.805,0.638-1.235
		c0.04-0.111,0.077-0.222,0.112-0.335c0.039-0.126,0.076-0.254,0.11-0.382c0.014-0.054,0.029-0.108,0.042-0.162
		c0.172-0.681,0.293-1.38,0.482-2.055C63.042,50.307,62.534,50.572,62.465,51.225z"/>
	<path fill="#F9F2F0" d="M41.826,58.305c0.023-0.215-0.171-0.19-0.314-0.204c0.013,0.126,0.025,0.252,0.038,0.379
		C41.646,58.422,41.819,58.373,41.826,58.305z"/>
	<path fill="#AA4645" d="M46.566,67.796c-0.102,0.036-0.204,0.072-0.305,0.109C46.393,67.953,46.488,67.899,46.566,67.796z"/>
	<path fill="#F9F2F0" d="M46.244,54.576c0.165-0.059,0.257-0.179,0.265-0.351c0.006-0.129-0.022-0.29-0.19-0.249
		c-0.211,0.052-0.244,0.266-0.261,0.451C46.048,54.536,46.13,54.59,46.244,54.576z"/>
	<path fill="#F9F2F0" d="M46.065,59.35c0.018-0.055,0.036-0.109,0.055-0.164c0,0,0,0,0,0c-0.055-0.019-0.109-0.037-0.164-0.055l0,0
		c-0.009,0.027-0.025,0.058-0.037,0.087c-0.012,0.029-0.019,0.055-0.01,0.073C45.927,59.327,46.01,59.332,46.065,59.35z"/>
	<path fill="#F9F2F0" d="M45.096,54.661c0.018-0.055,0.036-0.109,0.055-0.164c0,0,0,0,0,0c-0.055-0.019-0.109-0.037-0.163-0.055
		c-0.018,0.055-0.064,0.123-0.046,0.16C44.958,54.638,45.041,54.643,45.096,54.661z"/>
	<path fill="#546E0C" d="M90.841,67.258c0.01-0.01,0.006-0.034,0.009-0.052c-0.025,0.029-0.049,0.059-0.074,0.088
		c0,0,0.002,0.001,0.002,0.001C90.799,67.284,90.824,67.275,90.841,67.258z"/>
</g>
</svg>
