<?xml version="1.0" encoding="utf-8"?>
<!-- Generator: Adobe Illustrator 23.0.3, SVG Export Plug-In . SVG Version: 6.00 Build 0)  -->
<svg version="1.1" id="img" xmlns="http://www.w3.org/2000/svg" xmlns:xlink="http://www.w3.org/1999/xlink" x="0px" y="0px"
	 viewBox="0 0 500 500" style="enable-background:new 0 0 500 500;" xml:space="preserve">
<style type="text/css">
	.st0{fill:#060504;}
	.st1{fill:#F9F2F0;}
	.st2{fill:#546E0C;}
	.st3{fill:#704A51;}
	.st4{fill:#AA4645;}
	.st5{fill:#7F9739;}
	.st6{fill:#8E6A72;}
	.st7{fill:#EB98A3;}
	.st8{fill:#BA9362;}
	.st9{fill:#86603D;}
	.st10{fill:#FEFEFE;}
	.st11{fill:#EEEEEE;}
</style>
<g>
	<path class="st0" d="M252.7,103.2c-2.9,0.2-5.7,0.5-8.5,1.2c-2.1,0.5-4.2,1.2-6.2,2.1c-1.9,1.7-4.4,2.3-6.7,3.3
		c-7.5,3.3-8,5.9-2.4,11.6c0.4,0.4,0.7,0.8,1.1,1.2c0.3,0.4,0.7,0.8,1,1.3l0,0l0,0c0.4,0.4,0.7,0.8,1.1,1.2c1.8,1.7,3.8,2.9,6,3.9
		c0.4,0.2,0.9,0.4,1.4,0.6c0.9,0.4,1.9,0.7,2.8,1c3.4,1.2,6.9,2.4,10.4,4.4c-3.6,0.3-5.9,0.6-8.2,0.7c-7.1,0.2-13.7,2-20,5.2
		c-1.4,0.7-2.7,1.7-4.5,1.2c-1.8-0.3-3.7-0.7-5.5-0.8c-3.2-0.2-4.7-1.7-5.1-4.9c-0.3-3.1-1.6-6.1-0.7-9.3c0.5-4.9-1.8-7.7-6.5-8.8
		c-1.2-0.3-2.3-0.9-3.5-1.4c-4.2-1.5-7.6-0.2-10.5,3.1c-2.1,2.3-4.5,4.3-6.8,6.5c-9.2,10.6-9.2,10.6-22.2,6.6
		c-0.6-0.2-1.2-0.4-1.8-0.6c-0.6-0.2-1.2-0.5-1.7-0.7c-4.3,0.4-8.5,0.8-12.8,1.2c-0.6,0.3-1.1,0.5-1.7,0.7c-1,0.2-2,0.3-3,0.3
		c-4.5,2.9-9,5.9-13.5,8.8c-1.5,7-5.7,11.2-12.9,12.9c-2.9,0.7-4.4,3.9-6.5,6.1c-4.9,5-8.5,11.3-14.3,15.5c-1.4,1-0.6,3.5,0.2,4.8
		c2.2,3.9,1.8,7,0,9.7c-1,1.6-2.5,3.1-4.2,4.5c-1.9,2.1-3.4,4.4-4.6,6.8c-2.8,5.3-4.5,11.2-7.6,16.3c-1.1,4.9-2.2,9.8-3.3,14.7
		c-1,6.3,0.4,12.7,0,19c0.1,6.5,3,12.4,4,18.7c2.2,6.5,6.4,11.9,10.3,17.4c2.5,3.6,1.7,4.8-2.3,4.9c-1.1,0.1-2.2,0.2-3.3,0.3
		c-6.2,2.1-12.4,4.2-18.6,6.3c-6.7,2.3-12.8,5.6-18.2,10.2c-0.6,1.1-1.4,1.7-2.5,2.1c-5.5,4.7-10.7,9.7-15.1,15.6
		c-0.9,1.9-2.2,3.5-3.7,4.9c-4,6-8.6,11.5-13.4,16.9c-1.1,2-2.4,3.8-4.4,5c-4.1,5.9-3.3,8.7,3.4,11.3c7.3,2.8,14.4,6.1,22,8.2
		c5.2,0.4,10.4,1.4,15.5,2.7c1.3-0.3,1.9,0.3,1.9,1.5c2.3,3.7,3.2,8,6.5,11.3c4.7,4.6,9.9,7.6,16.3,8.8c13.4,3.4,26.9-0.3,40.3,0.7
		c0.9,0.1,1.8,0.3,2.7,0.4c7.6,0.4,14.1-4.3,21.6-4.6c4.8-1.1,9.5-2.4,14.3-3.3c5.5-1.1,10.7-2.8,15.7-5.1c4.1-2.6,8.4-4.9,12.9-6.8
		c1.9-0.8,3.9-1.6,5.8-2.3c1.4-0.5,2.9-1,4.3-1.4c1.1-0.3,2.3-0.7,3.5-1c4.1-1.1,9.2,0.6,13.6,1.8c5.9,1.5,11.7,3.7,17.5,5.6
		c0.5,0,1,0,1.4,0.1c17.3,6.7,34.8,3,51.9-0.3c10.9-2.1,21.5-7.1,31-13.7c2.8-1.9,5.7-3.7,8.6-5.6c1-1,2.1-2,3.1-3
		c0.7-0.7,1.4-1.4,2.2-2.1c0.2-1.4,0.8-2.5,1.7-3.4c0.2-0.2,0.4-0.4,0.7-0.7c0.7-0.6,1.5-1.2,2.2-1.8c2.1-3.4,4.8-6.4,7.2-9.6
		c1.4-1.9,2.8-3.9,3.8-6.1c0.6-1.3,1.6-2,3-1.4c4.4,1.9,9.3,2.8,13.5,5.3c8.4,3.7,17.7,2.9,26.3,5.2c2.9,0.8,5.9,0.7,8.7,2
		c1,0.2,2,0.4,3,0.6c0.6,0.1,1.2,0.2,1.8,0.4l0,0c1.5,0.3,3,0.6,4.5,0.9c4.5,0.9,9,1.9,13.4,3.3c2.2,1.3,4.6,1.7,7,1.8
		c0.8,0,1.6,0,2.4,0c2.4-0.1,4.8-0.3,7.1-0.1c0.8,0.1,1.6,0.1,2.3,0.3c0.8-0.1,1.6-0.2,2.4-0.2c1.6-0.1,3.2-0.2,4.7-0.2
		c1.6,0,3.2,0,4.8,0c2.4,0,4.8,0.1,7.1,0c6.3-0.6,12.6-1.1,19-1.7l0,0c6.3-0.8,12.6-1.7,18.8-2.5c2.1-0.7,4.3-0.9,6.6-0.8
		c6.1-2.6,7-4.8,4.6-10.8c-1-2.4-2-4.9-3-7.3l0,0l0,0c-2.7-6.1-5.4-12.1-8-18.2c-1.3-1.8-2.6-3.6-3.9-5.4
		c-3.9-3.9-7.4-8.1-10.5-12.7c-1.2-1.3-2.5-2.4-3.5-3.8c-6-8.8-14.3-15.1-23.4-20.3c-2.6-1.5-5.1-2.8-6.5-5.7
		c-0.6-1.2-2.1-2.8-3.3-2.9c-6.1-0.4-4.5-4.5-4.1-8c0.4-4.4,0.9-8.8,1.4-13.2c0.5-6.4,1.3-12.7-1.5-18.8
		c-1.7-7.8-6.6-13.3-12.5-18.2c-0.5-0.1-0.9-0.4-1.3-0.7c-0.4-0.3-0.6-0.7-0.8-1.2c-0.9-0.8-1.9-1.6-2.8-2.3c-2.9-2.1-6-3.9-9.2-5.6
		c-4.2-2.3-8.5-4.4-12.6-6.9c-5-0.7-10-1.4-15-2c-6.5-0.3-12.8-1.7-19.4-0.8c-2.4,0.3-3.7-0.8-3.7-3.5c0-1.4-0.5-2.8-0.5-4.2
		c0-8.9-3.3-16.6-8.4-23.7c-2.9-3.7-4.9-8.3-9.9-10c-1.2-0.1-2.2-0.4-3-1.4c-1.6-0.6-3.2-1.2-4.9-1.8c-0.1,0-0.3,0-0.4,0
		c-0.8-0.1-1-0.8-1.2-1.6c-0.2-0.1-0.4-0.3-0.3-0.5c0-0.1,0-0.2,0.1-0.2c-0.3-0.6-0.5-1.3-0.8-1.9c-3.5-4.5-3.5-4.5,1.9-6.9
		c2.4-1.1,4.7-2.4,7.1-3.6c1.9-3.3,3.7-6.7,5.6-10c0.1-6.5-3.6-11-7.8-15.2c-2.6-0.5-5.1-1-7.7-1.4c-1.6,0.1-3.1,0.3-4.7,0.4l0,0
		c-3.3,2.7-6.6,5.4-9.9,8.1c-3.3,2.7-6.6,5.4-9.9,8c-1.3,1-2.3,2.8-4.4,2.3c-6.1,0.2-12.2-0.4-18.3-1.2c-2.2,1.1-3.5-0.3-4.9-1.7
		c-4-3.8-8-7.6-12-11.4c-1.4-0.2-2.9-0.5-4.3-0.7C254.2,103.1,253.4,103.2,252.7,103.2z M236.4,145.1c5.4-1.1,11-1.3,16.5-1.8
		c2.8-0.3,3.9,3.1,6.6,3.2c10.8,0.7,19.5,6.7,28.7,11.3c6.8,3.4,13.9,6,21.8,5.4c1.6-0.1,3.8,0.6,3.2,1.7c-2.3,4,1.7,4.5,2.9,6.6
		c1.6,2.7,2.3,6,4,8.5c2,3,5.7,3.8,8.7,5.5c0.8,0.4,1.9,0.7,1.7,1.9c-0.2,0.9-1.2,0.9-1.9,1.1c-3,0.8-6.1,1.7-9.1,2.5
		c-2,1-4,1.6-6.1,1.8c-2.1,0.2-4.2,0-6.5-0.7c-8.8-2.5-17.4-5.8-26.8-5.4c-9.8-0.7-19.5,1-29.3,1.6c-2.4,0.2-3.6-0.7-3.5-3.2
		c0-0.5-0.1-1,0-1.4c4.2-12.7-4.3-20.3-11.4-28.5c-0.7-0.8-1.4-1.7-2.1-2.5C229.4,147.3,229.5,146.4,236.4,145.1z M225.3,155.4
		c4,4.9,7.9,10,11.9,14.9c2.2,2.8,3.1,12.3,1.5,15.2c-0.9,1.7-2.5,0.9-3.8,0.9c-3.7,0-7.4-1.3-11.2,0c-0.7,0.2-1.4,0.6-1.9,0.9
		c-1.8,1.1-3.2,2.6-5,3.6c-0.8,1.6-2.1,1.7-3.5,1.5c-0.2,0-0.4,0-0.6-0.1c-0.9-0.1-1.7-0.3-2.6-0.4c-2.6-0.5-5.2-1-7.8-1.5l0,0
		c-1.2,0.1-2.3,0-3.4-0.1c-0.1,0-0.1,0-0.2,0c-0.5-0.1-0.9-0.1-1.4-0.2c-1-0.2-1.9-0.5-2.8-0.8c-0.1,0-0.1,0-0.2-0.1
		c0,0-0.1,0-0.1,0c-0.6-0.2-1.3-0.5-1.9-0.8c-2.2-1-4.2-2.4-6.1-3.8c-2.1-1.5-4.2-3.2-6.4-4.7c-0.7-0.5-1.5-1.3-2.3-2
		c-2.4-2.1-3.2-4-0.2-6.9c7.8-7.4,17.8-7.3,27.3-9.1c3.4-0.7,6.9-0.6,11.4-1c-4.9-2.7-9.7-2.3-13.8-4
		C208,147.3,218.1,146.6,225.3,155.4z M173.9,146.7c2.9-3.3,5.4-6.9,9.5-8.9c1-2.3,2.6-4,4.3-5.6c1.8-1.6,3.6-3.1,5.2-4.8
		c0.4-0.8,0.8-1.3,1.3-1.6c0.8-0.5,1.9-0.5,3.3-0.1c2.4,0.7,2,2.3,2.2,4c0.3,2.8,0.7,5.6,1.1,8.4c0.1,0.1,0.2,0.3,0.2,0.4
		c0.5,5.5-5.6,12.8-10.8,13.2c-6.6,4.7-13.3,9.3-19.7,14.3c-2.6,2-4.1,0.7-5.7-0.8c-2.2-2.1,0.4-3.3,1.3-4.1
		C170.6,157,170.2,150.8,173.9,146.7z M132.2,147.8c4.1-2.7,7.7-6.6,13.3-6.2c6.5-3.1,12.5-0.6,18.6,1.5c0.7,0.3,1.7,0.6,1.4,1.6
		c-1.1,3.6-4.6,5.7-6.1,9.2c-0.7,1.8-3.1,0.8-4.7,0.7c-1.1,0-2.1,0-3.2-0.1c-1.8-0.1-3.5-0.5-5-1.9c-3.6-1-7.3-0.7-11-1
		c-0.5,0-1.1-0.1-1.6-0.1c-1-0.1-2.4,0.4-2.9-0.9C130.6,149.5,131.3,148.4,132.2,147.8z M104.1,176.2c0.6-0.8,1.5-1.8,2.6-3.2
		c4.4-4.9,7.9-10.8,15.2-12.6c4.3-1,8.4-0.4,12.6-0.4c7.9-0.3,15,1.4,20.2,7.8c0.5,0.6,1.1,1.2,1.8,1.5c10,4.4,13.3,13.6,16.4,23
		c0.8,2.4,0.3,3.7-2,3.1c-9.7-2.3-19.6,1.6-29.3-0.8c-8.7-2.2-17.5-4.1-26.3-6c-0.4-0.1-0.9-0.2-1.3-0.3c-2.9-0.9-5.3-2.5-7.1-5.1
		c-2.5-2.3-3.7-3.6-3.8-4.9C103.3,177.7,103.5,177.1,104.1,176.2z M79.7,240.3c0.4-7.5,1.9-15,5.4-21.9c2.6-10.2,8.9-18,16.3-25.1
		c1.4-1.3,2.7-1.7,4.1-0.3c3,3,7,3.5,10.8,4.5c7.9,2.1,15.9,3.8,23.9,5.9c4.5,1.2,9,2,13.6,0.9c7.1-1.7,14.4,0.5,21.6-0.7
		c8.2-1.3,8.4-1,8.7-9.9c7.1,5.3,15.4,5.4,23.7,7.3c-3.1,3.3-4.8,7-6.7,10.6c-0.9,1.7-1.8,3.6-4.1,4.3c-11.2,3.7-17.7,13-24.3,21.8
		c-10,13.3-17.5,28.1-23,43.9c-0.6,1.8-1.5,3.6-1.6,5.4c-0.1,4.7-3.1,4.8-6.4,4.5c-1.7-0.1-3.5-0.3-5.2-0.4
		c-3.5-0.2-6.9-0.3-10.4-0.4c-1.7,0-3.5-0.1-5.2-0.1c-3.3,0-6.7,0-10,0c-0.3,0-0.6,0-0.8,0c-3.3,0-6.6,0-10,0
		c-0.2,0.1-0.5,0.2-0.7,0.2c-0.2,0-0.4,0.1-0.6,0.1c-0.4,0-0.8-0.1-1.1-0.3c-0.7-0.3-1.2-1-1.9-1.7
		C83.9,274.9,78.7,258.5,79.7,240.3z M47.2,363.4c-0.4,2.9-1.6,3.4-4.4,3c-9.2-1.4-18.2-3.4-27.4-7.9c1-1.1,1.9-2.2,2.9-3.3
		c2.8-3.2,5.5-6.3,8.3-9.4c1.3-1.8,2.5-3.5,3.8-5.3c0.8-1.2,1.7-2.3,2.5-3.4c1.6-2.1,3.2-4.2,4.9-6.2c0.6-0.6,1.1-1.3,1.7-1.9
		c2-2.2,4.2-4.4,6.5-6.3c1.8-1.5,3.7-2.9,5.7-4.2c1.4-2,3.3-3.4,5.4-4.5c7.2-4,30.7-10.6,40.2-11c-6.1,3.3-11.8,7.1-17,11.4
		c-5.2,4.3-9.9,9.2-14,14.8l0,0c-1,1.3-1.9,2.7-2.8,4.1c-0.9,1.4-1.9,2.7-3,3.9C53.7,344.8,48.6,353.2,47.2,363.4z M179.2,368.2
		c-16.8,10.1-35.2,15-54.2,18.8c-14.1,2.8-28.4,1.9-42.5,3.6c-0.5,0.1-1,0.1-1.5,0.1c-1.5,0-3-0.4-4.4-1.1c-3.9-0.8-8-0.9-11.5-2.9
		c-0.6-0.3-1.1-0.7-1.6-1.2c-0.5-0.5-1-1-1.5-1.6c-4-5.1-6.4-10.3-5.1-17.3c2.9-15.4,13.7-25.6,22.8-36.9c1.7-2.2,3.6-4.1,5.5-6
		c1.3-1.2,2.7-2.4,4-3.4c1.4-1.1,2.8-2.1,4.3-3c6.6-4.2,14.1-7,22.2-8.7l0,0c5.7-3.1,12.2-2.9,18.4-4c0.9-0.2,1.8-0.4,2.6-0.6
		c2-0.5,4-0.6,6-1.2c3.5-0.9,5.8-0.2,5.1,3.9c-2.5,13.8,4.9,24.4,12,34.8c5.8,8.4,11.3,17.2,19.8,23.3
		C181.7,366.2,181.3,366.9,179.2,368.2z M321.3,339.8c-6.1,7.7-11.2,16.3-20.5,21.2c-11.5,6-22.8,12.3-36.1,13.4
		c-5.2,0.4-10.4,0.9-15.5,2c-9.1,1.9-17.5-1.6-25.9-3.9c-8.1-2.1-16.1-4.5-24-7.4c-10.4-3.8-17.5-11.8-23.8-20.6
		c-6.6-7.5-12.2-15.7-16.2-24.9c-2.6-5.9-0.8-12.5-1-18.7c-0.7-18.3,7.8-33.4,17.5-48c3.7-8.6,10.1-15.2,16.1-22
		c2.8-3.1,7.1-4,10.7-5.9c2.9-1.5,5.5-3.3,6.6-6.5c5.4-14.9,18.2-17.9,31.7-19.5c2.2-0.3,4.5-0.4,6.7-0.4c3.7-0.1,7.5,0,11.3-0.1
		c1.9-0.2,3.8-0.4,5.6-0.6c5.6-0.5,11.3-0.7,16.8-0.4c7.4,0.4,14.8,1.8,22,4.5c8.3,3.1,15.7,7.7,21.7,14.7
		c9.6,11.3,15.1,24.2,16.9,38.9c0.2,1.4,0.2,2.7,0.1,4.1c-0.1,0.6-0.2,1.1-0.3,1.7c-0.1,0.5-0.2,0.9-0.4,1.4
		c-0.3,1.1-0.8,2.1-1.3,3.2c0.6,2.7,2.6,5.1,3.4,7.8c0.2,0.5,0.3,1.1,0.3,1.6c0.1,0.6,0,1.1-0.1,1.7c-0.1,0.6-0.3,1.2-0.6,1.9l0,0
		l0,0c0.1,1.2,0.3,2.4,0.3,3.6c0,0.4,0,0.8-0.1,1.2C340,303.8,334.3,323.3,321.3,339.8z M433.7,277c2.7,1.8,5.4,3.5,8.2,5.1
		c7.3,4.2,13.1,9.8,18.1,16.4c4.4,5.7,9.6,10.9,13.8,16.9c4.9,7,7.9,15.2,11.3,23c0.9,2-0.7,2-1.9,2.1c-3.5,0.4-6.9,0.7-10.4,1
		c-0.3,0.5-0.7,0.6-1.1,0.5c-0.1-0.1-0.3-0.1-0.4-0.3c-1.6,0.1-3.2,0.2-4.7,0.4c-2.8,1.9-6.1,1.3-9.2,1.7c-10.4,1.2-20.8,0.5-31.2,1
		c-9.4,0.5-17.9-3.2-26.8-4.7c-12-2.1-23.8-5-35.7-7.1c-6.8-1.2-12.8-4.3-19.3-6.4c-1.2-0.4-2.3-0.9-1.4-2.3
		c1.7-2.8,2.9-5.8,3.9-8.8c2.1-6.7,3-13.8,5.4-20.3l0,0c0,0,0,0,0,0l0,0l0,0l0,0c1.3-4.9,2.3-10.1,2.5-15.1c0-1.7,0-3.3-0.2-4.9
		c-0.9-7.5,3.5-6.4,7.7-7.6c11.9-3.3,24.1-2.8,36.2-2.7c4.7,0,9.4,0.7,14,1.9c4.6,1.2,9,2.9,13.4,4.9
		C428.3,273.4,431,275.2,433.7,277z M360.9,193.5c22.3-0.7,42.1,5.9,57.1,23.1c6.2,7.1,7.6,16.5,5.2,25.9c-0.6,2.3-1.1,4.6-1.3,6.9
		c-0.2,2.7-0.3,5.9-3.1,6.7c-3.5,0.9-7.4,1.6-10.5-1.5c-1.6-1.5-3.6,1.4-5.2-0.5c-5.3-0.3-10.8-0.6-15.9-0.7
		c-5.1-0.1-11.1,0.5-16.6,1.7c-3.9,0.8-7.9,1.2-11.6,2.5c-4.2,1.4-5.6-0.2-6.4-4c-1.2-5.7-3.1-11.3-4.3-17
		c-1.2-6.1-3.9-11.3-7.7-16.1c-0.7-0.8-1.3-1.7-1.9-2.6c-0.5-0.7-0.9-1.3-1.3-2c-1.3-2.1-2.4-4.3-3.1-6.6c-0.7-0.2-1.6-0.2-2.1-0.5
		c-0.2-0.1-0.3-0.2-0.4-0.3c-2.2-3.9-6.1-5.8-10.2-8.6c5.5-2,10.1-3.9,15.2-4.3C344.8,194.6,352.9,193.7,360.9,193.5z M323.8,156
		c3.6-6.8,7.4-6.9,11.7-0.1c2.9,4.6,6.7,8.8,8.3,14.6c-1.6,3.3-1.7,6.9-1.1,10.7c0.3,1.8-1.6,1.3-2.8,0.7c-3.8-2-7.8-3.8-11.4-6
		c-4.7-2.8-7.7-14.4-5.2-19.1C323.5,156.6,323.7,156.3,323.8,156z M307.7,119.3c2.9-2.4,5.8-4.8,8.8-7.2c1.2-1,2.5-1.7,4-1.8
		c3.6,0.1,8,0.5,8.4,4.1c0.3,3.1-2.1,6.7-6.3,7.7c-2.9,0.7-5.8,2.1-7.3,4.8c-1.9,3.4-4,3-6.9,1.2
		C301.9,124.1,301.8,124.2,307.7,119.3z M277.1,131.7c1.4-0.1,2.8-0.1,4.3-0.1c1.4,0,2.8,0,4.3,0c7.7-1.5,14.6,0.5,21,5
		c1.9,1.3,4.3,2,6.6,2.6c4.3,1.3,5.8,4.9,5.1,8.4c-0.7,3.5-2,7.4-7.6,7.2c-8.6-0.4-16.3-3.2-23.7-7.4c-4.7-2.7-10.2-4.4-13.2-9.6
		C271.7,133.8,272.5,132,277.1,131.7z M259.3,115.2c1.6,2,3.4,3.7,4.9,5.7c1,1.3,3.6,1.9,2.7,4c-0.9,1.9-2.7,3.4-4.2,5.1
		c-0.7,0.7-1.4,0.3-2-0.3c-4.8-4.6-11.3-5.4-17.1-7.6c-0.4-0.2-0.9-0.3-1.3-0.5c-2.2-0.7-4.7-2.1-4.8-4.1c-0.2-2.3,3-2.2,4.7-3
		c2.5-1.3,5.1-2.7,8.7-2.7C253.8,111.1,256.9,112.1,259.3,115.2z"/>
	<path class="st1" d="M168.8,284.3c0,4.2,1.3,8,2.5,11.9c0.3,0.8,0.5,1.6,0.7,2.5c0.2,0.7,0.4,1.4,0.5,2c0.7,3,1.7,6,4.8,7.7
		c2.9,1.6,2.8,5.5,5.9,7.4c11.8,7.4,13.3,5.7,21.3-0.7c-3.1-10-1.6-19.7,2.1-29.2c0,0,0,0,0,0c-0.1-0.5-0.3-1-0.4-1.6c0,0,0,0,0,0
		c0,0,0,0,0,0c0,0,0,0,0,0c1.3-0.9,2-2.2,2.6-3.6c0.4-0.9,0.6-1.8,1-2.7c0.2-0.5,0.3-1,0.5-1.4c1.3-3,3.6-4.6,6.4-5.8
		c0.3-0.1,0.7-0.4,0.9-0.3c6.6,5.4,4.5-4.7,8.3-4.7c0.8,0,0.8-1.9-0.1-2.8c-1.1-1-2.2-1.1-3.1,0.3c-0.8,1.2-1.8,2.8-3.2,1.3
		c-1.3-1.4,0.5-2.4,1.5-3.4c3.8-3.8,4.4-3.7,7.9,1.1c0.8,1.1,1.5,4.1,4.2,1.8c1-0.8,2.2-2.5,3.5-1.2c1.1,1.2,2.2,3,1.5,4.8
		c-1.7,4.4,0.4,8.7-0.1,13.1c-0.1,1.1,0.4,2.3-0.9,2.7c-1.3,0.4-2.6-0.2-3.1-1.5c-0.5-1.3-0.4-2.9-1-4.1c-0.4-1-0.3-3.1-2.1-2.5
		c-1.7,0.6-1.7,2.6-1,3.7c1.8,2.6,2.1,5.9,4.3,8.3c4.4,4.9,4.3,5.8-0.7,9.3c-3.2,2.3-6.4,4.6-2.8,9.1c0.6,0.8,0.5,1.8-0.2,2.6
		c-0.8,1-1.9,1-3,0.5c-3.1-1.1-5.2-3.6-7.5-5.6c-0.8-0.7-1.3-2.1-2.6-0.7c-1.1,1.2-0.2,2,0.7,2.8c1.3,1.2,2.5,2.5,2.8,4.3
		c0.2,1.4,1.2,3.7-1,3.9c-1.4,0.2-4.6,0.9-3.9-2.9c0.2-1.1-0.5-2.1-2-2.7c-0.8,1.6-1.2,4-3.8,3.9c0,0.6,0,1.3,0,1.9
		c0.1,1.9,0.6,3.8,1.2,5.6c0.6,0.3,0.8,0.9,1,1.4c0.1,0.3,0.1,0.7,0.3,1c1.1,3.1,2.6,3.9,4.8,0.8c1.3-1.8,2.7-3.5,5.5-2.5
		c0.6,0.2,1.8,0.1,2.2-0.4c3.4-3.7,7.4-2.9,11.3-1.3c2.7,1.1,4.4-1.2,5.9-2.1c3.2-1.9,5.6-2.4,8.3,0.5c0.4,0.4,1.1,0.7,1.7,0.8
		c0.9,0.2,2,0.1,2.4-1c0.3-1.1,0.2-2.4-1.3-2.5c-3.2-0.2-4.6-2.3-3.3-4.7c1.1-2,4.5-2.1,5.9-0.6c2.9,2.9,5.3,1.3,7.6-0.1
		c1.5-1,3-1.5,4.8-1.8c1.4-0.2,4.5,0.8,2.4-2.9c-0.7-1.1,1.5-0.9,2.4-1.3c3.4-1.4,7.4-1.9,7.8-6.8c0.1-1.7,1.7-1.8,2.9-1.7
		c4.6,0.3,5.8-1.9,4.9-6c-0.1-0.6,0.5-1.4,0.7-2.1c-1.3-2.4-2.5-4.8-3.9-7.1c-0.7-1.2-1.4-2.3-2.2-3.4s-1.7-2.1-2.6-3.1c0,0,0,0,0,0
		c-1.3-0.4-2.3-1.3-3.2-2.3c-0.8-1-1.5-2.1-2.2-3.1c-5.6-7.3-11.9-13.7-19.6-18.9c-1.8-1.2-3.2-2.9-2.8-5.6
		c7.2,5.5,13.6,11.3,20.8,16.3c6.3,4.3,11.9,9.7,14.8,17.2c0.8,1.1,1.7,1.9,2.8,2.6c0.4,0.2,0.7,0.4,1.1,0.6c3-0.6,5.8-1.8,8-3.6
		c5-3.9,7.7-10.4,7-17.7c-0.4-4.2-0.8-7.9-3.2-11.3c-0.7-0.1-1.5,0-1.5-1.1c0-0.1,0.2-0.3,0.3-0.3c1-0.2,1.1,0.6,1.3,1.3l0,0l0,0
		c0.8-0.1,1.6-0.1,2.3-0.2c0.8-0.1,1.6-0.1,2.3-0.2c7.4-0.8,9.1-4.3,5.8-11.1c-0.6-1.3-1.6-2.4-2.6-3.4c-1.6-1.8-3.2-3.6-2.9-6.5
		l-0.1-0.1c-0.3-0.2-0.5-0.5-0.8-0.7c-0.1-0.1-0.2-0.2-0.3-0.3c-0.4-0.5-0.8-1.1-1.2-1.6l0,0c-0.9-0.5-1.7-1-1.9-1.6
		c0-0.1-0.1-0.3-0.1-0.4c0-0.1,0-0.2,0-0.3c0-0.2,0.1-0.4,0.2-0.6c0.2-0.3,0.5-0.6,0.8-1c-0.6-3.5-4.2-4.9-5.7-7.8
		c-2-0.5-3.7-1.6-5.3-2.7c-0.5-0.4-1.1-0.8-1.6-1.2c-5.4-4.1-11.7-6.1-18.2-7.4c-1.8-0.4-3.7-0.6-5.6,0.3c-3.9,1.8-7.3,0.3-10.7-1.6
		l0,0c-3.7,0.1-7.5,0-11.3,0.1c-2.2,0.1-4.5,0.2-6.7,0.4c-13.4,1.6-26.3,4.6-31.7,19.5c-1.1,3.1-3.7,5-6.6,6.5
		c-3.6,1.8-7.9,2.7-10.7,5.9c-6,6.8-12.4,13.5-16.1,22c-0.3,7.4-3.8,13.9-5.7,20.9C169.2,277.1,168.3,280.6,168.8,284.3z
		 M243.6,237.1c1.3-4.9,2.5-9.8,3.7-14.7c2.7,4.6,4.3,9.1,1.5,13.6c-0.3,0.6-0.5,1.2,0.1,1.7c1.5,1.3,2.1,2.9,0.9,4.5
		c-0.7,0.9-2.2,0.9-3,0.1C245.2,240.9,242.9,239.9,243.6,237.1z M212.6,237c1.1-0.6,2.2-1.4,3.3-1.7c1.8-0.5,3.8,0,4.4-3.1
		c0.5-2.9-0.4-4.4-2.4-6c-0.9-0.7-2.1-1.3-2-3.1c3.4,0.4,4.7,4.4,7.6,4.5c3.3,0.1,5.4,1.2,6.6,4.1c0.9,2.3,5.5,3.5-1.1,6.3
		c-5.6,2.4-10.5,1.7-15.7,2.1c-0.8,0.1-1.6,0-2-0.9C210.9,238.1,211.8,237.5,212.6,237z"/>
	<path class="st2" d="M462.5,337.3c-1.3-0.4-2.8-0.6-3-2.4c-1.4,0.4-3.6-0.4-3.6,2.2c0,0,0,0,0,0c0,0,0,0,0,0
		c0.4,0.1,0.8,0.1,1.2,0.2c-0.6,0.9-0.9,0.1-1.2-0.2c0,0,0,0,0,0c0,0,0,0,0,0c-0.6,0-1.1-0.1-1.4-0.4c-0.4-0.3-0.6-0.7-0.6-1.3l0,0
		c-1,0-1.9-0.2-1.8-1.4c0.1-1.2,1.1-1.4,2-1.1c1.8,0.6,3.7,1.4,5.5,2.1l0,0c1.2-2.3,2.1-3.8,2.4-4.9c0.7-2.4-1.2-2.4-7.1-2.3
		c-5.5,0-11-1-16.4-2c0-0.5,0-1,0.1-1.4c0.7-3.6-1.3-7.8-4.5-9.2c-2.4-1-1.5-4.3-4.1-5.4c-0.3,1.5-4.3,2.9,0.7,4.5
		c-3.2,1.2-6.4-0.2-8.5,2.4c-2-2.2-6-0.7-7.4-3.5c-1.9-3.8-4.4-4.5-8.2-2.6c1.9-2.3,1.7-6.2,5.8-6.2c0.4,0,1-0.8,1.1-1.4
		c0.2-1.1-0.8-1-1.6-1.3c-1.8-0.6-3.7-0.6-6.4-0.1c2.3-2.8,1.6-6.8,6.3-6.9c1.7,0,1.3-3.1,3-4.4c3-2.2-1.4-2-1.5-3.7
		c3.1,0.5,4-2.8,6.4-3.7c0.6-0.3,1.1-1.1,0.6-1.5c-5.3-4.3,0.6-4.4,2.3-5.9c1.2-1,2.5-1.9,3.1-3.5c-4.3-2-8.8-3.7-13.4-4.9
		c-4.6-1.2-9.2-1.9-13.9-1.9c-12.1-0.1-24.3-0.6-36.2,2.7c-4.2,1.2-8.6,0-7.7,7.6c0.2,1.6,0.3,3.3,0.2,4.9c-0.1,5-1.2,10.2-2.5,15.1
		l0,0c7,0.8,13.5,3.1,20.1,5.4c1.2,0.4,2.4,0.8,3.6,1.2c1.8,0.6,3.6,1.1,5.4,1.6c1.4,0.4,2.5,1.2,3.4,2.4c1.7,0.1,3.5-0.1,4.6,2.3
		c-2.1-0.2-4,0.4-4.9-2l0,0l0,0c-6.7-0.9-12.8-3.6-19.1-5.8c-0.9-0.3-1.8-0.6-2.7-0.9c-3.6-1.1-7.6-1.2-10.6-4
		c-2.4,6.6-3.3,13.6-5.4,20.3c-1,3-2.2,6-3.9,8.8c-0.9,1.4,0.2,1.9,1.4,2.3c6.5,2,12.5,5.2,19.3,6.4c12,2.1,23.8,5,35.7,7.1
		c8.9,1.5,17.4,5.2,26.8,4.7c10.4-0.5,20.8,0.2,31.2-1c3.1-0.4,6.4,0.2,9.2-1.7C466.5,339.4,464.9,338.1,462.5,337.3z"/>
	<path class="st3" d="M92.5,220.2c3.8-1.8,6.5-5.4,11.3-5.9c0.9-0.1,3.9-4.9,4-7.9c0.2-3.8,2.3-3.2,3.9-2c2.4,1.8,6.4,3.1,7.8,3
		c5.2-0.5,9,2.4,13.4,3.5c3.2,0.8,6,2.6,9.9,1.4c3.8-1.1,7.5,5.8,5.8,10.4c-0.6,1.5-0.9,2.5,0.2,3.8c4.3,4.9,1.8,11.8-5,15.8
		c-0.6,0.4-1.3,0.5-1.3,1.6c0.1,4.8-4.8,10.7-7.7,8.7c-4-2.7-6.5,0.4-9.5-0.5c-1.2-0.4-1.5-2.2-3.4-1.9c-0.3,2.1,1.4,4.1,0.4,6.7
		c-1.1-2.7-4.3-2.2-5.8-4.5c-0.5-0.8-2.5,0-2.4,1.8c0,1.5-0.2,2.8-0.8,4.1c-0.6,1.3-1.6,1.9-3,1.9c-1.4,0-2.7-0.8-3-1.9
		c-0.7-2.3,0.6-6-4.2-4.7c-0.5,0.1,0.1-1.3,0.2-2.1c0.3-1.7,2.6-2.5,2-5c-2.7,0.8-5.3,1.6-8.5,2.5c0.4-1.3,1-2.4,1.5-3.5
		s0.8-2.1,0.5-3.3c-2.7,0.6-3.2-1.4-3.8-3.2c-0.8-2.4-1.2-4.9-1.9-7.3c-0.7-2.6-4.4-3.7-6.4-2c-0.6,0.5-1,0.9-0.3,1.8
		c3.4,4.7,3.1,5-0.2,9.2c-1.8,2.3-0.9,4.8,1.6,6.5c1.6,1.1,3.4,1.1,5.9,0.2c-1.4,3.1-1.2,5.9-2.7,8.1c-0.6,0.9-0.6,1.9,0,2.6
		c0.8,1,1.6,0.4,2.4-0.2c2-1.5,1.7,0.3,2.1,1.4c1.2,3.5,0.1,7.2,1,10.7c1.6,6.8,1.3,13.9,3.6,20.6c3.3,0,6.6,0,10,0
		c0.3,0,0.6,0,0.8,0c3.3,0,6.7,0,10,0c1.7,0,3.5,0.1,5.2,0.1c3.5,0.1,6.9,0.2,10.4,0.4c1.7,0.1,3.5,0.2,5.2,0.4
		c3.3,0.3,6.3,0.2,6.4-4.5c0-1.8,0.9-3.6,1.6-5.4c5.5-15.7,13-30.5,23-43.9c6.6-8.8,13.1-18.1,24.3-21.8c2.3-0.8,3.2-2.6,4.1-4.3
		c1.9-3.6,3.6-7.3,6.7-10.6c-8.3-2-16.6-2-23.7-7.3c-0.2,8.8-0.4,8.6-8.7,9.9c-7.2,1.2-14.4-1-21.6,0.7c-4.6,1.1-9.1,0.3-13.6-0.9
		c-7.9-2.1-16-3.8-23.9-5.9c-3.8-1-7.8-1.5-10.8-4.5c-1.4-1.4-2.7-1-4.1,0.3c-7.4,7.1-13.7,14.9-16.3,25.1
		C87.2,222.9,87.1,222.8,92.5,220.2z"/>
	<path class="st2" d="M179.6,364.7c-8.5-6.1-14.1-14.9-19.8-23.3c-7.1-10.4-14.5-20.9-12-34.8c0.7-4.1-1.6-4.8-5.1-3.9
		c-2,0.5-4,0.6-6,1.2c-0.9,0.2-1.7,0.4-2.6,0.6c-6.2,1.2-12.7,0.9-18.4,4l0,0l0,0c0.9,1.4,0.7,2.8,0.3,4.2c0,0.2-0.1,0.4-0.2,0.6
		c0,0.2-0.1,0.3-0.1,0.5c-0.2,0.8-0.4,1.6-0.3,2.4c2.9,1.3,2.6,1.1,1.2,3.4c-1,1.7-1,4.1-1.4,6.1c0,0,0,0,0,0l0,0c0,0,0,0,0,0
		c2.1-0.3,4.1-0.3,5.8,1.4c0,0,0,0,0.1,0c0,0,0,0,0,0l0,0l0,0c0.5,0,1,0.1,1.4,0.2c0.2,0.1,0.4,0.1,0.7,0.2c0.4,0.2,0.8,0.4,1.3,0.6
		c0.6,0.4,1.2,0.8,1.8,1.2c-1.5,0.7-2.8,0.8-3.7,0.1c-0.6-0.4-1-1.2-1.4-2.3c0,0,0,0,0,0l0,0c0,0,0,0,0,0c-0.7-0.1-1.5,0.1-2.3,0.2
		c-0.3,0.1-0.5,0.1-0.8,0.1c-1.1,0.1-2-0.1-2.7-1.7c0,0,0,0,0,0c0,0,0,0,0,0c-0.8,0.1-1.5,0.1-2.3,0.2c-0.8,0.1-1.5,0.1-2.4,0.2
		c0.3,2.1,2.1,3,3.5,4.1c1.1,0.9,2.4,2.2,1.9,2.9c-0.8,1.3-0.9,2.3-0.6,3.1c0.1,0.3,0.2,0.5,0.4,0.8c0.1,0.1,0.2,0.3,0.3,0.4
		c0.4,0.5,0.8,0.9,1.3,1.4c0.3,0.3,0.7,0.7,1,1c0.2,0,0.4,0,0.6,0c0.4,0,0.7,0.1,1,0.4c0.1,0.1,0.3,0.3,0.4,0.4c0,0,0,0,0,0l0,0
		c0,0,0,0,0,0c0.4,0,0.8,0,1.1,0.1c0.3,0.1,0.6,0.3,0.9,0.7c0.2,0.1,0.3,0.3,0.4,0.4c-0.1,0-0.2,0-0.3,0c-0.1-0.1-0.1-0.2-0.2-0.3
		l0,0c-0.6,0.1-1.2,0-1.6-0.3c-0.1-0.1-0.3-0.3-0.4-0.5c0,0,0,0,0,0c0,0,0,0,0,0l0,0l0,0c-0.6,0-1.1,0-1.6-0.3
		c-0.1-0.1-0.3-0.3-0.4-0.4c-0.9,0.2-1.8,0.3-2.8,0.5c2.3,0.6,0.8,3.3,2.3,4.1c1.1,0.6,2.3,1,1.9,2.2c-1.5,5,1.6,5.1,5.1,5.2
		c2.9,0.1,4.2,2.9,6.1,4.5c1.3,1,0,2.9-1.8,3.5c-7.8,2.5-13.7,7.7-20.2,12.5c-4.4,3.2-10.3,7.2-16.9,6.8c-1.2-0.1-1.6,0.2-2.3,0.8
		c-4.1,3.7-8.7,6.8-13.4,9.6c1.4,0.7,2.9,1.1,4.4,1.1c0.5,0,1,0,1.5-0.1c14.1-1.7,28.4-0.8,42.5-3.6c19-3.8,37.4-8.7,54.2-18.8
		C181.3,366.9,181.7,366.2,179.6,364.7z"/>
	<path class="st4" d="M178.7,345c0.2,0.1,0.5,0.2,0.7,0.3c2.7,1.1,5.2,2.8,8.1,3c2.4-1.2,4.9-1.6,7.4-1.6c0.2,0,0.4,0,0.6,0
		c0.6,0,1.1,0,1.7,0.1c1.9,0.1,3.8,0.4,5.7,0.4c0.7,0,1.5,0,2.2,0c7.4-0.2,14.9,0.8,22.2,0.3c20.8-1.4,39.9-7.8,58-18.3
		c10.8-6.3,18.2-15.3,25.6-24.7c4-5.2,7.7-10.8,14.1-13.5c0.3-0.1,0.8-0.1,0.9-0.3c3.6-6.9,9.1-12.6,12.5-19.6
		c0.8-1.7-0.4-4,1.6-5.3c0.6-1,1-2.1,1.3-3.2c0.1-0.5,0.3-0.9,0.4-1.4c0.1-0.6,0.2-1.1,0.3-1.7c0.1-1.3,0.1-2.7-0.1-4.1
		c-1.8-14.7-7.2-27.5-16.9-38.9c-6-7-13.4-11.6-21.7-14.7c-7.2-2.7-14.5-4.1-22-4.5c-5.6-0.3-11.2-0.1-16.8,0.4
		c-1.9,0.2-3.8,0.4-5.6,0.6c3.4,1.8,6.8,3.4,10.7,1.6c1.9-0.9,3.7-0.7,5.6-0.3c6.5,1.3,12.8,3.4,18.2,7.4c0.5,0.4,1.1,0.8,1.6,1.2
		c1.6,1.2,3.3,2.3,5.3,2.7l0,0c2.9,0.8,5.1,2.3,6.9,4.1c0.6,0.6,1.2,1.2,1.8,1.9c0.2,0.3,0.5,0.6,0.7,0.9c0.2,0.3,0.4,0.6,0.7,0.8
		c0.4,0.5,0.8,1.1,1.2,1.6c1,1.3,1.9,2.7,2.9,4c2.3,2.9,4.6,5.7,7.1,8.4c2.7,3,4.5,7.4,4.2,12c-0.1,1.4-1.1,2.2-2.5,2.3
		c0.8,12-1.5,22.9-6.4,32.8c-2.9,6-6.8,11.6-11.4,17c-0.9,1-1.8,2.1-2.7,3.1c-0.7,0.8-1.3,1.5-2,2.3c-0.9,1.1-1.9,2.1-2.8,3.1
		c-4.9,5.3-10.1,10.1-16.5,13.6c0.5,2.9-0.7,4.3-2.3,5.4c-0.6,0.3-1.1,0.6-1.8,0.9c-0.8,0.4-1.6,0.7-2.4,1.1c-3.8,2.1-7.6,4-9.2,8.5
		c0.1,0.1,0.3,0.1,0.4,0.2c-0.1-0.1-0.3-0.1-0.4-0.2c-3.1-0.5-5.8,0.8-8.7,1.4c-0.6,0.1-2-0.1-1.3,2c0.7,1.8-5.4,4.1-7.6,2.7
		c-3.7-2.3-6.2-0.4-8.5,2.5c-0.9-0.8-0.1-5.5-2.9-1.8c-2.8,3.6-7-0.2-10,3.4c0.2-3,3.2-3.9,2.2-6.3c-10.5,0.4-20.8-1-30.9-3.2
		c-2.8-0.6-5.5-1.3-8.2-2c-1.8-0.5-3.6-1-5.5-1.5c-1.8-0.5-3-1.7-4-3.2c-3.5-5.7-6.8-11.5-9.5-17.7c-0.1-0.2-0.2-0.4-0.2-0.6
		c-0.4-1.4,0.4-2,1.8-2.4c-1.2-4.6-2.3-9.3-3.7-13.8c-0.4-1.5-0.9-3-1.4-4.5c-0.9-2.5-0.5-4.1,1.3-5.6c-0.5-3.7,0.4-7.2,1.4-10.7
		c2-6.9,5.4-13.5,5.7-20.9c-9.8,14.6-18.3,29.7-17.5,48c0.2,6.3-1.5,12.9,1,18.7c4,9.1,9.5,17.4,16.2,24.9c0.6,0,1.1,0.1,1.6,0.2
		C177.7,344.7,178.2,344.8,178.7,345z"/>
	<path class="st3" d="M343.5,282.4c0-1.2-0.2-2.4-0.3-3.6l0,0c-0.5,0.1-1,0.3-1.5,0.6c-3.5,1.8-6.9,6.4-6.8,10
		c0.1,1.4,0.1,2.1-1,3.1c-4.7,4.2-8.6,9-12.2,14.2c-0.6,0.8-1.3,1.9-2.1,2.8c-1.4,1.5-3.4,2.6-6.1,1.3c-1.7,2.9-3.3,5.7-5,8.6
		c-1.7,2.9-3.3,5.7-5,8.6c-1.4,2.4-3,4.3-5.5,5.7c-7.7,4.3-15.2,9.2-23.1,13c-8,3.8-17.2,3.9-25.5,6.9c-16.4,6-32.1,0.6-47.9-2.4
		c-4.6-0.9-9.3-2-13.9-3l0,0c-3-0.2-5.4-1.9-8.1-3c-0.2-0.1-0.5-0.2-0.7-0.3c-0.5-0.2-1-0.3-1.5-0.4c-0.5-0.1-1.1-0.2-1.6-0.2
		c6.2,8.8,13.3,16.8,23.8,20.6c7.9,2.9,15.9,5.3,24,7.4c8.5,2.2,16.9,5.8,25.9,3.9c5.1-1.1,10.3-1.5,15.5-2
		c13.3-1.1,24.6-7.4,36.1-13.4c9.3-4.9,14.4-13.5,20.5-21.2c13-16.5,18.7-36,22.1-56.2C343.5,283.1,343.5,282.7,343.5,282.4z"/>
	<path class="st5" d="M89.9,379.9c0.7-0.6,1.2-0.9,2.3-0.8c6.6,0.4,12.5-3.5,16.9-6.8c6.5-4.8,12.4-9.9,20.2-12.5
		c1.8-0.6,3.1-2.5,1.8-3.5c-1.9-1.6-3.2-4.4-6.1-4.5c-3.5-0.1-6.6-0.2-5.1-5.2c0.4-1.3-0.9-1.7-1.9-2.2c-1.5-0.8,0-3.6-2.3-4.1
		c0.9-0.2,1.8-0.3,2.8-0.5l0,0c-0.3-0.4-0.6-0.7-1-1c-0.5-0.4-0.9-0.9-1.3-1.4c-0.1-0.1-0.2-0.2-0.3-0.4c-0.2-0.3-0.3-0.5-0.4-0.8
		c-0.3-0.8-0.2-1.8,0.6-3.1c0.4-0.7-0.9-2.1-1.9-2.9c-1.4-1.1-3.2-2-3.5-4.1c0.8-0.1,1.6-0.1,2.4-0.2c0.8-0.1,1.5-0.1,2.3-0.2
		c0.4-2.1,0.4-4.4,1.4-6.1c1.4-2.3,1.7-2.1-1.2-3.4l0,0c-0.1-0.8,0.1-1.6,0.3-2.4c0-0.2,0.1-0.3,0.1-0.5c0-0.2,0.1-0.4,0.2-0.6
		c0.3-1.4,0.6-2.8-0.3-4.2l0,0c-8.1,1.7-15.5,4.5-22.2,8.7c-1.5,0.9-2.9,1.9-4.3,3c-1.4,1.1-2.7,2.2-4,3.4c-1.9,1.8-3.8,3.8-5.5,6
		c-9.2,11.3-19.9,21.6-22.8,36.9c-1.3,7,1,12.2,5.1,17.3c0.5,0.6,1,1.1,1.5,1.6c0.5,0.5,1.1,0.8,1.7,1.2c3.4,2,7.6,2.1,11.5,2.9
		C81.2,386.7,85.7,383.6,89.9,379.9z M115.5,316.2C115.5,316.2,115.4,316.2,115.5,316.2c-0.5,2.5-3.7,4-2.2,7.4
		c-1.8-1-3.5-1.6-3-3.3C111.1,318,112.6,316.1,115.5,316.2C115.4,316.2,115.4,316.2,115.5,316.2
		C115.4,316.2,115.5,316.2,115.5,316.2z"/>
	<polygon class="st5" points="115.3,325.8 115.3,325.7 115.3,325.7 115.3,325.7 115.3,325.7 115.3,325.7 	"/>
	<path class="st6" d="M97.5,290.8c0.3,0.2,0.7,0.3,1.1,0.3c0.2,0,0.4,0,0.6-0.1c0.2,0,0.5-0.1,0.7-0.2c-2.3-6.7-2-13.8-3.6-20.6
		c-0.8-3.5,0.2-7.2-0.9-10.7c-0.4-1.1-0.1-2.9-2.1-1.4c-0.8,0.7-1.6,1.2-2.4,0.2c-0.6-0.8-0.6-1.8,0-2.6c1.5-2.3,1.4-5,2.7-8.1
		c-2.5,1-4.3,1-5.9-0.2c-2.5-1.7-3.3-4.2-1.6-6.5c3.3-4.2,3.6-4.5,0.2-9.2c-0.7-1-0.3-1.3,0.3-1.8c2-1.7,5.7-0.6,6.4,2
		c0.7,2.4,1.1,4.9,1.9,7.3c0.6,1.8,1.1,3.8,3.8,3.2l0,0c0.3,1.2,0,2.3-0.5,3.3c-0.5,1.1-1.1,2.2-1.5,3.5c3.2-1,5.8-1.7,8.5-2.5
		c0.6,2.5-1.7,3.3-2,5c-0.1,0.7-0.6,2.2-0.2,2.1c4.8-1.3,3.5,2.4,4.2,4.7c0.3,1.2,1.6,1.9,3,1.9c1.4,0,2.4-0.6,3-1.9
		c0.6-1.3,0.8-2.7,0.8-4.1c0-1.7,1.9-2.6,2.4-1.8c1.5,2.4,4.6,1.8,5.8,4.5c1-2.7-0.7-4.7-0.4-6.7c1.9-0.3,2.2,1.5,3.4,1.9
		c3,0.9,5.6-2.3,9.5,0.5c2.9,2,7.8-4,7.7-8.7c0-1.1,0.7-1.2,1.3-1.6c6.8-4,9.3-10.9,5-15.8c-1.1-1.3-0.8-2.3-0.2-3.8
		c1.7-4.7-2-11.5-5.8-10.4c-3.9,1.1-6.7-0.6-9.9-1.4c-4.4-1.1-8.2-4-13.4-3.5c-1.5,0.1-5.4-1.2-7.8-3c-1.6-1.1-3.7-1.7-3.9,2
		c-0.2,3-3.1,7.8-4,7.9c-4.8,0.5-7.5,4.1-11.3,5.9c-5.4,2.6-5.3,2.7-7.4-1.8c-3.5,6.9-5,14.4-5.4,21.9c-1,18.2,4.3,34.6,16,48.7
		C96.3,289.8,96.9,290.5,97.5,290.8z M98.9,241.8c-0.1,0.1-0.1,0.3-0.2,0.4l0,0C98.8,242.1,98.8,241.9,98.9,241.8z"/>
	<path class="st7" d="M407,230.4c-1.5-2.8-3.3-5.3-5.4-7.5c-1.1-1.1-2.2-2.1-3.4-3.1c-0.1-0.1-0.1-0.1-0.2-0.1
		c-1.1-0.9-2.3-1.8-3.6-2.6c-1.3,2.5-1.8,5.1-2.1,7.7s-0.1,5.3,0,7.9c0.1,5-1.9,7.9-6.1,10.5c3.7-10.1,3.8-20.3,1.4-30.5
		c-1.8-1.6-3.7-2.9-5.7-3.7c-0.9-0.4-1.8-0.7-2.8-1c-3.6-1-7.5-1.2-11.5-0.9c0.1,3.5-0.3,6.9-0.3,10.4c0,2.1,0,4.2,0.3,6.3
		c0.4,3.6-1.5,7.6-2.6,11.3c-0.2,0.7-1.4,1.5-2.2,1.5c-1.6,0.1-1.5-1.4-1.5-2.4c0-3.1,0.6-6.3,0.1-9.3c-0.9-5.4,0.8-10.7,0.6-16
		c-1.7-0.3-3.5,0.2-4.9-1.9c-1.2-1.9-3.8-1.7-5.9-1.6c-2.8,0.1-5.6,0.3-8.4,0.4c-0.7,2.2-1.3,4.3-4.4,2.3c-1.5-1-2.7,1.2-4.3,1l0,0
		c0.7,2.4,1.8,4.6,3.1,6.6c0.4,0.7,0.9,1.4,1.3,2c0.6,0.9,1.3,1.8,1.9,2.6c3.8,4.8,6.4,10,7.7,16.1c1.2,5.7,3.1,11.3,4.3,17
		c0.8,3.8,2.2,5.4,6.4,4c3.7-1.2,7.7-1.6,11.6-2.5c5.5-1.2,11.5-1.8,16.6-1.7c5.1,0.1,10.6,0.4,15.9,0.7c0.7-1.9,1.3-3.8,1.9-5.8
		C406.6,242.5,407.6,236.6,407,230.4z"/>
	<path class="st5" d="M422.6,275.2c-1.7,1.5-7.5,1.6-2.3,5.9c0.5,0.4,0,1.3-0.6,1.5c-2.4,1-3.3,4.2-6.4,3.7c0.1,1.7,4.5,1.5,1.5,3.7
		c-1.7,1.3-1.4,4.4-3,4.4c-4.7,0.1-4,4.1-6.3,6.9c2.7-0.5,4.6-0.5,6.4,0.1c0.7,0.2,1.7,0.2,1.6,1.3c-0.1,0.5-0.7,1.3-1.1,1.4
		c-4.1,0.1-3.9,3.9-5.8,6.2c3.8-2,6.3-1.3,8.2,2.6c1.4,2.8,5.4,1.3,7.4,3.5c2.1-2.6,5.4-1.2,8.5-2.4c-5-1.5-1-2.9-0.7-4.5
		c2.6,1.1,1.6,4.4,4.1,5.4c3.2,1.3,5.2,5.6,4.5,9.2c-0.1,0.5-0.1,0.9-0.1,1.4c5.5,1,10.9,2,16.4,2c5.9,0,7.7-0.1,7,2.3
		c-0.3,1.1-1.1,2.6-2.4,4.9l0,0l0,0l0,0c0.2,1.8,1.7,2,3,2.4c2.3,0.8,4,2.2,4,4.8c1.6-0.1,3.2-0.2,4.7-0.3c0.5-0.1,1-0.1,1.5-0.2
		c3.5-0.3,6.9-0.7,10.4-1c1.2-0.1,2.8-0.1,1.9-2.1c-3.5-7.8-6.4-16-11.3-23c-4.2-5.9-9.4-11.1-13.8-16.9
		c-5.1-6.6-10.9-12.2-18.1-16.4c-2.8-1.6-5.5-3.3-8.2-5.1c-2.7-1.8-5.3-3.6-8-5.3C425.1,273.2,423.8,274.1,422.6,275.2z
		 M420.8,278.3c-0.1-0.3-0.2-0.4-0.2-0.5c0,0,0.2-0.1,0.3-0.1C420.9,277.9,420.9,278,420.8,278.3z M439.5,305.8
		c-2.1,2.1-5.4-0.3-7.2,2.4C433.3,302.9,435.9,303.1,439.5,305.8z"/>
	<path class="st3" d="M235.9,155.3c7.1,8.2,15.6,15.8,11.4,28.5c-0.1,0.4,0,0.9,0,1.4c-0.1,2.5,1.1,3.3,3.5,3.2
		c9.8-0.6,19.5-2.3,29.3-1.6c-0.4-2.6,0.8-6,1.7-6.9c3.1-3.2,7.2-7.1,11.3-7.4c6.1-0.6,11.3,4.3,15.7,8.2c3.3,2.9,6.2,6.1,10.1,8.3
		c0.5,0.3,0.5,1.4,0.7,2.1c3-0.8,6.1-1.7,9.1-2.5c0.7-0.2,1.7-0.1,1.9-1.1c0.2-1.2-0.9-1.5-1.7-1.9c-3-1.7-6.7-2.5-8.7-5.5
		c-1.7-2.6-2.5-5.8-4-8.5c-1.2-2.1-5.2-2.6-2.9-6.6c0.6-1.1-1.7-1.8-3.2-1.7c-7.9,0.7-15-2-21.8-5.4c-9.3-4.6-17.9-10.6-28.7-11.3
		c-2.7-0.2-3.8-3.5-6.6-3.2c-5.5,0.5-11.1,0.7-16.5,1.8c-6.9,1.4-7,2.2-2.6,7.7C234.5,153.6,235.2,154.5,235.9,155.3z"/>
	<path class="st8" d="M215.9,160.9c-4.5,0.4-8,0.4-11.4,1c-9.5,1.8-19.5,1.7-27.3,9.1c-3.1,2.9-2.2,4.8,0.2,6.9
		c0.7,0.7,1.5,1.5,2.3,2c2.2,1.5,4.3,3.1,6.4,4.7c2,1.4,4,2.7,6.1,3.8c0.6,0.3,1.2,0.6,1.9,0.8c0,0,0.1,0,0.1,0c0.1,0,0.1,0,0.2,0.1
		c0.9,0.3,1.9,0.6,2.8,0.8c0.4,0.1,0.9,0.2,1.4,0.2c0.1,0,0.1,0,0.2,0c1.1,0.1,2.2,0.2,3.4,0.1c1.3-2.5,2.9-3.8,5-4.1
		c1.6-0.3,3.4,0.1,5.6,1c1.3,0.5,2,2.1,3.7,1.9c0.1-0.1,0.3-0.3,0.4-0.4c0,0.1,0,0.2-0.1,0.3c-0.1,0.1-0.2,0.1-0.3,0.2
		c0.1,0.5,0.1,1.1,0.2,1.6c1.8-1,3.2-2.5,5-3.6c0.6-0.4,1.2-0.7,1.9-0.9c3.9-1.3,7.5,0,11.2,0c1.3,0,2.9,0.8,3.8-0.9
		c1.7-2.9,0.7-12.4-1.5-15.2c-4-5-7.8-10-11.9-14.9c-7.1-8.8-17.2-8.1-23.2,1.6C206.2,158.7,210.9,158.2,215.9,160.9z"/>
	<path class="st4" d="M321.6,199.6c4.1,2.9,8,4.8,10.2,8.6c0.1,0.1,0.2,0.2,0.4,0.3c0.6,0.3,1.5,0.3,2.1,0.5c1.6,0.2,2.8-2,4.3-1
		c3.1,1.9,3.7-0.1,4.4-2.3c-1.1-0.1-2.2-0.3-3.7-0.5c10.7-6.3,22.2-1.7,33-3.8c11.4-2.3,20.3,3,28.5,9.7c5.4,4.4,8.5,10.7,10.4,17.2
		c1.6,5.4,1.9,11.2,0.2,16.9c-0.7-5.2-1.4-10.3-4.3-14.8l0,0c0.6,6.2-0.4,12.1-2,17.9c-0.6,1.9-1.2,3.8-1.9,5.8
		c1.6,1.9,3.6-1,5.2,0.5c3.1,3.1,7.1,2.4,10.5,1.5c2.8-0.8,2.9-3.9,3.1-6.7c0.1-2.3,0.7-4.6,1.3-6.9c2.4-9.5,1-18.8-5.2-25.9
		c-14.9-17.1-34.7-23.7-57.1-23.1c-8.1,0.2-16.1,1.1-24.1,1.8C331.7,195.7,327.1,197.6,321.6,199.6z"/>
	<path class="st8" d="M132.6,162.4c-3.1,2.7-2.8,3.9,1,5.5c0.8,0.4,1.9,0.9,2.3,1.6c2.5,4.5,5.8,8.4,9.5,12c0.3,0.3,0.3,1.4,0,1.7
		c-2.1,1.7-3.9,5-5.7,5.4c-3.5,0.8-7.4,1.4-11.3-0.3c-3.1-1.3-6.9-1.2-10.3-1.7c-0.6-0.1-1.2,0.1-1.7,0.1c-0.5-8-6.3-1.9-9.3-3.5
		c1.8,2.6,4.1,4.3,7.1,5.1c0.4,0.1,0.8,0.2,1.3,0.3c8.8,1.9,17.6,3.8,26.3,6c9.7,2.4,19.6-1.5,29.3,0.8c2.3,0.6,2.7-0.8,2-3.1
		c-3.1-9.4-6.3-18.6-16.4-23c-0.7-0.3-1.3-0.9-1.8-1.5c-5.3-6.5-12.4-8.1-20.2-7.8C134.8,161.6,133.4,161.7,132.6,162.4z"/>
	<path class="st7" d="M107.1,183.3c2.9,1.6,8.7-4.5,9.3,3.5c0.6,0,1.2-0.2,1.7-0.1c3.5,0.5,7.2,0.4,10.3,1.7c3.9,1.6,7.8,1,11.3,0.3
		c1.8-0.4,3.7-3.6,5.7-5.4c0.3-0.2,0.3-1.4,0-1.7c-3.7-3.6-7-7.4-9.5-12c-0.4-0.7-1.4-1.3-2.3-1.6c-3.8-1.6-4.1-2.8-1-5.5
		c0.8-0.7,2.1-0.8,1.9-2.3c-4.2,0-8.3-0.7-12.6,0.4c-7.3,1.8-10.8,7.6-15.2,12.6c-1.2,1.3-2.1,2.3-2.6,3.2c-0.6,0.8-0.9,1.5-0.8,2.2
		C103.3,179.7,104.6,180.9,107.1,183.3z"/>
	<path class="st5" d="M60.3,337.1c1.1-1.2,2.1-2.6,3-3.9c1-1.4,1.9-2.7,2.8-4.1l0,0l0,0c-0.1,0-0.1-0.1-0.2-0.1
		c-0.1-0.1-0.2-0.1-0.3-0.2c-3.5,0.4-6.5,1.7-8.9,4.1c-0.8,0.8-1.5,1.7-2.1,2.7c-0.1,0.1-0.2,0.4-0.2,0.4c-5.3-0.4-7.6,4.8-11.8,6.4
		c-4.7,1.8-9.4,3.9-14.6,4c-0.6,0-1.1-0.4-1.7-0.6c-2.7,3.1-5.4,6.2-8.3,9.4c-0.9,1.1-1.9,2.2-2.9,3.3c9.2,4.5,18.2,6.6,27.4,7.9
		c2.8,0.4,4-0.1,4.4-3C48.6,353.2,53.7,344.8,60.3,337.1z"/>
	<path class="st8" d="M287,147.4c7.3,4.2,15,7,23.7,7.4c5.6,0.2,6.9-3.7,7.6-7.2c0.7-3.5-0.8-7.1-5.1-8.4c-2.3-0.7-4.7-1.3-6.6-2.6
		c-6.4-4.5-13.2-6.5-21-5c-1.4,0-2.8,0-4.3,0c-1.4,0-2.8,0-4.3,0.1c-4.6,0.3-5.5,2.2-3.3,6.1C276.9,143,282.3,144.6,287,147.4z"/>
	<path class="st5" d="M63.3,327.3c1.1,0,2.2,0,2.4,1.5c0.1,0.1,0.2,0.1,0.3,0.2c0,0,0.1,0.1,0.1,0.1l0,0c4.1-5.6,8.8-10.5,14-14.8
		c5.2-4.3,10.9-8.1,17-11.4c-9.5,0.4-32.9,6.9-40.2,11c-2,1.1-4,2.6-5.4,4.5C53.8,324.1,57.7,327.1,63.3,327.3z"/>
	<path class="st6" d="M318.8,188.9c-3.9-2.1-6.8-5.4-10.1-8.3c-4.4-3.9-9.5-8.8-15.7-8.2c-4,0.4-8.1,4.2-11.3,7.4
		c-0.9,0.9-2.1,4.3-1.7,6.9c9.4-0.4,18,2.9,26.8,5.4c2.3,0.7,4.4,0.9,6.5,0.7c2.1-0.2,4.1-0.8,6.1-1.8
		C319.3,190.3,319.3,189.1,318.8,188.9z"/>
	<path class="st8" d="M328.6,176c3.7,2.2,7.6,4.1,11.4,6c1.1,0.6,3.1,1.1,2.8-0.7c-0.6-3.8-0.5-7.4,1.1-10.7
		c-1.6-5.8-5.4-10-8.3-14.6c-4.3-6.8-8.1-6.7-11.8,0.1c-0.1,0.3-0.3,0.6-0.4,0.8C320.9,161.6,323.9,173.1,328.6,176z"/>
	<path class="st8" d="M28.2,346.4c5.2-0.1,9.8-2.2,14.6-4c4.2-1.6,6.5-6.8,11.8-6.4c0.1,0,0.1-0.3,0.2-0.4c0.6-1,1.3-1.9,2.1-2.7
		c2.3-2.4,5.3-3.6,8.9-4.1l0,0c-0.2-1.5-1.3-1.5-2.4-1.5c-5.6-0.1-9.6-3.1-11.8-8.9c-2,1.3-3.9,2.7-5.7,4.2
		c-2.3,1.9-4.5,4.1-6.5,6.3c-0.6,0.6-1.1,1.3-1.7,1.9c-1.7,2-3.3,4.1-4.9,6.2c-0.8,1.1-1.7,2.3-2.5,3.4c-1.3,1.8-2.5,3.5-3.8,5.3
		l0,0C27,345.9,27.6,346.4,28.2,346.4z"/>
	<path class="st8" d="M165.1,165c1.6,1.5,3.1,2.8,5.7,0.8c6.4-5,13.1-9.5,19.7-14.3c-1.9-4.8-0.8-11.2-7-13.8
		c-4.1,2-6.5,5.7-9.5,8.9c-3.8,4.2-3.3,10.3-7.5,14.2C165.4,161.8,162.9,163,165.1,165z"/>
	<path class="st6" d="M338.5,271.1c-3.4,7-8.9,12.7-12.5,19.6c-0.1,0.2-0.6,0.2-0.9,0.3c0.1,1.3,0,2.4-1.1,3.4
		c-5.1,4.5-7.8,10.5-10.6,16.5c2.8,1.3,4.7,0.2,6.1-1.3c0.9-0.9,1.6-2,2.1-2.8c3.6-5.2,7.5-10.1,12.2-14.3c1.1-1,1.1-1.7,1-3.1
		c-0.2-3.5,3.3-8.2,6.8-10c0.5-0.3,1-0.5,1.5-0.6c0.3-0.6,0.5-1.3,0.6-1.9c0.1-0.6,0.1-1.2,0.1-1.7c0-0.6-0.2-1.1-0.3-1.6
		c-0.8-2.7-2.7-5.1-3.4-7.8l0,0C338.1,267.1,339.3,269.4,338.5,271.1z"/>
	<path class="st8" d="M250.8,111.7c-3.7,0-6.2,1.4-8.7,2.7c-1.7,0.8-4.8,0.8-4.7,3c0.2,2,2.6,3.4,4.8,4.1c0.4,0.2,0.9,0.3,1.3,0.5
		c5.8,2.2,12.3,3,17.1,7.6c0.6,0.6,1.4,1,2,0.3c1.5-1.6,3.3-3.1,4.2-5c1-2-1.7-2.7-2.7-4c-1.5-2-3.4-3.7-4.9-5.7
		C256.9,112.1,253.8,111.1,250.8,111.7z"/>
	<path class="st8" d="M308.4,128.2c2.9,1.8,4.9,2.2,6.9-1.2c1.6-2.7,4.4-4.1,7.3-4.8c4.2-1.1,6.6-4.7,6.3-7.7
		c-0.4-3.6-4.8-4-8.4-4.1c-1.5,0.1-2.8,0.8-4,1.8c-2.9,2.4-5.8,4.8-8.8,7.2C301.8,124.2,301.9,124.1,308.4,128.2z"/>
	<path class="st9" d="M146.4,152.7c1.5,1.3,3.2,1.7,5,1.9c1.1,0.1,2.1,0.1,3.2,0.1c1.6,0.1,4,1.1,4.7-0.7c1.5-3.5,5-5.6,6.1-9.2
		c0.3-1-0.6-1.3-1.4-1.6c-6.1-2.1-12.1-4.6-18.6-1.5C148.1,145.1,144.5,149.1,146.4,152.7z"/>
	<path class="st9" d="M190.4,151.6c5.2-0.4,11.2-7.7,10.8-13.2c0-0.1-0.2-0.3-0.2-0.4c-1.4,0.6-2.9,1.2-4.3,1.8
		c0.1-4.5-4.8-7.6-3.7-12.4c-1.6,1.7-3.5,3.2-5.2,4.8c-1.7,1.6-3.3,3.3-4.3,5.6C189.6,140.4,188.5,146.8,190.4,151.6z"/>
	<path class="st8" d="M133.9,151.6c0.5,0.1,1,0.1,1.6,0.1c3.7,0.2,7.4,0,11,1c-2-3.5,1.7-7.5-0.9-11c-5.6-0.4-9.1,3.5-13.3,6.2
		c-0.9,0.6-1.6,1.6-1.2,2.8C131.5,152,132.8,151.4,133.9,151.6z"/>
	<path class="st8" d="M193,127.3c-1.1,4.8,3.8,7.9,3.7,12.4c1.4-0.6,2.9-1.2,4.3-1.8c-0.4-2.8-0.8-5.6-1.1-8.4
		c-0.2-1.7,0.2-3.3-2.2-4c-1.4-0.4-2.5-0.4-3.3,0.1C193.8,126,193.3,126.6,193,127.3z"/>
	<path class="st9" d="M216.6,191c-0.1-0.6-0.1-1.1-0.2-1.6l0,0c-1.6,0.2-2.4-1.4-3.7-1.9c-2.2-0.9-4-1.3-5.6-1c-2,0.3-3.6,1.7-5,4.1
		l0,0c2.6,0.5,5.2,1,7.8,1.5c0.9,0.2,1.7,0.3,2.6,0.4c0.2,0,0.4,0.1,0.6,0.1C214.5,192.7,215.8,192.6,216.6,191z"/>
	<path class="st2" d="M472.8,341.5c-0.5,0.1-1,0.1-1.5,0.2c0.1,0.1,0.3,0.2,0.4,0.3C472.1,342.1,472.5,342,472.8,341.5z"/>
	<path class="st0" d="M321.9,239c-0.5-1.6-1.2-3.2-2.2-4.8c-0.3,1.5-0.4,2.4-0.6,3.3l0,0c0.1,0.5,0.1,1,0.2,1.5c0,0.5,0.1,1,0.1,1.5
		c0,1.1,0,2.3-0.1,3.4c-0.2,1.9-0.6,3.8-1.2,5.6c-0.9,3.4-1.5,6.9-2.4,10.3c-0.1,0.3-0.1,0.5-0.2,0.8c-0.2,0.6-0.4,1.3-0.5,1.9
		c-0.2,0.6-0.4,1.1-0.6,1.7c-0.8,2.1-1.8,4.2-3.2,6.2c-3.4,4.3-6.8,8.7-10.1,13.1c-1.7,2.3-3.5,0.8-4.8,0c-1.5-0.9-2.6-2.6-3.8-4
		c-0.4-0.2-0.8-0.4-1.1-0.6c-1.1-0.7-2-1.5-2.8-2.6c-1.5-1.2-3.1-2.5-4.6-3.6c-1-0.8-2.1-2.2-3.1,0c1,1,1.8,2,2.6,3.1
		s1.5,2.2,2.2,3.4c1.4,2.3,2.6,4.7,3.9,7.1c5.4,7.1,5.1,6.9-0.3,13.2c-6.4,7.4-15.3,11-23,16.5c-12.3,8.8-27.3,8.7-41.1,12.7
		c-3.3,1-7,0-10.3-1.1c-3.6-1.1-3.1-5-3.7-8c-0.7-1.8-1.1-3.7-1.2-5.6c0-0.6-0.1-1.3,0-1.9c-0.7-6.9-1.5-13.9-2.2-20.8
		c-0.1-0.6-0.1-1.3-0.2-1.9c-0.3-1.1-0.6-2.3-0.9-3.4c0,0,0,0,0,0c-3.7,9.5-5.1,19.2-2.1,29.2c0.2,0.6,0.5,1.2,0.6,1.8
		c3.1,12.1,3.3,10.1-8.3,9c-11.3-1.1-18.7-8.4-24.4-17.7c-1.5,0.3-2.2,1-1.8,2.4c0.1,0.2,0.1,0.4,0.2,0.6c2.7,6.1,6.1,12,9.5,17.7
		c0.9,1.5,2.2,2.7,4,3.2c1.8,0.5,3.6,1,5.5,1.5c2.7,0.7,5.5,1.4,8.2,2c10.1,2.2,20.4,3.6,30.9,3.2c0.8-0.2,1.5-0.3,2.3-0.5
		c0.5-0.2,1-0.4,1.5-0.5c9-2.1,18.2-3.6,27-6.5c7.9-2.5,14.2-8.6,21.6-12.3c6.5-3.5,11.7-8.4,16.5-13.6c1-1,1.9-2.1,2.8-3.1
		c0.7-0.8,1.3-1.5,2-2.3c0.9-1,1.8-2.1,2.7-3.1c4.6-5.4,8.4-11,11.4-17c4.9-10,7.2-20.8,6.4-32.8C323.1,244.3,322.8,241.6,321.9,239
		z"/>
	<path class="st10" d="M207.6,289.3c0.7,0.1,1.7-0.1,1.6,1c0,0.3-0.9,0.6-1.4,0.9c0.7,6.9,1.5,13.9,2.2,20.8c2.6,0.2,3-2.2,3.8-3.9
		c1.5,0.6,2.2,1.6,2,2.7c-0.7,3.7,2.6,3,3.9,2.9c2.2-0.3,1.2-2.5,1-3.9c-0.3-1.8-1.4-3.1-2.8-4.3c-0.8-0.7-1.8-1.6-0.7-2.8
		c1.3-1.4,1.8,0,2.6,0.7c2.4,2,4.4,4.5,7.5,5.6c1.1,0.4,2.2,0.5,3-0.5c0.7-0.8,0.8-1.8,0.2-2.6c-3.6-4.5-0.4-6.8,2.8-9.1
		c5-3.6,5.1-4.4,0.7-9.3c-2.2-2.4-2.5-5.7-4.3-8.3c-0.7-1-0.7-3.1,1-3.7c1.8-0.6,1.7,1.5,2.2,2.5c0.6,1.3,0.5,2.8,1,4.1
		c0.5,1.3,1.8,1.9,3.1,1.5c1.3-0.4,0.8-1.6,0.9-2.7c0.5-4.4-1.6-8.7,0.1-13.1c0.7-1.7-0.4-3.6-1.5-4.8c-1.3-1.3-2.6,0.3-3.5,1.2
		c-2.7,2.3-3.4-0.6-4.2-1.8c-3.5-4.8-4.1-4.9-7.9-1.1c-1,1-2.7,2-1.5,3.4c1.4,1.6,2.5-0.1,3.2-1.3c0.9-1.4,2.1-1.4,3.1-0.3
		c0.9,0.9,0.9,2.8,0.1,2.8c-3.8,0-1.7,10.1-8.3,4.7c-0.1-0.1-0.6,0.2-0.9,0.3c-2.8,1.2-5.1,2.8-6.4,5.8c-0.2,0.5-0.4,0.9-0.5,1.4
		c-0.3,0.9-0.6,1.8-1,2.7c-0.6,1.4-1.3,2.6-2.6,3.6c0,0,0,0,0,0c0,0,0,0,0,0c0.1,0.5,0.3,1,0.4,1.6
		C207,287.1,207.3,288.2,207.6,289.3z M231.6,268.7c0.8-0.2,1,0.6,0.9,1.2c0,0.9-0.5,1.5-1.3,1.8c-0.6,0.1-1-0.2-0.9-0.7
		C230.4,270,230.5,269,231.6,268.7z M229.6,294.9c0.1-0.1,0.1-0.3,0.2-0.4l0,0l0,0c0.3,0.1,0.5,0.2,0.8,0.3l0,0l0,0
		c-0.1,0.3-0.2,0.5-0.3,0.8c-0.3-0.1-0.7-0.1-0.8-0.3C229.5,295.2,229.5,295,229.6,294.9z M224.9,271c0.3,0.1,0.5,0.2,0.8,0.3l0,0
		l0,0c-0.1,0.3-0.2,0.5-0.3,0.8c-0.3-0.1-0.7-0.1-0.8-0.3C224.6,271.6,224.8,271.3,224.9,271z"/>
	<path class="st11" d="M214.9,327.5c3.2,1,6.9,2,10.3,1.1c13.8-4,28.7-3.8,41.1-12.7c7.7-5.5,16.6-9.1,23-16.5
		c5.4-6.3,5.7-6.1,0.3-13.2c-0.3,0.7-0.8,1.5-0.7,2.1c0.9,4.1-0.3,6.4-4.9,6c-1.2-0.1-2.8,0-2.9,1.7c-0.4,4.8-4.4,5.4-7.8,6.8
		c-0.9,0.4-3.1,0.2-2.5,1.3c2.1,3.7-1,2.7-2.4,2.9c-1.8,0.3-3.2,0.8-4.8,1.8c-2.3,1.4-4.7,3.1-7.6,0.1c-1.4-1.5-4.9-1.4-5.9,0.6
		c-1.4,2.5,0,4.5,3.3,4.7c1.5,0.1,1.6,1.4,1.3,2.5c-0.3,1.1-1.4,1.2-2.4,1c-0.6-0.1-1.3-0.4-1.7-0.8c-2.7-2.9-5.1-2.4-8.3-0.5
		c-1.5,0.9-3.2,3.1-5.9,2.1c-3.9-1.6-7.9-2.4-11.3,1.3c-0.4,0.4-1.6,0.6-2.2,0.4c-2.7-1-4.2,0.7-5.5,2.5c-2.2,3.1-3.7,2.3-4.8-0.8
		c-0.1-0.3-0.2-0.7-0.3-1c-0.1-0.6-0.3-1.1-1-1.4C211.8,322.6,211.3,326.4,214.9,327.5z"/>
	<path class="st11" d="M296.2,283.4c1.3,0.8,3.1,2.3,4.8,0c3.3-4.4,6.7-8.7,10.1-13.1c0.4-5.1,0.7-10.3,1.2-15.4
		c0.3-3.3,2.9-4.6,5.7-5.4c0.7-1.8,1-3.7,1.2-5.6c0.1-1.1,0.2-2.3,0.1-3.4c0-0.5-0.1-1-0.1-1.5c0-0.5-0.1-1-0.2-1.5l0,0l0,0
		c-1.1-0.7-1.9-1.7-2.6-2.8c-1.2-1.7-2-3.7-3.3-5.3c-1.2-1.4-2-3.3-3.9-4c-0.3,2.9,1.3,4.7,2.9,6.5c1,1.1,2,2.2,2.6,3.4
		c3.3,6.8,1.6,10.4-5.8,11.1c-0.8,0.1-1.6,0.1-2.3,0.2c-0.8,0.1-1.6,0.1-2.3,0.2l0,0l-0.1,0.1c2.4,3.4,2.8,7.1,3.2,11.3
		c0.7,7.3-2.1,13.8-7,17.7c-2.3,1.8-5,3-8,3.6C293.6,280.8,294.7,282.5,296.2,283.4z"/>
	<path class="st11" d="M197,326c11.6,1.1,11.3,3.1,8.3-9c-0.2-0.6-0.4-1.2-0.6-1.8c-8.1,6.3-9.5,8.1-21.3,0.7c-3.1-2-3-5.8-5.9-7.4
		c-3.1-1.7-4.1-4.7-4.8-7.7c-0.2-0.7-0.3-1.4-0.5-2c-0.2-0.8-0.5-1.6-0.7-2.5c-1.2-3.9-2.5-7.8-2.5-11.9c-1.9,1.5-2.2,3-1.3,5.6
		c0.5,1.5,1,3,1.4,4.5c1.3,4.6,2.4,9.2,3.7,13.9C178.3,317.5,185.7,324.9,197,326z"/>
	<path class="st11" d="M213.3,240.1c5.2-0.4,10.1,0.3,15.7-2.1c6.6-2.8,2-4.1,1.1-6.3c-1.3-3-3.3-4-6.6-4.1
		c-2.9-0.1-4.2-4.1-7.6-4.5c-0.2,1.8,1.1,2.4,2,3.1c2.1,1.5,2.9,3.1,2.4,6c-0.5,3.1-2.5,2.6-4.4,3.1c-1.2,0.3-2.3,1.1-3.3,1.7
		c-0.8,0.5-1.7,1-1.2,2.2C211.7,240.2,212.5,240.2,213.3,240.1z"/>
	<path class="st11" d="M283.8,272.6c1.6,1.2,3.1,2.4,4.6,3.6c-2.9-7.5-8.4-12.9-14.8-17.2c-7.2-4.9-13.6-10.8-20.8-16.3
		c-0.4,2.8,1,4.4,2.8,5.6c7.6,5.2,14,11.5,19.6,18.9c0.7,0.9,1.4,2.1,2.2,3.1c0.8,1,1.8,1.8,3.2,2.3c0,0,0,0,0,0
		C281.7,270.4,282.8,271.9,283.8,272.6z"/>
	<path class="st3" d="M307.3,220.6c0.2,0.3,0.2,0.6,0.2,1c0,0.2-0.1,0.3-0.2,0.5c-0.1,0.2-0.2,0.4-0.4,0.6l0,0l0,0
		c0.4,0.5,0.8,1.1,1.2,1.6l0,0l0,0c0.2,0,0.3,0,0.4,0c0.4,0.1,0.5,0.5,0.6,0.9c0,0,0.1,0.1,0.1,0.1c1.9,0.7,2.7,2.5,3.9,4
		c1.3,1.6,2.2,3.6,3.3,5.3c0.7,1,1.5,2,2.6,2.8l0,0c0.2-0.9,0.3-1.8,0.6-3.3c1,1.6,1.7,3.2,2.2,4.8c0.9,2.7,1.2,5.4,1.4,8.1l0,0
		c1.4-0.2,2.4-0.9,2.5-2.3c0.3-4.6-1.4-9-4.2-12c-2.5-2.7-4.8-5.5-7.1-8.4c-1-1.3-2-2.6-2.9-4c-0.4-0.5-0.8-1.1-1.2-1.6
		c-0.2-0.3-0.4-0.6-0.7-0.8c-0.2-0.3-0.5-0.6-0.7-0.9c-0.6-0.7-1.1-1.3-1.8-1.9c-1.9-1.8-4.1-3.3-6.9-4.1l0,0
		c1.5,2.9,5.1,4.3,5.7,7.8C306.4,219.5,307,220,307.3,220.6z"/>
	<path class="st11" d="M246.7,242.4c0.8,0.8,2.3,0.9,3-0.1c1.2-1.6,0.6-3.2-0.9-4.5c-0.6-0.5-0.4-1.1-0.1-1.7
		c2.8-4.6,1.2-9-1.5-13.6c-1.2,4.9-2.4,9.8-3.7,14.7C242.9,239.9,245.2,240.9,246.7,242.4z"/>
	<path class="st11" d="M307.3,222.1c0.1-0.2,0.1-0.4,0.2-0.5c0-0.3-0.1-0.7-0.2-1c-0.3-0.6-0.9-1.1-1.2-1.7c-0.4,0.3-0.7,0.7-0.8,1
		c-0.1,0.2-0.2,0.4-0.2,0.6c0,0.1,0,0.2,0,0.3c0,0.1,0,0.3,0.1,0.4c0.2,0.6,1,1.1,1.9,1.6l0,0C307.1,222.5,307.2,222.3,307.3,222.1z
		"/>
	<path class="st11" d="M303,245.5c-0.1,0-0.3,0.2-0.3,0.3c0,1,0.8,1,1.5,1.1l0.1-0.1C304.1,246.1,304,245.3,303,245.5z"/>
	<path class="st11" d="M308.5,224.4c-0.1,0-0.3-0.1-0.4,0l0,0c0.1,0.1,0.2,0.2,0.3,0.3c0.3,0.2,0.5,0.5,0.8,0.7
		C309.1,224.8,308.9,224.5,308.5,224.4z"/>
	<path class="st5" d="M362.7,299.2c0.9,0.3,1.8,0.6,2.7,0.9c6.3,2.2,12.4,4.9,19.1,5.8l0,0l0.1-0.1c0.1-0.1,0.1-0.2,0.1-0.2
		c-0.9-1.2-2-2-3.4-2.4c-1.8-0.5-3.6-1-5.4-1.6c-1.2-0.4-2.4-0.8-3.6-1.2c-6.6-2.2-13.1-4.6-20.1-5.4l0,0c0,0,0,0,0,0c0,0,0,0,0,0
		C355.1,298,359.1,298.1,362.7,299.2z"/>
	<path class="st5" d="M452.1,333.8c-0.1,1.3,0.8,1.4,1.8,1.4c0.1-0.1,0.2-0.3,0.4-0.4c0,0.1,0,0.2,0,0.3c-0.1,0.1-0.2,0.1-0.3,0.2
		c0.1,0.6,0.3,1.1,0.6,1.3c0.4,0.3,0.8,0.4,1.4,0.4c0.1-2.6,2.2-1.8,3.6-2.2l0,0l0,0c-1.8-0.7-3.6-1.4-5.5-2.1
		C453.2,332.4,452.2,332.6,452.1,333.8z"/>
	<polygon class="st5" points="455.9,337 455.9,337 455.9,337 	"/>
	<path class="st5" d="M384.5,306c0.9,2.4,2.8,1.8,4.9,2c-1.2-2.4-3-2.2-4.6-2.3C384.7,305.7,384.6,305.8,384.5,306
		C384.5,305.9,384.5,306,384.5,306z"/>
	<path class="st5" d="M457.2,337.3c-0.4-0.1-0.8-0.1-1.2-0.2C456.3,337.4,456.6,338.2,457.2,337.3z"/>
	<polygon class="st5" points="456,337 455.9,337 455.9,337 	"/>
	<path class="st5" d="M126.3,329.4c-0.6-0.4-1.2-0.8-1.8-1.2c-0.4-0.2-0.8-0.5-1.3-0.6c-0.2-0.1-0.4-0.2-0.7-0.2
		c-0.4-0.1-0.9-0.2-1.4-0.2l0,0c0.3,1.1,0.8,1.9,1.4,2.3C123.5,330.2,124.8,330.1,126.3,329.4z"/>
	<polygon class="st5" points="121.1,327.2 121.1,327.2 121.2,327.2 121.2,327.1 	"/>
	<path class="st5" d="M118,327.5c0.3,0,0.5-0.1,0.8-0.1c0.8-0.2,1.6-0.4,2.3-0.2c-1.6-1.6-3.7-1.6-5.8-1.4
		C116,327.4,116.9,327.6,118,327.5z"/>
	<polygon class="st5" points="115.3,325.8 115.3,325.8 115.3,325.7 115.3,325.7 	"/>
	<path class="st5" d="M121.1,327.2L121.1,327.2C121.1,327.1,121.1,327.1,121.1,327.2C121.1,327.1,121.1,327.2,121.1,327.2
		L121.1,327.2z"/>
	<path class="st5" d="M118.4,339.8c0.1,0.2,0.3,0.3,0.4,0.4c0.4,0.3,1,0.4,1.6,0.3l0,0c-0.1-0.2-0.2-0.3-0.4-0.4
		c-0.3-0.2-0.6-0.3-1-0.4C118.8,339.8,118.6,339.8,118.4,339.8L118.4,339.8z"/>
	<polygon class="st5" points="120.4,340.6 120.4,340.6 120.4,340.6 120.4,340.6 120.4,340.6 	"/>
	<path class="st5" d="M120.8,341c0.4,0.4,1,0.4,1.6,0.3l0,0l0,0l0,0c-0.2-0.4-0.5-0.6-0.9-0.7c-0.3-0.1-0.7-0.1-1.1-0.1
		C120.5,340.8,120.6,340.9,120.8,341z"/>
	<polygon class="st5" points="120.4,340.6 120.4,340.6 120.4,340.6 120.4,340.6 	"/>
	<path class="st5" d="M122.3,341.4c0.1,0.1,0.1,0.2,0.2,0.3c0.1,0.1,0.2,0,0.3,0C122.7,341.6,122.5,341.5,122.3,341.4
		C122.4,341.4,122.3,341.4,122.3,341.4L122.3,341.4z"/>
	<path class="st0" d="M324,294.4c1.1-1,1.2-2.1,1.1-3.4c-6.4,2.7-10,8.3-14.1,13.5c-7.4,9.4-14.7,18.4-25.6,24.7
		c-18.1,10.5-37.3,16.9-58,18.3c-7.4,0.5-14.8-0.5-22.2-0.3c-0.7,0-1.5,0-2.2,0c-1.9-0.1-3.8-0.3-5.7-0.4c-0.6,0-1.1-0.1-1.7-0.1
		c-0.2,0-0.4,0-0.6,0c-2.5,0-5,0.3-7.4,1.6c4.6,1,9.2,2.1,13.9,3c15.8,3,31.5,8.4,47.9,2.4c8.3-3,17.5-3,25.5-6.9
		c8-3.8,15.4-8.7,23.1-13c2.4-1.4,4.1-3.3,5.5-5.7c1.6-2.9,3.3-5.7,4.9-8.6c1.7-2.9,3.3-5.7,5-8.6
		C316.2,304.9,318.8,298.8,324,294.4z"/>
	<path class="st8" d="M259.9,331.3c-8.8,2.8-18,4.4-27,6.5c-0.4,0.5-0.9,0.8-1.5,0.5c-0.8,0.2-1.5,0.3-2.3,0.5c1,2.4-2,3.3-2.2,6.3
		c3-3.6,7.2,0.1,10-3.4c2.9-3.7,2.1,1,2.9,1.8c2.3-3,4.8-4.8,8.5-2.5c2.2,1.4,8.3-0.9,7.6-2.7c-0.8-2.1,0.6-1.8,1.3-1.9
		c2.9-0.6,5.7-1.9,8.7-1.4l0,0c1.5-4.5,5.3-6.4,9.2-8.5c0.7-0.4,1.6-0.8,2.4-1.1c0.6-0.3,1.2-0.6,1.8-0.9c1.6-1,2.8-2.5,2.3-5.4
		C274,322.7,267.8,328.8,259.9,331.3z"/>
	<path class="st2" d="M110.3,320.3c-0.6,1.7,1.2,2.3,3,3.3c-1.5-3.4,1.7-4.9,2.1-7.4C112.6,316.1,111.1,318,110.3,320.3z"/>
	<polygon class="st2" points="115.5,316.2 115.4,316.2 115.4,316.2 	"/>
	<path class="st3" d="M98.9,241.8c-0.1,0.1-0.1,0.3-0.2,0.4l0,0C98.8,242.1,98.8,241.9,98.9,241.8z"/>
	<path class="st0" d="M357.2,206.9c1.3,2.1,3.1,1.6,4.9,1.9c1.7-1.1,2.9-3.8,5.6-1.8c4-0.3,7.9-0.1,11.5,0.9c0.9,0.3,1.9,0.6,2.8,1
		c2,0.9,3.9,2.1,5.7,3.7c2.3,1.5,4.6,3,6.8,4.4c1.3,0.8,2.4,1.7,3.6,2.6c0.1,0,0.1,0.1,0.2,0.1c1.2,1,2.3,2,3.4,3.1
		c2.1,2.2,4,4.7,5.4,7.5c2.9,4.5,3.7,9.6,4.3,14.8c1.7-5.7,1.5-11.5-0.2-16.9c-2-6.5-5.1-12.8-10.4-17.2c-8.2-6.7-17.1-12-28.5-9.7
		c-10.7,2.2-22.3-2.5-33,3.8c1.5,0.2,2.6,0.3,3.7,0.5c2.8-0.1,5.6-0.3,8.4-0.4C353.5,205.2,356,205,357.2,206.9z"/>
	<path class="st8" d="M362.1,208.8c0.2,5.3-1.5,10.6-0.6,16c0.5,3-0.1,6.2-0.1,9.3c0,1-0.1,2.5,1.5,2.4c0.8,0,2-0.8,2.2-1.5
		c1.1-3.8,3.1-7.7,2.6-11.3c-0.3-2.1-0.3-4.2-0.3-6.3c0.1-3.5,0.4-6.9,0.3-10.4C365,205,363.8,207.7,362.1,208.8z"/>
	<path class="st4" d="M387.5,212.6c2.3,10.2,2.3,20.4-1.4,30.5c4.2-2.6,6.3-5.5,6.1-10.5c-0.1-2.6-0.2-5.3,0-7.9
		c0.2-2.6,0.8-5.3,2.1-7.7l0,0C392.1,215.6,389.8,214.1,387.5,212.6z"/>
	<path class="st2" d="M439.5,305.8c-3.6-2.7-6.2-2.9-7.2,2.4C434,305.5,437.4,307.9,439.5,305.8z"/>
	<path class="st2" d="M420.8,278.3c0.1-0.3,0.1-0.5,0.1-0.6c-0.1,0-0.3,0.1-0.3,0.1C420.7,278,420.8,278.1,420.8,278.3z"/>
	<path class="st9" d="M216.7,189.2c0.1,0,0-0.2,0.1-0.3c-0.1,0.1-0.3,0.3-0.4,0.4l0,0C216.5,189.3,216.6,189.3,216.7,189.2z"/>
	<path class="st7" d="M312.3,254.9c-0.5,5.1-0.8,10.3-1.2,15.4c1.4-1.9,2.4-4,3.2-6.2c0.2-0.6,0.4-1.1,0.6-1.7
		c0.2-0.6,0.4-1.3,0.6-1.9c0.1-0.3,0.1-0.5,0.2-0.8c0.9-3.4,1.5-6.9,2.4-10.3C315.2,250.3,312.7,251.7,312.3,254.9z"/>
	<path class="st1" d="M209.1,290.3c0.1-1.1-0.9-1-1.6-1c0.1,0.6,0.1,1.3,0.2,1.9C208.2,290.9,209.1,290.7,209.1,290.3z"/>
	<path class="st4" d="M232.8,337.8c-0.5,0.2-1,0.4-1.5,0.5C232,338.6,232.4,338.3,232.8,337.8z"/>
	<path class="st1" d="M231.2,271.7c0.8-0.3,1.3-0.9,1.3-1.8c0-0.6-0.1-1.5-0.9-1.2c-1.1,0.3-1.2,1.3-1.3,2.3
		C230.2,271.5,230.7,271.8,231.2,271.7z"/>
	<path class="st1" d="M230.3,295.6c0.1-0.3,0.2-0.5,0.3-0.8l0,0c-0.3-0.1-0.5-0.2-0.8-0.3l0,0c0,0.1-0.1,0.3-0.2,0.4
		c-0.1,0.1-0.1,0.3-0.1,0.4C229.6,295.4,230.1,295.5,230.3,295.6z"/>
	<path class="st1" d="M225.5,272.1c0.1-0.3,0.2-0.5,0.3-0.8l0,0c-0.3-0.1-0.5-0.2-0.8-0.3c-0.1,0.3-0.3,0.6-0.2,0.8
		C224.8,272,225.2,272,225.5,272.1z"/>
	<path class="st2" d="M454.2,335.1c0.1,0,0-0.2,0-0.3c-0.1,0.1-0.2,0.3-0.4,0.4l0,0C454,335.2,454.1,335.2,454.2,335.1z"/>
</g>
</svg>
